<svg width="99" height="22" viewBox="0 0 99 22" fill="none" xmlns="http://www.w3.org/2000/svg">
<path d="M15.6999 4.08L15.0279 7.824H10.5399L8.21194 21H3.48394L5.81194 7.824H1.34794L2.01994 4.08H15.6999ZM30.6163 7.536L28.2163 21H23.5123L23.8483 19.08C23.3203 19.688 22.6723 20.184 21.9043 20.568C21.1523 20.936 20.3203 21.12 19.4083 21.12C18.0803 21.12 17.0483 20.744 16.3123 19.992C15.5763 19.24 15.2083 18.192 15.2083 16.848C15.2083 16.384 15.2563 15.888 15.3523 15.36L16.7203 7.536H21.4243L20.1523 14.76C20.1043 14.968 20.0803 15.176 20.0803 15.384C20.0803 15.96 20.2483 16.416 20.5843 16.752C20.9203 17.072 21.3763 17.232 21.9523 17.232C22.6243 17.232 23.1923 17.024 23.6563 16.608C24.1203 16.192 24.4323 15.616 24.5923 14.88L25.8883 7.536H30.6163ZM36.7734 21.168C35.6534 21.168 34.6534 21 33.7734 20.664C32.8934 20.328 32.2054 19.856 31.7094 19.248C31.2134 18.624 30.9654 17.912 30.9654 17.112C30.9654 16.968 30.9814 16.752 31.0134 16.464H35.5494C35.5334 16.912 35.6694 17.256 35.9574 17.496C36.2454 17.736 36.6454 17.856 37.1574 17.856C37.5574 17.856 37.8854 17.776 38.1414 17.616C38.4134 17.456 38.5494 17.248 38.5494 16.992C38.5494 16.688 38.3814 16.456 38.0454 16.296C37.7094 16.12 37.1494 15.904 36.3654 15.648C35.4534 15.36 34.7014 15.08 34.1094 14.808C33.5174 14.536 32.9974 14.136 32.5494 13.608C32.1174 13.08 31.9014 12.4 31.9014 11.568C31.9014 10.768 32.1334 10.048 32.5974 9.408C33.0774 8.768 33.7494 8.272 34.6134 7.92C35.4774 7.552 36.4774 7.368 37.6134 7.368C38.8294 7.368 39.8774 7.576 40.7574 7.992C41.6534 8.392 42.3174 8.952 42.7494 9.672C43.1974 10.392 43.3974 11.192 43.3494 12.072H39.1254C39.1414 11.64 39.0134 11.304 38.7414 11.064C38.4694 10.808 38.0774 10.68 37.5654 10.68C37.1974 10.68 36.8934 10.76 36.6534 10.92C36.4134 11.08 36.2934 11.288 36.2934 11.544C36.2934 11.848 36.4614 12.088 36.7974 12.264C37.1494 12.44 37.7334 12.664 38.5494 12.936C39.4454 13.224 40.1894 13.512 40.7814 13.8C41.3894 14.072 41.9094 14.464 42.3414 14.976C42.7734 15.472 42.9894 16.112 42.9894 16.896C42.9894 18.224 42.4134 19.272 41.2614 20.04C40.1094 20.792 38.6134 21.168 36.7734 21.168ZM55.7901 7.416C57.1021 7.416 58.1261 7.792 58.8621 8.544C59.5981 9.296 59.9661 10.344 59.9661 11.688C59.9661 12.152 59.9181 12.64 59.8221 13.152L58.4301 21H53.7261L54.9981 13.776C55.0461 13.536 55.0701 13.32 55.0701 13.128C55.0701 12.552 54.9021 12.104 54.5661 11.784C54.2461 11.464 53.7901 11.304 53.1981 11.304C52.5421 11.304 51.9821 11.504 51.5181 11.904C51.0541 12.304 50.7421 12.856 50.5821 13.56L49.2621 21H44.5341L47.6781 3.24H52.4061L51.3021 9.456C51.8301 8.848 52.4781 8.36 53.2461 7.992C54.0141 7.608 54.8621 7.416 55.7901 7.416ZM61.4192 14.256C61.6752 12.864 62.1472 11.648 62.8352 10.608C63.5232 9.568 64.3472 8.768 65.3072 8.208C66.2832 7.648 67.3072 7.368 68.3792 7.368C69.3072 7.368 70.0752 7.552 70.6832 7.92C71.2912 8.288 71.7152 8.784 71.9552 9.408L72.2912 7.536H76.9952L74.6192 21H69.9152L70.2512 19.128C69.7872 19.752 69.1792 20.248 68.4272 20.616C67.6752 20.984 66.8432 21.168 65.9312 21.168C64.5232 21.168 63.3952 20.704 62.5472 19.776C61.6992 18.832 61.2752 17.552 61.2752 15.936C61.2752 15.408 61.3232 14.848 61.4192 14.256ZM71.1152 14.256C71.1632 14.016 71.1872 13.792 71.1872 13.584C71.1872 12.912 70.9952 12.392 70.6112 12.024C70.2432 11.656 69.7632 11.472 69.1712 11.472C68.4672 11.472 67.8352 11.72 67.2752 12.216C66.7152 12.696 66.3632 13.376 66.2192 14.256C66.1712 14.496 66.1472 14.728 66.1472 14.952C66.1472 15.624 66.3312 16.144 66.6992 16.512C67.0832 16.88 67.5712 17.064 68.1632 17.064C68.8672 17.064 69.4992 16.816 70.0592 16.32C70.6192 15.824 70.9712 15.136 71.1152 14.256ZM85.1717 3.24L82.0277 21H77.2997L80.4437 3.24H85.1717ZM89.6745 6.288C88.9385 6.288 88.3545 6.104 87.9225 5.736C87.5065 5.368 87.2985 4.896 87.2985 4.32C87.2985 3.808 87.4345 3.336 87.7065 2.904C87.9945 2.456 88.3785 2.104 88.8585 1.848C89.3545 1.576 89.9065 1.44 90.5145 1.44C91.2505 1.44 91.8265 1.632 92.2425 2.016C92.6745 2.384 92.8905 2.864 92.8905 3.456C92.8905 3.968 92.7465 4.44 92.4585 4.872C92.1865 5.304 91.8025 5.648 91.3065 5.904C90.8105 6.16 90.2665 6.288 89.6745 6.288ZM91.7865 7.536L89.4105 21H84.6825L87.0825 7.536H91.7865Z" fill="url(#paint0_radial)"/>
<path d="M94.3213 21.192C93.5853 21.192 93.0013 21.008 92.5693 20.64C92.1533 20.272 91.9453 19.792 91.9453 19.2C91.9453 18.688 92.0813 18.216 92.3533 17.784C92.6413 17.336 93.0333 16.984 93.5293 16.728C94.0253 16.456 94.5773 16.32 95.1853 16.32C95.9053 16.32 96.4733 16.512 96.8893 16.896C97.3213 17.264 97.5373 17.744 97.5373 18.336C97.5373 19.136 97.2253 19.816 96.6013 20.376C95.9933 20.92 95.2333 21.192 94.3213 21.192Z" fill="#FF0000"/>
<path d="M15.6999 4.08L16.1921 4.16833L16.2977 3.58H15.6999V4.08ZM15.0279 7.824V8.324H15.4462L15.5201 7.91233L15.0279 7.824ZM10.5399 7.824V7.324H10.1205L10.0476 7.737L10.5399 7.824ZM8.21194 21V21.5H8.63134L8.70431 21.087L8.21194 21ZM3.48394 21L2.99156 20.913L2.88785 21.5H3.48394V21ZM5.81194 7.824L6.30431 7.91099L6.40802 7.324H5.81194V7.824ZM1.34794 7.824L0.855802 7.73567L0.750204 8.324H1.34794V7.824ZM2.01994 4.08V3.58H1.60169L1.5278 3.99167L2.01994 4.08ZM15.2078 3.99167L14.5358 7.73567L15.5201 7.91233L16.1921 4.16833L15.2078 3.99167ZM15.0279 7.324H10.5399V8.324H15.0279V7.324ZM10.0476 7.737L7.71956 20.913L8.70431 21.087L11.0323 7.91099L10.0476 7.737ZM8.21194 20.5H3.48394V21.5H8.21194V20.5ZM3.97631 21.087L6.30431 7.91099L5.31956 7.737L2.99156 20.913L3.97631 21.087ZM5.81194 7.324H1.34794V8.324H5.81194V7.324ZM1.84007 7.91233L2.51207 4.16833L1.5278 3.99167L0.855802 7.73567L1.84007 7.91233ZM2.01994 4.58H15.6999V3.58H2.01994V4.58ZM30.6163 7.536L31.1086 7.62374L31.2133 7.036H30.6163V7.536ZM28.2163 21V21.5H28.6351L28.7086 21.0877L28.2163 21ZM23.5123 21L23.0198 20.9138L22.9172 21.5H23.5123V21ZM23.8483 19.08L24.3408 19.1662L24.6511 17.393L23.4708 18.7522L23.8483 19.08ZM21.9043 20.568L22.1241 21.0171L22.1279 21.0152L21.9043 20.568ZM16.3123 19.992L16.6696 19.6423L16.6696 19.6423L16.3123 19.992ZM15.3523 15.36L15.8443 15.4494L15.8448 15.4461L15.3523 15.36ZM16.7203 7.536V7.036H16.3002L16.2278 7.44988L16.7203 7.536ZM21.4243 7.536L21.9167 7.6227L22.02 7.036H21.4243V7.536ZM20.1523 14.76L20.6395 14.8724L20.6425 14.8596L20.6447 14.8467L20.1523 14.76ZM20.5843 16.752L20.2307 17.1057L20.2395 17.1141L20.5843 16.752ZM23.6563 16.608L23.9901 16.9803L23.9901 16.9803L23.6563 16.608ZM24.5923 14.88L25.0809 14.9862L25.083 14.9766L25.0847 14.9669L24.5923 14.88ZM25.8883 7.536V7.036H25.4688L25.3959 7.44911L25.8883 7.536ZM30.1241 7.44826L27.7241 20.9123L28.7086 21.0877L31.1086 7.62374L30.1241 7.44826ZM28.2163 20.5H23.5123V21.5H28.2163V20.5ZM24.0048 21.0862L24.3408 19.1662L23.3558 18.9938L23.0198 20.9138L24.0048 21.0862ZM23.4708 18.7522C22.9886 19.3074 22.394 19.7641 21.6807 20.1208L22.1279 21.0152C22.9506 20.6039 23.6521 20.0686 24.2258 19.4078L23.4708 18.7522ZM21.6845 20.1189C21.0069 20.4505 20.2511 20.62 19.4083 20.62V21.62C20.3896 21.62 21.2977 21.4215 22.1241 21.0171L21.6845 20.1189ZM19.4083 20.62C18.1776 20.62 17.2884 20.2745 16.6696 19.6423L15.955 20.3417C16.8082 21.2135 17.9831 21.62 19.4083 21.62V20.62ZM16.6696 19.6423C16.0486 19.0077 15.7083 18.0991 15.7083 16.848H14.7083C14.7083 18.2849 15.1041 19.4723 15.955 20.3417L16.6696 19.6423ZM15.7083 16.848C15.7083 16.4182 15.7528 15.9524 15.8442 15.4494L14.8604 15.2706C14.7598 15.8236 14.7083 16.3498 14.7083 16.848H15.7083ZM15.8448 15.4461L17.2128 7.62212L16.2278 7.44988L14.8598 15.2739L15.8448 15.4461ZM16.7203 8.036H21.4243V7.036H16.7203V8.036ZM20.9319 7.44929L19.6599 14.6733L20.6447 14.8467L21.9167 7.6227L20.9319 7.44929ZM19.6651 14.6476C19.6088 14.8915 19.5803 15.1372 19.5803 15.384H20.5803C20.5803 15.2148 20.5998 15.0445 20.6395 14.8724L19.6651 14.6476ZM19.5803 15.384C19.5803 16.0626 19.7817 16.6565 20.2308 17.1056L20.9379 16.3984C20.7149 16.1755 20.5803 15.8574 20.5803 15.384H19.5803ZM20.2395 17.1141C20.6896 17.5428 21.2805 17.732 21.9523 17.732V16.732C21.4721 16.732 21.151 16.6012 20.9291 16.3899L20.2395 17.1141ZM21.9523 17.732C22.737 17.732 23.4268 17.4853 23.9901 16.9803L23.3225 16.2357C22.9578 16.5627 22.5116 16.732 21.9523 16.732V17.732ZM23.9901 16.9803C24.5476 16.4805 24.9033 15.8031 25.0809 14.9862L24.1037 14.7738C23.9613 15.4289 23.6931 15.9035 23.3225 16.2357L23.9901 16.9803ZM25.0847 14.9669L26.3807 7.62289L25.3959 7.44911L24.0999 14.7931L25.0847 14.9669ZM25.8883 8.036H30.6163V7.036H25.8883V8.036ZM33.7734 20.664L33.5951 21.1311L33.5951 21.1311L33.7734 20.664ZM31.7094 19.248L31.318 19.5591L31.322 19.5641L31.7094 19.248ZM31.0134 16.464V15.964H30.5659L30.5165 16.4088L31.0134 16.464ZM35.5494 16.464L36.0491 16.4818L36.0676 15.964H35.5494V16.464ZM35.9574 17.496L35.6373 17.8801L35.6373 17.8801L35.9574 17.496ZM38.1414 17.616L37.8878 17.1849L37.8764 17.192L38.1414 17.616ZM38.0454 16.296L37.8134 16.7389L37.8219 16.7433L37.8305 16.7474L38.0454 16.296ZM36.3654 15.648L36.5206 15.1727L36.516 15.1712L36.3654 15.648ZM34.1094 14.808L34.3182 14.3537L34.3182 14.3537L34.1094 14.808ZM32.5494 13.608L32.1624 13.9247L32.1682 13.9315L32.5494 13.608ZM32.5974 9.408L32.1974 9.10796L32.1926 9.11452L32.5974 9.408ZM34.6134 7.92L34.8021 8.3831L34.8094 8.38001L34.6134 7.92ZM40.7574 7.992L40.5437 8.44414L40.5536 8.44857L40.7574 7.992ZM42.7494 9.672L42.3206 9.92928L42.3249 9.93615L42.7494 9.672ZM43.3494 12.072V12.572H43.8229L43.8487 12.0992L43.3494 12.072ZM39.1254 12.072L38.6258 12.0535L38.6066 12.572H39.1254V12.072ZM38.7414 11.064L38.3988 11.4281L38.4046 11.4336L38.4106 11.4389L38.7414 11.064ZM36.6534 10.92L36.3761 10.504L36.3761 10.504L36.6534 10.92ZM36.7974 12.264L36.5654 12.707L36.5738 12.7112L36.7974 12.264ZM38.5494 12.936L38.3913 13.4104L38.3964 13.412L38.5494 12.936ZM40.7814 13.8L40.5627 14.2496L40.5699 14.2531L40.5773 14.2564L40.7814 13.8ZM42.3414 14.976L41.9592 15.2985L41.9644 15.3044L42.3414 14.976ZM41.2614 20.04L41.5348 20.4587L41.5388 20.456L41.2614 20.04ZM36.7734 20.668C35.7031 20.668 34.7652 20.5075 33.9518 20.1969L33.5951 21.1311C34.5417 21.4925 35.6037 21.668 36.7734 21.668V20.668ZM33.9518 20.1969C33.1371 19.8858 32.5275 19.4598 32.0969 18.9319L31.322 19.5641C31.8834 20.2522 32.6498 20.7702 33.5951 21.1311L33.9518 20.1969ZM32.1008 18.9369C31.6754 18.4017 31.4654 17.7994 31.4654 17.112H30.4654C30.4654 18.0246 30.7514 18.8463 31.318 19.5591L32.1008 18.9369ZM31.4654 17.112C31.4654 16.9968 31.4788 16.8033 31.5104 16.5192L30.5165 16.4088C30.4841 16.7007 30.4654 16.9392 30.4654 17.112H31.4654ZM31.0134 16.964H35.5494V15.964H31.0134V16.964ZM35.0498 16.4462C35.0294 17.0149 35.2067 17.5213 35.6373 17.8801L36.2775 17.1119C36.1321 16.9907 36.0374 16.8091 36.0491 16.4818L35.0498 16.4462ZM35.6373 17.8801C36.0433 18.2184 36.5712 18.356 37.1574 18.356V17.356C36.7197 17.356 36.4476 17.2536 36.2775 17.1119L35.6373 17.8801ZM37.1574 18.356C37.6214 18.356 38.0491 18.2634 38.4064 18.04L37.8764 17.192C37.7218 17.2886 37.4935 17.356 37.1574 17.356V18.356ZM38.3949 18.047C38.7782 17.8215 39.0494 17.4685 39.0494 16.992H38.0494C38.0494 17.0275 38.0486 17.0905 37.8879 17.185L38.3949 18.047ZM39.0494 16.992C39.0494 16.7415 38.9781 16.5034 38.8284 16.2967C38.6828 16.0957 38.482 15.9501 38.2604 15.8446L37.8305 16.7474C37.9449 16.8019 37.9961 16.8523 38.0185 16.8833C38.0368 16.9086 38.0494 16.9385 38.0494 16.992H39.0494ZM38.2774 15.8531C37.9018 15.6563 37.3078 15.4297 36.5206 15.1727L36.2102 16.1233C36.9911 16.3783 37.517 16.5837 37.8134 16.7389L38.2774 15.8531ZM36.516 15.1712C35.6156 14.8869 34.8848 14.614 34.3182 14.3537L33.9007 15.2623C34.5181 15.546 35.2913 15.8331 36.2149 16.1248L36.516 15.1712ZM34.3182 14.3537C33.7967 14.1141 33.3345 13.7604 32.9307 13.2845L32.1682 13.9315C32.6604 14.5116 33.2382 14.9579 33.9007 15.2623L34.3182 14.3537ZM32.9364 13.2914C32.5925 12.8711 32.4014 12.3108 32.4014 11.568H31.4014C31.4014 12.4892 31.6423 13.2889 32.1625 13.9246L32.9364 13.2914ZM32.4014 11.568C32.4014 10.8721 32.6009 10.255 33.0022 9.70148L32.1926 9.11452C31.666 9.84096 31.4014 10.6639 31.4014 11.568H32.4014ZM32.9974 9.708C33.4146 9.1518 34.0079 8.70661 34.8021 8.38305L34.4248 7.45695C33.491 7.83739 32.7403 8.3842 32.1974 9.108L32.9974 9.708ZM34.8094 8.38001C35.5999 8.04332 36.531 7.868 37.6134 7.868V6.868C36.4239 6.868 35.355 7.06068 34.4175 7.45999L34.8094 8.38001ZM37.6134 7.868C38.7735 7.868 39.7451 8.06648 40.5437 8.44403L40.9711 7.53996C40.0098 7.08552 38.8854 6.868 37.6134 6.868V7.868ZM40.5536 8.44857C41.3722 8.81401 41.9499 9.31129 42.3207 9.92925L43.1782 9.41475C42.685 8.59271 41.9347 7.96998 40.9613 7.53543L40.5536 8.44857ZM42.3249 9.93615C42.7165 10.5654 42.8928 11.263 42.8502 12.0448L43.8487 12.0992C43.9021 11.121 43.6784 10.2186 43.174 9.40785L42.3249 9.93615ZM43.3494 11.572H39.1254V12.572H43.3494V11.572ZM39.6251 12.0905C39.6455 11.5405 39.4786 11.0476 39.0722 10.6891L38.4106 11.4389C38.5483 11.5604 38.6374 11.7395 38.6258 12.0535L39.6251 12.0905ZM39.0841 10.6999C38.6896 10.3286 38.1569 10.18 37.5654 10.18V11.18C37.9979 11.18 38.2493 11.2874 38.3988 11.4281L39.0841 10.6999ZM37.5654 10.18C37.1258 10.18 36.7182 10.2759 36.3761 10.504L36.9308 11.336C37.0687 11.2441 37.2691 11.18 37.5654 11.18V10.18ZM36.3761 10.504C36.0176 10.7429 35.7934 11.0974 35.7934 11.544H36.7934C36.7934 11.4786 36.8092 11.4171 36.9308 11.336L36.3761 10.504ZM35.7934 11.544C35.7934 12.083 36.1131 12.47 36.5654 12.7069L37.0294 11.8211C36.8097 11.706 36.7934 11.613 36.7934 11.544H35.7934ZM36.5738 12.7112C36.9599 12.9042 37.5728 13.1375 38.3913 13.4103L38.7076 12.4617C37.8941 12.1905 37.339 11.9758 37.021 11.8168L36.5738 12.7112ZM38.3964 13.412C39.2786 13.6956 39.9988 13.9753 40.5627 14.2496L41.0002 13.3504C40.38 13.0487 39.6123 12.7524 38.7024 12.46L38.3964 13.412ZM40.5773 14.2564C41.1162 14.4975 41.5755 14.8436 41.9593 15.2984L42.7236 14.6536C42.2434 14.0844 41.6627 13.6465 40.9856 13.3436L40.5773 14.2564ZM41.9644 15.3044C42.3025 15.6925 42.4894 16.2084 42.4894 16.896H43.4894C43.4894 16.0156 43.2444 15.2515 42.7185 14.6476L41.9644 15.3044ZM42.4894 16.896C42.4894 18.0485 42.0041 18.944 40.9841 19.624L41.5388 20.456C42.8228 19.6 43.4894 18.3995 43.4894 16.896H42.4894ZM40.9881 19.6213C39.9406 20.3051 38.5484 20.668 36.7734 20.668V21.668C38.6785 21.668 40.2783 21.2789 41.5347 20.4587L40.9881 19.6213ZM58.8621 8.544L59.2194 8.19427L59.2194 8.19427L58.8621 8.544ZM59.8221 13.152L59.3306 13.0599L59.3297 13.0647L59.8221 13.152ZM58.4301 21V21.5H58.8492L58.9224 21.0873L58.4301 21ZM53.7261 21L53.2336 20.9133L53.1303 21.5H53.7261V21ZM54.9981 13.776L54.5076 13.6779L54.5056 13.6893L54.9981 13.776ZM54.5661 11.784L54.2124 12.1377L54.2212 12.1461L54.5661 11.784ZM51.5181 11.904L51.1916 11.5253L51.1916 11.5253L51.5181 11.904ZM50.5821 13.56L50.0945 13.4492L50.0918 13.4609L50.0898 13.4727L50.5821 13.56ZM49.2621 21V21.5H49.6812L49.7544 21.0873L49.2621 21ZM44.5341 21L44.0417 20.9128L43.9378 21.5H44.5341V21ZM47.6781 3.24V2.74H47.2588L47.1857 3.15284L47.6781 3.24ZM52.4061 3.24L52.8984 3.32743L53.0027 2.74H52.4061V3.24ZM51.3021 9.456L50.8098 9.36856L50.4934 11.1497L51.6796 9.78384L51.3021 9.456ZM53.2461 7.992L53.4622 8.44297L53.4697 8.43921L53.2461 7.992ZM55.7901 7.916C57.0028 7.916 57.8849 8.26038 58.5047 8.89373L59.2194 8.19427C58.3673 7.32362 57.2013 6.916 55.7901 6.916V7.916ZM58.5047 8.89373C59.1258 9.52832 59.4661 10.4369 59.4661 11.688H60.4661C60.4661 10.2511 60.0703 9.06368 59.2194 8.19427L58.5047 8.89373ZM59.4661 11.688C59.4661 12.1176 59.4216 12.5746 59.3306 13.0599L60.3135 13.2441C60.4145 12.7054 60.4661 12.1864 60.4661 11.688H59.4661ZM59.3297 13.0647L57.9377 20.9127L58.9224 21.0873L60.3144 13.2393L59.3297 13.0647ZM58.4301 20.5H53.7261V21.5H58.4301V20.5ZM54.2185 21.0867L55.4905 13.8627L54.5056 13.6893L53.2336 20.9133L54.2185 21.0867ZM55.4884 13.8741C55.5411 13.6101 55.5701 13.3605 55.5701 13.128H54.5701C54.5701 13.2795 54.551 13.4619 54.5078 13.6779L55.4884 13.8741ZM55.5701 13.128C55.5701 12.4504 55.3689 11.8581 54.9109 11.4219L54.2212 12.1461C54.4352 12.3499 54.5701 12.6536 54.5701 13.128H55.5701ZM54.9196 11.4304C54.4796 10.9904 53.8802 10.804 53.1981 10.804V11.804C53.7 11.804 54.0126 11.9376 54.2125 12.1376L54.9196 11.4304ZM53.1981 10.804C52.4314 10.804 51.7531 11.0412 51.1916 11.5253L51.8445 12.2827C52.211 11.9668 52.6527 11.804 53.1981 11.804V10.804ZM51.1916 11.5253C50.6329 12.0069 50.2738 12.6602 50.0945 13.4492L51.0696 13.6708C51.2103 13.0518 51.4752 12.6011 51.8445 12.2827L51.1916 11.5253ZM50.0898 13.4727L48.7698 20.9127L49.7544 21.0873L51.0744 13.6473L50.0898 13.4727ZM49.2621 20.5H44.5341V21.5H49.2621V20.5ZM45.0264 21.0872L48.1704 3.32716L47.1857 3.15284L44.0417 20.9128L45.0264 21.0872ZM47.6781 3.74H52.4061V2.74H47.6781V3.74ZM51.9138 3.15256L50.8098 9.36856L51.7944 9.54343L52.8984 3.32743L51.9138 3.15256ZM51.6796 9.78384C52.1602 9.23041 52.7522 8.78309 53.4621 8.44291L53.03 7.54109C52.2039 7.93691 51.4999 8.46558 50.9245 9.12816L51.6796 9.78384ZM53.4697 8.43921C54.1627 8.09268 54.9333 7.916 55.7901 7.916V6.916C54.7908 6.916 53.8654 7.12332 53.0225 7.54479L53.4697 8.43921ZM61.4192 14.256L60.9273 14.1655L60.9256 14.176L61.4192 14.256ZM62.8352 10.608L63.2522 10.8839L63.2522 10.8839L62.8352 10.608ZM65.3072 8.208L65.0583 7.7743L65.0553 7.77611L65.3072 8.208ZM70.6832 7.92L70.4243 8.34775L70.4243 8.34775L70.6832 7.92ZM71.9552 9.408L71.4885 9.58749L72.1311 11.2582L72.4473 9.49633L71.9552 9.408ZM72.2912 7.536V7.036H71.8729L71.7991 7.44767L72.2912 7.536ZM76.9952 7.536L77.4876 7.62289L77.5911 7.036H76.9952V7.536ZM74.6192 21V21.5H75.0387L75.1116 21.0869L74.6192 21ZM69.9152 21L69.4231 20.9117L69.3175 21.5H69.9152V21ZM70.2512 19.128L70.7433 19.2163L69.85 18.8296L70.2512 19.128ZM68.4272 20.616L68.647 21.0651L68.647 21.0651L68.4272 20.616ZM62.5472 19.776L62.1752 20.1101L62.1781 20.1133L62.5472 19.776ZM71.1152 14.256L70.6249 14.1579L70.6232 14.1666L70.6218 14.1753L71.1152 14.256ZM70.6112 12.024L70.2576 12.3776L70.2652 12.385L70.6112 12.024ZM67.2752 12.216L67.6006 12.5957L67.6067 12.5903L67.2752 12.216ZM66.2192 14.256L66.7095 14.3541L66.7112 14.3454L66.7126 14.3367L66.2192 14.256ZM66.6992 16.512L66.3456 16.8656L66.3532 16.873L66.6992 16.512ZM61.9109 14.3464C62.1564 13.0117 62.606 11.8606 63.2522 10.8839L62.4182 10.3321C61.6883 11.4354 61.194 12.7163 60.9274 14.1656L61.9109 14.3464ZM63.2522 10.8839C63.9031 9.89997 64.6731 9.15674 65.5591 8.63989L65.0553 7.77611C64.0213 8.37926 63.1433 9.23602 62.4182 10.3321L63.2522 10.8839ZM65.556 8.64168C66.4602 8.12289 67.3989 7.868 68.3792 7.868V6.868C67.2155 6.868 66.1062 7.17311 65.0584 7.77432L65.556 8.64168ZM68.3792 7.868C69.2432 7.868 69.9148 8.03939 70.4243 8.34775L70.9421 7.49225C70.2356 7.06461 69.3712 6.868 68.3792 6.868V7.868ZM70.4243 8.34775C70.9438 8.6622 71.2909 9.07376 71.4885 9.58749L72.4219 9.22851C72.1394 8.49424 71.6386 7.9138 70.9421 7.49225L70.4243 8.34775ZM72.4473 9.49633L72.7833 7.62433L71.7991 7.44767L71.4631 9.31967L72.4473 9.49633ZM72.2912 8.036H76.9952V7.036H72.2912V8.036ZM76.5028 7.44911L74.1268 20.9131L75.1116 21.0869L77.4876 7.62289L76.5028 7.44911ZM74.6192 20.5H69.9152V21.5H74.6192V20.5ZM70.4073 21.0883L70.7433 19.2163L69.7591 19.0397L69.4231 20.9117L70.4073 21.0883ZM69.85 18.8296C69.4372 19.3848 68.8934 19.8312 68.2074 20.1669L68.647 21.0651C69.465 20.6648 70.1372 20.1192 70.6524 19.4264L69.85 18.8296ZM68.2074 20.1669C67.5298 20.4985 66.7739 20.668 65.9312 20.668V21.668C66.9124 21.668 67.8206 21.4695 68.647 21.0651L68.2074 20.1669ZM65.9312 20.668C64.6449 20.668 63.6576 20.25 62.9163 19.4387L62.1781 20.1133C63.1327 21.158 64.4015 21.668 65.9312 21.668V20.668ZM62.9191 19.4419C62.1742 18.6126 61.7752 17.4635 61.7752 15.936H60.7752C60.7752 17.6405 61.2241 19.0514 62.1752 20.1101L62.9191 19.4419ZM61.7752 15.936C61.7752 15.4381 61.8205 14.9051 61.9127 14.336L60.9256 14.176C60.8259 14.7909 60.7752 15.3779 60.7752 15.936H61.7752ZM71.6055 14.3541C71.6588 14.0873 71.6872 13.8301 71.6872 13.584H70.6872C70.6872 13.7539 70.6675 13.9447 70.6249 14.1579L71.6055 14.3541ZM71.6872 13.584C71.6872 12.8138 71.464 12.1487 70.9571 11.663L70.2652 12.385C70.5264 12.6353 70.6872 13.0102 70.6872 13.584H71.6872ZM70.9647 11.6704C70.4898 11.1955 69.876 10.972 69.1712 10.972V11.972C69.6504 11.972 69.9966 12.1165 70.2576 12.3776L70.9647 11.6704ZM69.1712 10.972C68.337 10.972 67.5889 11.2702 66.9437 11.8417L67.6067 12.5903C68.0815 12.1698 68.5974 11.972 69.1712 11.972V10.972ZM66.9498 11.8364C66.2826 12.4083 65.8846 13.2042 65.7258 14.1753L66.7126 14.3367C66.8417 13.5477 67.1478 12.9837 67.6006 12.5956L66.9498 11.8364ZM65.7289 14.1579C65.675 14.4273 65.6472 14.6922 65.6472 14.952H66.6472C66.6472 14.7638 66.6673 14.5647 66.7095 14.3541L65.7289 14.1579ZM65.6472 14.952C65.6472 15.7163 65.8587 16.3787 66.3456 16.8656L67.0527 16.1584C66.8036 15.9093 66.6472 15.5317 66.6472 14.952H65.6472ZM66.3532 16.873C66.8412 17.3406 67.4581 17.564 68.1632 17.564V16.564C67.6843 16.564 67.3252 16.4194 67.0451 16.151L66.3532 16.873ZM68.1632 17.564C68.9974 17.564 69.7455 17.2658 70.3907 16.6943L69.7277 15.9457C69.2529 16.3662 68.737 16.564 68.1632 16.564V17.564ZM70.3907 16.6943C71.0526 16.108 71.4498 15.3076 71.6086 14.3367L70.6218 14.1753C70.4926 14.9644 70.1857 15.54 69.7277 15.9457L70.3907 16.6943ZM85.1717 3.24L85.664 3.32716L85.768 2.74H85.1717V3.24ZM82.0277 21V21.5H82.4469L82.52 21.0872L82.0277 21ZM77.2997 21L76.8073 20.9128L76.7034 21.5H77.2997V21ZM80.4437 3.24V2.74H80.0244L79.9513 3.15284L80.4437 3.24ZM84.6793 3.15284L81.5353 20.9128L82.52 21.0872L85.664 3.32716L84.6793 3.15284ZM82.0277 20.5H77.2997V21.5H82.0277V20.5ZM77.792 21.0872L80.936 3.32716L79.9513 3.15284L76.8073 20.9128L77.792 21.0872ZM80.4437 3.74H85.1717V2.74H80.4437V3.74ZM87.9225 5.736L87.5912 6.11056L87.5983 6.11662L87.9225 5.736ZM87.7065 2.904L87.2859 2.63361L87.2834 2.63759L87.7065 2.904ZM88.8585 1.848L89.0938 2.28921L89.0989 2.28641L88.8585 1.848ZM92.2425 2.016L91.9034 2.3834L91.9107 2.39016L91.9183 2.39662L92.2425 2.016ZM92.4585 4.872L92.0423 4.59455L92.0354 4.60559L92.4585 4.872ZM91.3065 5.904L91.5358 6.34831L91.5358 6.34831L91.3065 5.904ZM91.7865 7.536L92.2789 7.62289L92.3825 7.036H91.7865V7.536ZM89.4105 21V21.5H89.83L89.9029 21.0869L89.4105 21ZM84.6825 21L84.1903 20.9123L84.0855 21.5H84.6825V21ZM87.0825 7.536V7.036H86.6637L86.5903 7.44826L87.0825 7.536ZM89.6745 5.788C89.0214 5.788 88.5642 5.62583 88.2467 5.35538L87.5983 6.11662C88.1448 6.58217 88.8556 6.788 89.6745 6.788V5.788ZM88.2538 5.3615C87.9495 5.09234 87.7985 4.75881 87.7985 4.32H86.7985C86.7985 5.03319 87.0635 5.64366 87.5912 6.1105L88.2538 5.3615ZM87.7985 4.32C87.7985 3.90198 87.908 3.52238 88.1296 3.17041L87.2834 2.63759C86.961 3.14962 86.7985 3.71402 86.7985 4.32H87.7985ZM88.1271 3.17438C88.3679 2.79979 88.6874 2.5059 89.0938 2.28918L88.6232 1.40682C88.0696 1.7021 87.6211 2.11221 87.2859 2.63362L88.1271 3.17438ZM89.0989 2.28641C89.5158 2.05782 89.9841 1.94 90.5145 1.94V0.939999C89.8289 0.939999 89.1932 1.09418 88.6181 1.40959L89.0989 2.28641ZM90.5145 1.94C91.1636 1.94 91.6048 2.10778 91.9034 2.3834L92.5816 1.6486C92.0482 1.15622 91.3374 0.939999 90.5145 0.939999V1.94ZM91.9183 2.39662C92.2333 2.66502 92.3905 3.00325 92.3905 3.456H93.3905C93.3905 2.72475 93.1157 2.10297 92.5667 1.63538L91.9183 2.39662ZM92.3905 3.456C92.3905 3.86782 92.2765 4.24355 92.0425 4.59465L92.8745 5.14935C93.2165 4.63644 93.3905 4.06818 93.3905 3.456H92.3905ZM92.0354 4.60559C91.8153 4.9551 91.5015 5.24069 91.0772 5.45969L91.5358 6.34831C92.1035 6.05531 92.5577 5.6529 92.8816 5.13841L92.0354 4.60559ZM91.0772 5.45969C90.6564 5.67688 90.1917 5.788 89.6745 5.788V6.788C90.3413 6.788 90.9646 6.64312 91.5358 6.34831L91.0772 5.45969ZM91.2941 7.44911L88.9181 20.9131L89.9029 21.0869L92.2789 7.62289L91.2941 7.44911ZM89.4105 20.5H84.6825V21.5H89.4105V20.5ZM85.1747 21.0877L87.5747 7.62374L86.5903 7.44826L84.1903 20.9123L85.1747 21.0877ZM87.0825 8.036H91.7865V7.036H87.0825V8.036ZM92.5693 20.64L92.238 21.0146L92.2451 21.0206L92.5693 20.64ZM92.3533 17.784L91.9327 17.5136L91.9302 17.5176L92.3533 17.784ZM93.5293 16.728L93.7587 17.1725L93.7697 17.1664L93.5293 16.728ZM96.8893 16.896L96.5502 17.2634L96.5575 17.2702L96.5651 17.2766L96.8893 16.896ZM96.6013 20.376L96.9347 20.7486L96.9353 20.7481L96.6013 20.376ZM94.3213 20.692C93.6682 20.692 93.211 20.5298 92.8935 20.2594L92.2451 21.0206C92.7916 21.4862 93.5024 21.692 94.3213 21.692V20.692ZM92.9006 20.2655C92.5996 19.9993 92.4453 19.6594 92.4453 19.2H91.4453C91.4453 19.9246 91.707 20.5447 92.238 21.0145L92.9006 20.2655ZM92.4453 19.2C92.4453 18.782 92.5548 18.4024 92.7764 18.0504L91.9302 17.5176C91.6078 18.0296 91.4453 18.594 91.4453 19.2H92.4453ZM92.7739 18.0544C93.0122 17.6837 93.3366 17.3901 93.7586 17.1723L93.3 16.2837C92.73 16.5779 92.2704 16.9883 91.9327 17.5136L92.7739 18.0544ZM93.7697 17.1664C94.1866 16.9378 94.6549 16.82 95.1853 16.82V15.82C94.4997 15.82 93.8641 15.9742 93.2889 16.2896L93.7697 17.1664ZM95.1853 16.82C95.8151 16.82 96.2496 16.986 96.5502 17.2634L97.2285 16.5286C96.697 16.038 95.9956 15.82 95.1853 15.82V16.82ZM96.5651 17.2766C96.8802 17.545 97.0373 17.8833 97.0373 18.336H98.0373C98.0373 17.6047 97.7625 16.983 97.2135 16.5154L96.5651 17.2766ZM97.0373 18.336C97.0373 18.9865 96.7914 19.5336 96.2674 20.0039L96.9353 20.7481C97.6592 20.0984 98.0373 19.2855 98.0373 18.336H97.0373ZM96.2679 20.0034C95.7626 20.4555 95.1259 20.692 94.3213 20.692V21.692C95.3407 21.692 96.224 21.3845 96.9347 20.7486L96.2679 20.0034Z" fill="url(#paint1_radial)"/>
<defs>
<radialGradient id="paint0_radial" cx="0" cy="0" r="1" gradientUnits="userSpaceOnUse" gradientTransform="translate(49.5 11.5) rotate(90) scale(16.5 53.5)">
<stop stop-color="#0F0F0F"/>
<stop offset="1" stop-color="#929C8C" stop-opacity="0.06"/>
</radialGradient>
<radialGradient id="paint1_radial" cx="0" cy="0" r="1" gradientUnits="userSpaceOnUse" gradientTransform="translate(49.5 11.5) rotate(90) scale(16.5 53.5)">
<stop stop-color="white"/>
<stop offset="1" stop-color="#FF0E0E"/>
</radialGradient>
</defs>
</svg>
