<svg xmlns="http://www.w3.org/2000/svg" width="138" height="30" fill="none" viewBox="0 0 138 30"><path fill="url(#paint0_radial)" d="M21.1166 5.03L20.1646 10.334H13.8066L10.5086 29H3.81058L7.10858 10.334H0.784578L1.73658 5.03H21.1166ZM42.2481 9.926L38.8481 29H32.1841L32.6601 26.28C31.9121 27.1413 30.9941 27.844 29.9061 28.388C28.8408 28.9093 27.6621 29.17 26.3701 29.17C24.4888 29.17 23.0268 28.6373 21.9841 27.572C20.9414 26.5067 20.4201 25.022 20.4201 23.118C20.4201 22.4607 20.4881 21.758 20.6241 21.01L22.5621 9.926H29.2261L27.4241 20.16C27.3561 20.4547 27.3221 20.7493 27.3221 21.044C27.3221 21.86 27.5601 22.506 28.0361 22.982C28.5121 23.4353 29.1581 23.662 29.9741 23.662C30.9261 23.662 31.7308 23.3673 32.3881 22.778C33.0454 22.1887 33.4874 21.3727 33.7141 20.33L35.5501 9.926H42.2481ZM50.9707 29.238C49.384 29.238 47.9674 29 46.7207 28.524C45.474 28.048 44.4994 27.3793 43.7967 26.518C43.094 25.634 42.7427 24.6253 42.7427 23.492C42.7427 23.288 42.7654 22.982 42.8107 22.574H49.2367C49.214 23.2087 49.4067 23.696 49.8147 24.036C50.2227 24.376 50.7894 24.546 51.5147 24.546C52.0814 24.546 52.546 24.4327 52.9087 24.206C53.294 23.9793 53.4867 23.6847 53.4867 23.322C53.4867 22.8913 53.2487 22.5627 52.7727 22.336C52.2967 22.0867 51.5034 21.7807 50.3927 21.418C49.1007 21.01 48.0354 20.6133 47.1967 20.228C46.358 19.8427 45.6214 19.276 44.9867 18.528C44.3747 17.78 44.0687 16.8167 44.0687 15.638C44.0687 14.5047 44.3974 13.4847 45.0547 12.578C45.7347 11.6713 46.6867 10.9687 47.9107 10.47C49.1347 9.94867 50.5514 9.688 52.1607 9.688C53.8834 9.688 55.368 9.98267 56.6147 10.572C57.884 11.1387 58.8247 11.932 59.4367 12.952C60.0714 13.972 60.3547 15.1053 60.2867 16.352H54.3027C54.3254 15.74 54.144 15.264 53.7587 14.924C53.3734 14.5613 52.818 14.38 52.0927 14.38C51.5714 14.38 51.1407 14.4933 50.8007 14.72C50.4607 14.9467 50.2907 15.2413 50.2907 15.604C50.2907 16.0347 50.5287 16.3747 51.0047 16.624C51.5034 16.8733 52.3307 17.1907 53.4867 17.576C54.756 17.984 55.81 18.392 56.6487 18.8C57.51 19.1853 58.2467 19.7407 58.8587 20.466C59.4707 21.1687 59.7767 22.0753 59.7767 23.186C59.7767 25.0673 58.9607 26.552 57.3287 27.64C55.6967 28.7053 53.5774 29.238 50.9707 29.238ZM77.9109 9.756C79.7696 9.756 81.2203 10.2887 82.2629 11.354C83.3056 12.4193 83.8269 13.904 83.8269 15.808C83.8269 16.4653 83.7589 17.1567 83.6229 17.882L81.6509 29H74.9869L76.7889 18.766C76.8569 18.426 76.8909 18.12 76.8909 17.848C76.8909 17.032 76.6529 16.3973 76.1769 15.944C75.7236 15.4907 75.0776 15.264 74.2389 15.264C73.3096 15.264 72.5163 15.5473 71.8589 16.114C71.2016 16.6807 70.7596 17.4627 70.5329 18.46L68.6629 29H61.9649L66.4189 3.84H73.1169L71.5529 12.646C72.3009 11.7847 73.2189 11.0933 74.3069 10.572C75.3949 10.028 76.5963 9.756 77.9109 9.756ZM85.8855 19.446C86.2482 17.474 86.9168 15.7513 87.8915 14.278C88.8662 12.8047 90.0335 11.6713 91.3935 10.878C92.7762 10.0847 94.2268 9.688 95.7455 9.688C97.0602 9.688 98.1482 9.94867 99.0095 10.47C99.8708 10.9913 100.472 11.694 100.812 12.578L101.288 9.926H107.952L104.586 29H97.9215L98.3975 26.348C97.7402 27.232 96.8788 27.9347 95.8135 28.456C94.7482 28.9773 93.5695 29.238 92.2775 29.238C90.2828 29.238 88.6848 28.5807 87.4835 27.266C86.2822 25.9287 85.6815 24.1153 85.6815 21.826C85.6815 21.078 85.7495 20.2847 85.8855 19.446ZM99.6215 19.446C99.6895 19.106 99.7235 18.7887 99.7235 18.494C99.7235 17.542 99.4515 16.8053 98.9075 16.284C98.3862 15.7627 97.7062 15.502 96.8675 15.502C95.8702 15.502 94.9748 15.8533 94.1815 16.556C93.3882 17.236 92.8895 18.1993 92.6855 19.446C92.6175 19.786 92.5835 20.1147 92.5835 20.432C92.5835 21.384 92.8442 22.1207 93.3655 22.642C93.9095 23.1633 94.6008 23.424 95.4395 23.424C96.4368 23.424 97.3322 23.0727 98.1255 22.37C98.9188 21.6673 99.4175 20.6927 99.6215 19.446ZM119.535 3.84L115.081 29H108.383L112.837 3.84H119.535ZM125.914 8.158C124.871 8.158 124.044 7.89733 123.432 7.376C122.843 6.85467 122.548 6.186 122.548 5.37C122.548 4.64466 122.741 3.976 123.126 3.364C123.534 2.72933 124.078 2.23066 124.758 1.868C125.461 1.48266 126.243 1.29 127.104 1.29C128.147 1.29 128.963 1.562 129.552 2.106C130.164 2.62733 130.47 3.30733 130.47 4.146C130.47 4.87133 130.266 5.54 129.858 6.152C129.473 6.764 128.929 7.25133 128.226 7.614C127.523 7.97667 126.753 8.158 125.914 8.158ZM128.906 9.926L125.54 29H118.842L122.242 9.926H128.906Z"/><path fill="red" d="M132.497 29.272C131.454 29.272 130.627 29.0113 130.015 28.49C129.426 27.9687 129.131 27.2887 129.131 26.45C129.131 25.7247 129.324 25.056 129.709 24.444C130.117 23.8093 130.672 23.3107 131.375 22.948C132.078 22.5627 132.86 22.37 133.721 22.37C134.741 22.37 135.546 22.642 136.135 23.186C136.747 23.7073 137.053 24.3873 137.053 25.226C137.053 26.3593 136.611 27.3227 135.727 28.116C134.866 28.8867 133.789 29.272 132.497 29.272Z"/><path fill="url(#paint1_radial)" d="M21.1166 5.03L21.6087 5.11833L21.7143 4.53H21.1166V5.03ZM20.1646 10.334V10.834H20.5828L20.6567 10.4223L20.1646 10.334ZM13.8066 10.334V9.834H13.3872L13.3142 10.247L13.8066 10.334ZM10.5086 29V29.5H10.928L11.001 29.087L10.5086 29ZM3.81058 29L3.3182 28.913L3.21449 29.5H3.81058V29ZM7.10858 10.334L7.60095 10.421L7.70467 9.834H7.10858V10.334ZM0.784578 10.334L0.292443 10.2457L0.186844 10.834H0.784578V10.334ZM1.73658 5.03V4.53H1.31833L1.24444 4.94167L1.73658 5.03ZM20.6244 4.94167L19.6724 10.2457L20.6567 10.4223L21.6087 5.11833L20.6244 4.94167ZM20.1646 9.834H13.8066V10.834H20.1646V9.834ZM13.3142 10.247L10.0162 28.913L11.001 29.087L14.299 10.421L13.3142 10.247ZM10.5086 28.5H3.81058V29.5H10.5086V28.5ZM4.30295 29.087L7.60095 10.421L6.6162 10.247L3.3182 28.913L4.30295 29.087ZM7.10858 9.834H0.784578V10.834H7.10858V9.834ZM1.27671 10.4223L2.22871 5.11833L1.24444 4.94167L0.292443 10.2457L1.27671 10.4223ZM1.73658 5.53H21.1166V4.53H1.73658V5.53ZM42.2481 9.926L42.7404 10.0137L42.8451 9.426H42.2481V9.926ZM38.8481 29V29.5H39.2669L39.3404 29.0877L38.8481 29ZM32.1841 29L31.6916 28.9138L31.589 29.5H32.1841V29ZM32.6601 26.28L33.1526 26.3662L33.4629 24.593L32.2826 25.9522L32.6601 26.28ZM29.9061 28.388L30.1259 28.8371L30.1297 28.8352L29.9061 28.388ZM21.9841 27.572L22.3414 27.2223L22.3414 27.2223L21.9841 27.572ZM20.6241 21.01L21.1161 21.0994L21.1166 21.0961L20.6241 21.01ZM22.5621 9.926V9.426H22.1419L22.0696 9.83988L22.5621 9.926ZM29.2261 9.926L29.7185 10.0127L29.8218 9.426H29.2261V9.926ZM27.4241 20.16L27.9113 20.2724L27.9143 20.2596L27.9165 20.2467L27.4241 20.16ZM28.0361 22.982L27.6825 23.3357L27.6913 23.3441L28.0361 22.982ZM32.3881 22.778L32.7219 23.1503L32.7219 23.1503L32.3881 22.778ZM33.7141 20.33L34.2027 20.4362L34.2048 20.4266L34.2065 20.4169L33.7141 20.33ZM35.5501 9.926V9.426H35.1306L35.0577 9.83911L35.5501 9.926ZM41.7559 9.83825L38.3559 28.9123L39.3404 29.0877L42.7404 10.0137L41.7559 9.83825ZM38.8481 28.5H32.1841V29.5H38.8481V28.5ZM32.6766 29.0862L33.1526 26.3662L32.1676 26.1938L31.6916 28.9138L32.6766 29.0862ZM32.2826 25.9522C31.5804 26.7608 30.7158 27.4241 29.6825 27.9408L30.1297 28.8352C31.2724 28.2639 32.2439 27.5219 33.0376 26.6078L32.2826 25.9522ZM29.6863 27.9389C28.6954 28.4238 27.5929 28.67 26.3701 28.67V29.67C27.7314 29.67 28.9862 29.3948 30.1259 28.8371L29.6863 27.9389ZM26.3701 28.67C24.586 28.67 23.2669 28.1678 22.3414 27.2223L21.6268 27.9217C22.7867 29.1069 24.3915 29.67 26.3701 29.67V28.67ZM22.3414 27.2223C21.4137 26.2743 20.9201 24.9291 20.9201 23.118H19.9201C19.9201 25.1149 20.4692 26.739 21.6268 27.9217L22.3414 27.2223ZM20.9201 23.118C20.9201 22.4949 20.9846 21.8224 21.116 21.0994L20.1322 20.9206C19.9916 21.6936 19.9201 22.4264 19.9201 23.118H20.9201ZM21.1166 21.0961L23.0546 10.0121L22.0696 9.83988L20.1316 20.9239L21.1166 21.0961ZM22.5621 10.426H29.2261V9.426H22.5621V10.426ZM28.7337 9.83929L26.9317 20.0733L27.9165 20.2467L29.7185 10.0127L28.7337 9.83929ZM26.9369 20.0476C26.8606 20.3781 26.8221 20.7105 26.8221 21.044H27.8221C27.8221 20.7882 27.8516 20.5312 27.9113 20.2724L26.9369 20.0476ZM26.8221 21.044C26.8221 21.9626 27.0935 22.7465 27.6826 23.3356L28.3897 22.6284C28.0267 22.2655 27.8221 21.7574 27.8221 21.044H26.8221ZM27.6913 23.3441C28.2814 23.9061 29.0623 24.162 29.9741 24.162V23.162C29.2539 23.162 28.7428 22.9646 28.3809 22.6199L27.6913 23.3441ZM29.9741 24.162C31.0388 24.162 31.9653 23.8286 32.7219 23.1503L32.0543 22.4057C31.4962 22.9061 30.8134 23.162 29.9741 23.162V24.162ZM32.7219 23.1503C33.4727 22.4771 33.9585 21.5597 34.2027 20.4362L33.2255 20.2238C33.0164 21.1856 32.6182 21.9002 32.0543 22.4057L32.7219 23.1503ZM34.2065 20.4169L36.0425 10.0129L35.0577 9.83911L33.2217 20.2431L34.2065 20.4169ZM35.5501 10.426H42.2481V9.426H35.5501V10.426ZM46.7207 28.524L46.5424 28.9911L46.5424 28.9911L46.7207 28.524ZM43.7967 26.518L43.4053 26.8291L43.4093 26.8341L43.7967 26.518ZM42.8107 22.574V22.074H42.3632L42.3138 22.5188L42.8107 22.574ZM49.2367 22.574L49.7364 22.5918L49.7549 22.074H49.2367V22.574ZM49.8147 24.036L49.4946 24.4201L49.4946 24.4201L49.8147 24.036ZM52.9087 24.206L52.6551 23.7749L52.6437 23.782L52.9087 24.206ZM52.7727 22.336L52.5407 22.7789L52.5491 22.7833L52.5577 22.7874L52.7727 22.336ZM50.3927 21.418L50.5479 20.9427L50.5433 20.9412L50.3927 21.418ZM47.1967 20.228L47.4055 19.7737L47.4055 19.7737L47.1967 20.228ZM44.9867 18.528L44.5997 18.8447L44.6054 18.8515L44.9867 18.528ZM45.0547 12.578L44.6547 12.278L44.6499 12.2845L45.0547 12.578ZM47.9107 10.47L48.0994 10.9331L48.1066 10.93L47.9107 10.47ZM56.6147 10.572L56.401 11.0241L56.4109 11.0286L56.6147 10.572ZM59.4367 12.952L59.0079 13.2093L59.0122 13.2161L59.4367 12.952ZM60.2867 16.352V16.852H60.7602L60.786 16.3792L60.2867 16.352ZM54.3027 16.352L53.803 16.3335L53.7838 16.852H54.3027V16.352ZM53.7587 14.924L53.416 15.2881L53.4219 15.2936L53.4279 15.2989L53.7587 14.924ZM50.8007 14.72L50.5234 14.304L50.5234 14.304L50.8007 14.72ZM51.0047 16.624L50.7727 17.067L50.7811 17.0712L51.0047 16.624ZM53.4867 17.576L53.3286 18.0504L53.3337 18.052L53.4867 17.576ZM56.6487 18.8L56.43 19.2496L56.4372 19.2531L56.4445 19.2564L56.6487 18.8ZM58.8587 20.466L58.4765 20.7885L58.4817 20.7944L58.8587 20.466ZM57.3287 27.64L57.602 28.0587L57.6061 28.056L57.3287 27.64ZM50.9707 28.738C49.4337 28.738 48.0791 28.5075 46.8991 28.0569L46.5424 28.9911C47.8556 29.4925 49.3343 29.738 50.9707 29.738V28.738ZM46.8991 28.0569C45.7177 27.6058 44.8214 26.9831 44.1841 26.2019L43.4093 26.8341C44.1773 27.7756 45.2304 28.4902 46.5424 28.9911L46.8991 28.0569ZM44.1881 26.2069C43.556 25.4117 43.2427 24.5128 43.2427 23.492H42.2427C42.2427 24.7379 42.632 25.8563 43.4053 26.8291L44.1881 26.2069ZM43.2427 23.492C43.2427 23.3168 43.2627 23.0333 43.3076 22.6292L42.3138 22.5188C42.268 22.9307 42.2427 23.2592 42.2427 23.492H43.2427ZM42.8107 23.074H49.2367V22.074H42.8107V23.074ZM48.737 22.5562C48.71 23.3115 48.944 23.9613 49.4946 24.4201L50.1348 23.6519C49.8694 23.4307 49.718 23.1058 49.7364 22.5918L48.737 22.5562ZM49.4946 24.4201C50.0206 24.8584 50.7151 25.046 51.5147 25.046V24.046C50.8637 24.046 50.4249 23.8936 50.1348 23.6519L49.4946 24.4201ZM51.5147 25.046C52.1454 25.046 52.7097 24.92 53.1737 24.63L52.6437 23.782C52.3824 23.9453 52.0174 24.046 51.5147 24.046V25.046ZM53.1622 24.637C53.6588 24.3448 53.9867 23.9052 53.9867 23.322H52.9867C52.9867 23.4642 52.9292 23.6138 52.6552 23.775L53.1622 24.637ZM53.9867 23.322C53.9867 23.0082 53.8978 22.7143 53.7132 22.4592C53.5326 22.2098 53.2793 22.0234 52.9877 21.8846L52.5577 22.7874C52.7421 22.8752 52.8458 22.9665 52.9032 23.0458C52.9566 23.1194 52.9867 23.2051 52.9867 23.322H53.9867ZM53.0047 21.8931C52.4891 21.623 51.6617 21.3064 50.5479 20.9427L50.2375 21.8933C51.345 22.2549 52.1043 22.5503 52.5407 22.7789L53.0047 21.8931ZM50.5433 20.9412C49.2628 20.5369 48.2187 20.1473 47.4055 19.7737L46.988 20.6823C47.852 21.0794 48.9386 21.4831 50.2421 21.8948L50.5433 20.9412ZM47.4055 19.7737C46.6373 19.4207 45.9584 18.9004 45.368 18.2045L44.6054 18.8515C45.2843 19.6516 46.0788 20.2646 46.988 20.6823L47.4055 19.7737ZM45.3737 18.2114C44.8498 17.5711 44.5687 16.7275 44.5687 15.638H43.5687C43.5687 16.9059 43.8996 17.9889 44.5997 18.8446L45.3737 18.2114ZM44.5687 15.638C44.5687 14.6087 44.8648 13.6917 45.4595 12.8715L44.6499 12.2845C43.9299 13.2776 43.5687 14.4006 43.5687 15.638H44.5687ZM45.4547 12.878C46.0719 12.0551 46.9451 11.4033 48.0994 10.933L47.7221 10.007C46.4283 10.5341 45.3976 11.2875 44.6547 12.278L45.4547 12.878ZM48.1066 10.93C49.2571 10.44 50.6049 10.188 52.1607 10.188V9.188C50.4978 9.188 49.0123 9.45735 47.7148 10.01L48.1066 10.93ZM52.1607 10.188C53.8274 10.188 55.2357 10.4731 56.401 11.024L56.8284 10.12C55.5004 9.49219 53.9393 9.188 52.1607 9.188V10.188ZM56.4109 11.0286C57.6028 11.5607 58.4572 12.2913 59.008 13.2092L59.8655 12.6948C59.1922 11.5727 58.1653 10.7167 56.8185 10.1154L56.4109 11.0286ZM59.0122 13.2161C59.5904 14.1454 59.8501 15.1763 59.7874 16.3248L60.786 16.3792C60.8593 15.0344 60.5523 13.7986 59.8612 12.6878L59.0122 13.2161ZM60.2867 15.852H54.3027V16.852H60.2867V15.852ZM54.8024 16.3705C54.8294 15.6405 54.6092 15.0076 54.0895 14.5491L53.4279 15.2989C53.6789 15.5204 53.8213 15.8395 53.803 16.3335L54.8024 16.3705ZM54.1014 14.5599C53.5935 14.0819 52.8975 13.88 52.0927 13.88V14.88C52.7385 14.88 53.1532 15.0408 53.416 15.2881L54.1014 14.5599ZM52.0927 13.88C51.4997 13.88 50.9655 14.0092 50.5234 14.304L51.0781 15.136C51.316 14.9774 51.643 14.88 52.0927 14.88V13.88ZM50.5234 14.304C50.0649 14.6096 49.7907 15.0508 49.7907 15.604H50.7907C50.7907 15.4319 50.8565 15.2837 51.0781 15.136L50.5234 14.304ZM49.7907 15.604C49.7907 16.2696 50.1804 16.7567 50.7727 17.0669L51.2367 16.1811C50.877 15.9927 50.7907 15.7997 50.7907 15.604H49.7907ZM50.7811 17.0712C51.3138 17.3376 52.17 17.6642 53.3286 18.0503L53.6448 17.1017C52.4914 16.7172 51.693 16.4091 51.2283 16.1768L50.7811 17.0712ZM53.3337 18.052C54.5892 18.4556 55.6194 18.8553 56.43 19.2496L56.8674 18.3504C56.0006 17.9287 54.9229 17.5124 53.6397 17.1L53.3337 18.052ZM56.4445 19.2564C57.2368 19.6109 57.9128 20.1202 58.4766 20.7884L59.2408 20.1436C58.5806 19.3611 57.7833 18.7598 56.8529 18.3436L56.4445 19.2564ZM58.4817 20.7944C58.9997 21.3892 59.2767 22.1717 59.2767 23.186H60.2767C60.2767 21.979 59.9417 20.9481 59.2357 20.1376L58.4817 20.7944ZM59.2767 23.186C59.2767 24.8918 58.5513 26.224 57.0514 27.224L57.6061 28.056C59.3701 26.88 60.2767 25.2429 60.2767 23.186H59.2767ZM57.0554 27.2213C55.5279 28.2184 53.5123 28.738 50.9707 28.738V29.738C53.6424 29.738 55.8655 29.1922 57.602 28.0587L57.0554 27.2213ZM82.2629 11.354L82.6203 11.0043L82.6203 11.0043L82.2629 11.354ZM83.6229 17.882L83.1315 17.7899L83.1306 17.7947L83.6229 17.882ZM81.6509 29V29.5H82.07L82.1432 29.0873L81.6509 29ZM74.9869 29L74.4945 28.9133L74.3912 29.5H74.9869V29ZM76.7889 18.766L76.2985 18.6679L76.2965 18.6793L76.7889 18.766ZM76.1769 15.944L75.8233 16.2977L75.8321 16.3061L76.1769 15.944ZM71.8589 16.114L71.5325 15.7353L71.5325 15.7353L71.8589 16.114ZM70.5329 18.46L70.0454 18.3492L70.0427 18.3609L70.0406 18.3727L70.5329 18.46ZM68.6629 29V29.5H69.082L69.1552 29.0873L68.6629 29ZM61.9649 29L61.4726 28.9128L61.3686 29.5H61.9649V29ZM66.4189 3.84V3.34H65.9997L65.9266 3.75284L66.4189 3.84ZM73.1169 3.84L73.6092 3.92743L73.7135 3.34H73.1169V3.84ZM71.5529 12.646L71.0606 12.5586L70.7443 14.3397L71.9304 12.9738L71.5529 12.646ZM74.3069 10.572L74.523 11.023L74.5305 11.0192L74.3069 10.572ZM77.9109 10.256C79.6703 10.256 80.979 10.757 81.9056 11.7037L82.6203 11.0043C81.4615 9.82028 79.8688 9.256 77.9109 9.256V10.256ZM81.9056 11.7037C82.8333 12.6516 83.3269 13.9969 83.3269 15.808H84.3269C84.3269 13.8111 83.7778 12.187 82.6203 11.0043L81.9056 11.7037ZM83.3269 15.808C83.3269 16.4309 83.2625 17.0913 83.1315 17.7899L84.1144 17.9741C84.2554 17.2221 84.3269 16.4997 84.3269 15.808H83.3269ZM83.1306 17.7947L81.1586 28.9127L82.1432 29.0873L84.1152 17.9693L83.1306 17.7947ZM81.6509 28.5H74.9869V29.5H81.6509V28.5ZM75.4793 29.0867L77.2813 18.8527L76.2965 18.6793L74.4945 28.9133L75.4793 29.0867ZM77.2792 18.8641C77.352 18.5001 77.3909 18.1605 77.3909 17.848H76.3909C76.3909 18.0795 76.3618 18.3519 76.2986 18.6679L77.2792 18.8641ZM77.3909 17.848C77.3909 16.9304 77.1198 16.1515 76.5217 15.5819L75.8321 16.3061C76.1861 16.6432 76.3909 17.1336 76.3909 17.848H77.3909ZM76.5305 15.5904C75.9571 15.0171 75.1677 14.764 74.2389 14.764V15.764C74.9875 15.764 75.4901 15.9643 75.8234 16.2976L76.5305 15.5904ZM74.2389 14.764C73.1989 14.764 72.2873 15.0846 71.5325 15.7353L72.1854 16.4927C72.7452 16.0101 73.4202 15.764 74.2389 15.764V14.764ZM71.5325 15.7353C70.7804 16.3836 70.2913 17.2668 70.0454 18.3492L71.0205 18.5708C71.2278 17.6585 71.6228 16.9777 72.1854 16.4927L71.5325 15.7353ZM70.0406 18.3727L68.1706 28.9127L69.1552 29.0873L71.0252 18.5473L70.0406 18.3727ZM68.6629 28.5H61.9649V29.5H68.6629V28.5ZM62.4573 29.0872L66.9113 3.92716L65.9266 3.75284L61.4726 28.9128L62.4573 29.0872ZM66.4189 4.34H73.1169V3.34H66.4189V4.34ZM72.6246 3.75256L71.0606 12.5586L72.0452 12.7334L73.6092 3.92743L72.6246 3.75256ZM71.9304 12.9738C72.631 12.1671 73.493 11.5164 74.523 11.0229L74.0909 10.1211C72.9448 10.6702 71.9708 11.4023 71.1754 12.3182L71.9304 12.9738ZM74.5305 11.0192C75.5436 10.5127 76.6675 10.256 77.9109 10.256V9.256C76.525 9.256 75.2462 9.54332 74.0833 10.1248L74.5305 11.0192ZM85.8855 19.446L85.3937 19.3555L85.392 19.366L85.8855 19.446ZM87.8915 14.278L88.3085 14.5539L88.3085 14.5539L87.8915 14.278ZM91.3935 10.878L91.1447 10.4443L91.1416 10.4461L91.3935 10.878ZM99.0095 10.47L98.7506 10.8977L98.7506 10.8977L99.0095 10.47ZM100.812 12.578L100.345 12.7575L100.987 14.4282L101.304 12.6663L100.812 12.578ZM101.288 9.926V9.426H100.869L100.795 9.83767L101.288 9.926ZM107.952 9.926L108.444 10.0129L108.547 9.426H107.952V9.926ZM104.586 29V29.5H105.005L105.078 29.0869L104.586 29ZM97.9215 29L97.4294 28.9117L97.3238 29.5H97.9215V29ZM98.3975 26.348L98.8897 26.4363L97.9963 26.0496L98.3975 26.348ZM95.8135 28.456L96.0333 28.9051L96.0333 28.9051L95.8135 28.456ZM87.4835 27.266L87.1115 27.6001L87.1144 27.6033L87.4835 27.266ZM99.6215 19.446L99.1312 19.3479L99.1295 19.3566L99.1281 19.3653L99.6215 19.446ZM98.9075 16.284L98.5539 16.6376L98.5616 16.645L98.9075 16.284ZM94.1815 16.556L94.507 16.9357L94.513 16.9303L94.1815 16.556ZM92.6855 19.446L93.1758 19.5441L93.1775 19.5354L93.179 19.5267L92.6855 19.446ZM93.3655 22.642L93.0119 22.9956L93.0196 23.003L93.3655 22.642ZM86.3773 19.5364C86.7294 17.6217 87.3757 15.964 88.3085 14.5539L87.4745 14.0021C86.458 15.5387 85.767 17.3263 85.3938 19.3556L86.3773 19.5364ZM88.3085 14.5539C89.2461 13.1366 90.3594 12.0601 91.6455 11.3099L91.1416 10.4461C89.7076 11.2826 88.4863 12.4727 87.4745 14.0021L88.3085 14.5539ZM91.6424 11.3117C92.9532 10.5596 94.3186 10.188 95.7455 10.188V9.188C94.1351 9.188 92.5992 9.60977 91.1447 10.4443L91.6424 11.3117ZM95.7455 10.188C96.9962 10.188 97.9878 10.4361 98.7506 10.8977L99.2684 10.0422C98.3086 9.46128 97.1242 9.188 95.7455 9.188V10.188ZM98.7506 10.8977C99.5235 11.3655 100.047 11.9838 100.345 12.7575L101.278 12.3985C100.896 11.4042 100.218 10.6171 99.2684 10.0422L98.7506 10.8977ZM101.304 12.6663L101.78 10.0143L100.795 9.83767L100.319 12.4897L101.304 12.6663ZM101.288 10.426H107.952V9.426H101.288V10.426ZM107.459 9.83911L104.093 28.9131L105.078 29.0869L108.444 10.0129L107.459 9.83911ZM104.586 28.5H97.9215V29.5H104.586V28.5ZM98.4137 29.0883L98.8897 26.4363L97.9054 26.2597L97.4294 28.9117L98.4137 29.0883ZM97.9963 26.0496C97.3901 26.8648 96.5931 27.5179 95.5937 28.0069L96.0333 28.9051C97.1646 28.3515 98.0902 27.5992 98.7987 26.6464L97.9963 26.0496ZM95.5937 28.0069C94.6028 28.4918 93.5003 28.738 92.2775 28.738V29.738C93.6388 29.738 94.8936 29.4628 96.0333 28.9051L95.5937 28.0069ZM92.2775 28.738C90.4046 28.738 88.9473 28.1267 87.8526 26.9287L87.1144 27.6033C88.4224 29.0347 90.1611 29.738 92.2775 29.738V28.738ZM87.8555 26.9319C86.7572 25.7093 86.1815 24.0268 86.1815 21.826H85.1815C85.1815 24.2038 85.8071 26.148 87.1116 27.6001L87.8555 26.9319ZM86.1815 21.826C86.1815 21.1081 86.2468 20.3417 86.3791 19.526L85.392 19.366C85.2522 20.2276 85.1815 21.0479 85.1815 21.826H86.1815ZM100.112 19.5441C100.185 19.1773 100.224 18.8268 100.224 18.494H99.2235C99.2235 18.7506 99.1939 19.0347 99.1312 19.3479L100.112 19.5441ZM100.224 18.494C100.224 17.4438 99.9203 16.5621 99.2535 15.923L98.5616 16.645C98.9827 17.0486 99.2235 17.6402 99.2235 18.494H100.224ZM99.2611 15.9304C98.6328 15.3022 97.8189 15.002 96.8675 15.002V16.002C97.5934 16.002 98.1396 16.2231 98.554 16.6376L99.2611 15.9304ZM96.8675 15.002C95.74 15.002 94.7285 15.4036 93.85 16.1817L94.513 16.9303C95.2212 16.3031 96.0004 16.002 96.8675 16.002V15.002ZM93.8561 16.1764C92.9556 16.9483 92.411 18.0276 92.1921 19.3653L93.179 19.5267C93.3681 18.3711 93.8208 17.5237 94.5069 16.9356L93.8561 16.1764ZM92.1952 19.3479C92.1214 19.7173 92.0835 20.0789 92.0835 20.432H93.0835C93.0835 20.1505 93.1137 19.8547 93.1758 19.5441L92.1952 19.3479ZM92.0835 20.432C92.0835 21.4763 92.3717 22.3553 93.012 22.9956L93.7191 22.2884C93.3166 21.886 93.0835 21.2917 93.0835 20.432H92.0835ZM93.0196 23.003C93.6675 23.6239 94.4878 23.924 95.4395 23.924V22.924C94.7139 22.924 94.1515 22.7027 93.7115 22.281L93.0196 23.003ZM95.4395 23.924C96.5671 23.924 97.5785 23.5224 98.457 22.7443L97.794 21.9957C97.0859 22.6229 96.3066 22.924 95.4395 22.924V23.924ZM98.457 22.7443C99.3523 21.9513 99.8961 20.8643 100.115 19.5267L99.1281 19.3653C98.9389 20.5211 98.4854 21.3833 97.794 21.9957L98.457 22.7443ZM119.535 3.84L120.027 3.92716L120.131 3.34H119.535V3.84ZM115.081 29V29.5H115.5L115.573 29.0872L115.081 29ZM108.383 29L107.891 28.9128L107.787 29.5H108.383V29ZM112.837 3.84V3.34H112.418L112.345 3.75284L112.837 3.84ZM119.043 3.75284L114.589 28.9128L115.573 29.0872L120.027 3.92716L119.043 3.75284ZM115.081 28.5H108.383V29.5H115.081V28.5ZM108.875 29.0872L113.329 3.92716L112.345 3.75284L107.891 28.9128L108.875 29.0872ZM112.837 4.34H119.535V3.34H112.837V4.34ZM123.432 7.376L123.101 7.75056L123.108 7.75662L123.432 7.376ZM123.126 3.364L122.705 3.09361L122.703 3.09759L123.126 3.364ZM124.758 1.868L124.993 2.30921L124.998 2.3064L124.758 1.868ZM129.552 2.106L129.213 2.4734L129.22 2.48016L129.228 2.48662L129.552 2.106ZM129.858 6.152L129.442 5.87455L129.435 5.88559L129.858 6.152ZM128.226 7.614L128.455 8.05831L128.455 8.05831L128.226 7.614ZM128.906 9.926L129.398 10.0129L129.502 9.426H128.906V9.926ZM125.54 29V29.5H125.959L126.032 29.0869L125.54 29ZM118.842 29L118.35 28.9123L118.245 29.5H118.842V29ZM122.242 9.926V9.426H121.823L121.75 9.83825L122.242 9.926ZM125.914 7.658C124.954 7.658 124.254 7.41917 123.756 6.99538L123.108 7.75662C123.834 8.3755 124.788 8.658 125.914 8.658V7.658ZM123.763 7.0015C123.286 6.57901 123.048 6.04881 123.048 5.37H122.048C122.048 6.32319 122.4 7.13032 123.101 7.7505L123.763 7.0015ZM123.048 5.37C123.048 4.73864 123.214 4.16238 123.549 3.63041L122.703 3.09759C122.267 3.78962 122.048 4.55068 122.048 5.37H123.048ZM123.546 3.63438C123.907 3.07312 124.387 2.63256 124.993 2.30918L124.523 1.42682C123.769 1.82877 123.16 2.38554 122.705 3.09362L123.546 3.63438ZM124.998 2.3064C125.622 1.96448 126.32 1.79 127.104 1.79V0.789998C126.165 0.789998 125.299 1.00085 124.517 1.42959L124.998 2.3064ZM127.104 1.79C128.06 1.79 128.741 2.03778 129.213 2.4734L129.891 1.7386C129.184 1.08622 128.233 0.789998 127.104 0.789998V1.79ZM129.228 2.48662C129.723 2.90836 129.97 3.44659 129.97 4.146H130.97C130.97 3.16808 130.605 2.34631 129.876 1.72538L129.228 2.48662ZM129.97 4.146C129.97 4.77115 129.796 5.34355 129.442 5.87465L130.274 6.42935C130.736 5.73644 130.97 4.97151 130.97 4.146H129.97ZM129.435 5.88559C129.101 6.4151 128.628 6.84402 127.997 7.16969L128.455 8.05831C129.23 7.65864 129.844 7.1129 130.281 6.41841L129.435 5.88559ZM127.997 7.16969C127.369 7.49355 126.678 7.658 125.914 7.658V8.658C126.827 8.658 127.677 8.45979 128.455 8.05831L127.997 7.16969ZM128.413 9.83911L125.047 28.9131L126.032 29.0869L129.398 10.0129L128.413 9.83911ZM125.54 28.5H118.842V29.5H125.54V28.5ZM119.334 29.0877L122.734 10.0137L121.75 9.83825L118.35 28.9123L119.334 29.0877ZM122.242 10.426H128.906V9.426H122.242V10.426ZM130.015 28.49L129.684 28.8646L129.691 28.8706L130.015 28.49ZM129.709 24.444L129.288 24.1736L129.286 24.1776L129.709 24.444ZM131.375 22.948L131.604 23.3925L131.615 23.3864L131.375 22.948ZM136.135 23.186L135.796 23.5534L135.803 23.5602L135.811 23.5666L136.135 23.186ZM135.727 28.116L136.06 28.4886L136.061 28.4881L135.727 28.116ZM132.497 28.772C131.537 28.772 130.837 28.5332 130.339 28.1094L129.691 28.8706C130.417 29.4895 131.371 29.772 132.497 29.772V28.772ZM130.346 28.1155C129.872 27.6959 129.631 27.1561 129.631 26.45H128.631C128.631 27.4212 128.979 28.2414 129.684 28.8645L130.346 28.1155ZM129.631 26.45C129.631 25.8186 129.797 25.2424 130.132 24.7104L129.286 24.1776C128.85 24.8696 128.631 25.6307 128.631 26.45H129.631ZM130.129 24.7144C130.488 24.1571 130.976 23.7168 131.604 23.3923L131.146 22.5037C130.369 22.9046 129.746 23.4616 129.288 24.1736L130.129 24.7144ZM131.615 23.3864C132.239 23.0445 132.937 22.87 133.721 22.87V21.87C132.782 21.87 131.916 22.0808 131.134 22.5096L131.615 23.3864ZM133.721 22.87C134.651 22.87 135.322 23.116 135.796 23.5534L136.474 22.8186C135.769 22.168 134.831 21.87 133.721 21.87V22.87ZM135.811 23.5666C136.306 23.9884 136.553 24.5266 136.553 25.226H137.553C137.553 24.2481 137.188 23.4263 136.459 22.8054L135.811 23.5666ZM136.553 25.226C136.553 26.2098 136.177 27.0402 135.393 27.7439L136.061 28.4881C137.045 27.6051 137.553 26.5089 137.553 25.226H136.553ZM135.393 27.7434C134.635 28.4222 133.681 28.772 132.497 28.772V29.772C133.896 29.772 135.096 29.3511 136.06 28.4886L135.393 27.7434Z"/><defs><radialGradient id="paint0_radial" cx="0" cy="0" r="1" gradientTransform="translate(69 18.5) rotate(90) scale(26.5 87)" gradientUnits="userSpaceOnUse"><stop stop-color="#110707"/><stop offset="1" stop-color="#939C8C" stop-opacity="0"/></radialGradient><radialGradient id="paint1_radial" cx="0" cy="0" r="1" gradientTransform="translate(69 18.5) rotate(90) scale(26.5 87)" gradientUnits="userSpaceOnUse"><stop stop-color="#fff"/><stop offset="1" stop-color="#FF0909"/></radialGradient></defs></svg>