<svg xmlns="http://www.w3.org/2000/svg" width="154" height="33" fill="none" viewBox="0 0 154 33"><path fill="url(#paint0_radial)" d="M23.4832 5.21L22.4192 11.138H15.3132L11.6272 32H4.14123L7.82723 11.138H0.759234L1.82323 5.21H23.4832ZM47.1008 10.682L43.3008 32H35.8528L36.3848 28.96C35.5488 29.9227 34.5228 30.708 33.3068 31.316C32.1162 31.8987 30.7988 32.19 29.3548 32.19C27.2522 32.19 25.6182 31.5947 24.4528 30.404C23.2875 29.2133 22.7048 27.554 22.7048 25.426C22.7048 24.6913 22.7808 23.906 22.9328 23.07L25.0988 10.682H32.5468L30.5328 22.12C30.4568 22.4493 30.4188 22.7787 30.4188 23.108C30.4188 24.02 30.6848 24.742 31.2168 25.274C31.7488 25.7807 32.4708 26.034 33.3828 26.034C34.4468 26.034 35.3462 25.7047 36.0808 25.046C36.8155 24.3873 37.3095 23.4753 37.5628 22.31L39.6148 10.682H47.1008ZM56.8496 32.266C55.0763 32.266 53.4929 32 52.0996 31.468C50.7063 30.936 49.6169 30.1887 48.8316 29.226C48.0463 28.238 47.6536 27.1107 47.6536 25.844C47.6536 25.616 47.6789 25.274 47.7296 24.818H54.9116C54.8863 25.5273 55.1016 26.072 55.5576 26.452C56.0136 26.832 56.6469 27.022 57.4576 27.022C58.0909 27.022 58.6103 26.8953 59.0156 26.642C59.4463 26.3887 59.6616 26.0593 59.6616 25.654C59.6616 25.1727 59.3956 24.8053 58.8636 24.552C58.3316 24.2733 57.4449 23.9313 56.2036 23.526C54.7596 23.07 53.5689 22.6267 52.6316 22.196C51.6943 21.7653 50.8709 21.132 50.1616 20.296C49.4776 19.46 49.1356 18.3833 49.1356 17.066C49.1356 15.7993 49.5029 14.6593 50.2376 13.646C50.9976 12.6327 52.0616 11.8473 53.4296 11.29C54.7976 10.7073 56.3809 10.416 58.1796 10.416C60.1049 10.416 61.7643 10.7453 63.1576 11.404C64.5763 12.0373 65.6276 12.924 66.3116 14.064C67.0209 15.204 67.3376 16.4707 67.2616 17.864H60.5736C60.5989 17.18 60.3963 16.648 59.9656 16.268C59.5349 15.8627 58.9143 15.66 58.1036 15.66C57.5209 15.66 57.0396 15.7867 56.6596 16.04C56.2796 16.2933 56.0896 16.6227 56.0896 17.028C56.0896 17.5093 56.3556 17.8893 56.8876 18.168C57.4449 18.4467 58.3696 18.8013 59.6616 19.232C61.0803 19.688 62.2583 20.144 63.1956 20.6C64.1583 21.0307 64.9816 21.6513 65.6656 22.462C66.3496 23.2473 66.6916 24.2607 66.6916 25.502C66.6916 27.6047 65.7796 29.264 63.9556 30.48C62.1316 31.6707 59.7629 32.266 56.8496 32.266ZM86.9593 10.492C89.0366 10.492 90.6579 11.0873 91.8233 12.278C92.9886 13.4687 93.5713 15.128 93.5713 17.256C93.5713 17.9907 93.4953 18.7633 93.3433 19.574L91.1393 32H83.6913L85.7053 20.562C85.7813 20.182 85.8193 19.84 85.8193 19.536C85.8193 18.624 85.5533 17.9147 85.0213 17.408C84.5146 16.9013 83.7926 16.648 82.8553 16.648C81.8166 16.648 80.9299 16.9647 80.1953 17.598C79.4606 18.2313 78.9666 19.1053 78.7133 20.22L76.6233 32H69.1373L74.1153 3.88H81.6013L79.8533 13.722C80.6893 12.7593 81.7153 11.9867 82.9313 11.404C84.1473 10.796 85.4899 10.492 86.9593 10.492ZM95.872 21.322C96.2774 19.118 97.0247 17.1927 98.114 15.546C99.2034 13.8993 100.508 12.6327 102.028 11.746C103.573 10.8593 105.195 10.416 106.892 10.416C108.361 10.416 109.577 10.7073 110.54 11.29C111.503 11.8727 112.174 12.658 112.554 13.646L113.086 10.682H120.534L116.772 32H109.324L109.856 29.036C109.121 30.024 108.159 30.8093 106.968 31.392C105.777 31.9747 104.46 32.266 103.016 32.266C100.787 32.266 99.0007 31.5313 97.658 30.062C96.3154 28.5673 95.644 26.5407 95.644 23.982C95.644 23.146 95.72 22.2593 95.872 21.322ZM111.224 21.322C111.3 20.942 111.338 20.5873 111.338 20.258C111.338 19.194 111.034 18.3707 110.426 17.788C109.843 17.2053 109.083 16.914 108.146 16.914C107.031 16.914 106.031 17.3067 105.144 18.092C104.257 18.852 103.7 19.9287 103.472 21.322C103.396 21.702 103.358 22.0693 103.358 22.424C103.358 23.488 103.649 24.3113 104.232 24.894C104.84 25.4767 105.613 25.768 106.55 25.768C107.665 25.768 108.665 25.3753 109.552 24.59C110.439 23.8047 110.996 22.7153 111.224 21.322ZM133.48 3.88L128.502 32H121.016L125.994 3.88H133.48ZM140.61 8.706C139.444 8.706 138.52 8.41467 137.836 7.832C137.177 7.24933 136.848 6.502 136.848 5.59C136.848 4.77933 137.063 4.032 137.494 3.348C137.95 2.63866 138.558 2.08133 139.318 1.676C140.103 1.24533 140.977 1.03 141.94 1.03C143.105 1.03 144.017 1.334 144.676 1.942C145.36 2.52467 145.702 3.28467 145.702 4.222C145.702 5.03267 145.474 5.78 145.018 6.464C144.587 7.148 143.979 7.69267 143.194 8.098C142.408 8.50333 141.547 8.706 140.61 8.706ZM143.954 10.682L140.192 32H132.706L136.506 10.682H143.954Z"/><path fill="url(#paint1_radial)" d="M147.967 32.304C146.802 32.304 145.877 32.0127 145.193 31.43C144.534 30.8473 144.205 30.0873 144.205 29.15C144.205 28.3393 144.42 27.592 144.851 26.908C145.307 26.1987 145.928 25.6413 146.713 25.236C147.498 24.8053 148.372 24.59 149.335 24.59C150.475 24.59 151.374 24.894 152.033 25.502C152.717 26.0847 153.059 26.8447 153.059 27.782C153.059 29.0487 152.565 30.1253 151.577 31.012C150.614 31.8733 149.411 32.304 147.967 32.304Z"/><path fill="url(#paint2_radial)" d="M23.4832 5.21L23.9754 5.29833L24.081 4.71H23.4832V5.21ZM22.4192 11.138V11.638H22.8375L22.9114 11.2263L22.4192 11.138ZM15.3132 11.138V10.638H14.8938L14.8209 11.051L15.3132 11.138ZM11.6272 32V32.5H12.0466L12.1196 32.087L11.6272 32ZM4.14123 32L3.64886 31.913L3.54515 32.5H4.14123V32ZM7.82723 11.138L8.31961 11.225L8.42332 10.638H7.82723V11.138ZM0.759234 11.138L0.267099 11.0497L0.161501 11.638H0.759234V11.138ZM1.82323 5.21V4.71H1.40499L1.3311 5.12167L1.82323 5.21ZM22.9911 5.12167L21.9271 11.0497L22.9114 11.2263L23.9754 5.29833L22.9911 5.12167ZM22.4192 10.638H15.3132V11.638H22.4192V10.638ZM14.8209 11.051L11.1349 31.913L12.1196 32.087L15.8056 11.225L14.8209 11.051ZM11.6272 31.5H4.14123V32.5H11.6272V31.5ZM4.63361 32.087L8.31961 11.225L7.33486 11.051L3.64886 31.913L4.63361 32.087ZM7.82723 10.638H0.759234V11.638H7.82723V10.638ZM1.25137 11.2263L2.31537 5.29833L1.3311 5.12167L0.267099 11.0497L1.25137 11.2263ZM1.82323 5.71H23.4832V4.71H1.82323V5.71ZM47.1008 10.682L47.5931 10.7697L47.6978 10.182H47.1008V10.682ZM43.3008 32V32.5H43.7196L43.7931 32.0877L43.3008 32ZM35.8528 32L35.3603 31.9138L35.2577 32.5H35.8528V32ZM36.3848 28.96L36.8773 29.0462L37.1877 27.273L36.0073 28.6322L36.3848 28.96ZM33.3068 31.316L33.5266 31.7651L33.5304 31.7632L33.3068 31.316ZM24.4528 30.404L24.8102 30.0543L24.8102 30.0543L24.4528 30.404ZM22.9328 23.07L23.4248 23.1594L23.4254 23.1561L22.9328 23.07ZM25.0988 10.682V10.182H24.6787L24.6063 10.5959L25.0988 10.682ZM32.5468 10.682L33.0393 10.7687L33.1426 10.182H32.5468V10.682ZM30.5328 22.12L31.02 22.2324L31.023 22.2196L31.0253 22.2067L30.5328 22.12ZM31.2168 25.274L30.8632 25.6277L30.872 25.6361L31.2168 25.274ZM36.0808 25.046L36.4146 25.4183L36.4146 25.4183L36.0808 25.046ZM37.5628 22.31L38.0514 22.4162L38.0535 22.4066L38.0552 22.3969L37.5628 22.31ZM39.6148 10.682V10.182H39.1953L39.1224 10.5951L39.6148 10.682ZM46.6086 10.5943L42.8086 31.9123L43.7931 32.0877L47.5931 10.7697L46.6086 10.5943ZM43.3008 31.5H35.8528V32.5H43.3008V31.5ZM36.3453 32.0862L36.8773 29.0462L35.8923 28.8738L35.3603 31.9138L36.3453 32.0862ZM36.0073 28.6322C35.2171 29.5421 34.2445 30.2881 33.0832 30.8688L33.5304 31.7632C34.8011 31.1279 35.8806 30.3032 36.7623 29.2878L36.0073 28.6322ZM33.0871 30.8669C31.9708 31.4132 30.7296 31.69 29.3548 31.69V32.69C30.8681 32.69 32.2616 32.3842 33.5266 31.7651L33.0871 30.8669ZM29.3548 31.69C27.3494 31.69 25.8582 31.1251 24.8102 30.0543L24.0955 30.7537C25.3781 32.0642 27.1549 32.69 29.3548 32.69V31.69ZM24.8102 30.0543C23.7597 28.981 23.2048 27.4611 23.2048 25.426H22.2048C22.2048 27.6469 22.8152 29.4457 24.0955 30.7537L24.8102 30.0543ZM23.2048 25.426C23.2048 24.7256 23.2773 23.9704 23.4248 23.1594L22.4409 22.9806C22.2843 23.8416 22.2048 24.6571 22.2048 25.426H23.2048ZM23.4254 23.1561L25.5914 10.7681L24.6063 10.5959L22.4403 22.9839L23.4254 23.1561ZM25.0988 11.182H32.5468V10.182H25.0988V11.182ZM32.0544 10.5953L30.0404 22.0333L31.0253 22.2067L33.0393 10.7687L32.0544 10.5953ZM30.0456 22.0076C29.9613 22.3728 29.9188 22.7398 29.9188 23.108H30.9188C30.9188 22.8175 30.9523 22.5259 31.02 22.2324L30.0456 22.0076ZM29.9188 23.108C29.9188 24.1226 30.2182 24.9825 30.8633 25.6276L31.5704 24.9204C31.1514 24.5015 30.9188 23.9174 30.9188 23.108H29.9188ZM30.872 25.6361C31.5181 26.2514 32.375 26.534 33.3828 26.534V25.534C32.5667 25.534 31.9795 25.3099 31.5617 24.9119L30.872 25.6361ZM33.3828 26.534C34.5595 26.534 35.5807 26.1659 36.4146 25.4183L35.7471 24.6737C35.1116 25.2434 34.3341 25.534 33.3828 25.534V26.534ZM36.4146 25.4183C37.2428 24.6758 37.7805 23.6624 38.0514 22.4162L37.0742 22.2038C36.8385 23.2883 36.3882 24.0989 35.7471 24.6737L36.4146 25.4183ZM38.0552 22.3969L40.1072 10.7689L39.1224 10.5951L37.0704 22.2231L38.0552 22.3969ZM39.6148 11.182H47.1008V10.182H39.6148V11.182ZM52.0996 31.468L51.9213 31.9351L51.9213 31.9351L52.0996 31.468ZM48.8316 29.226L48.4402 29.5371L48.4442 29.5421L48.8316 29.226ZM47.7296 24.818V24.318H47.2821L47.2327 24.7628L47.7296 24.818ZM54.9116 24.818L55.4113 24.8358L55.4298 24.318H54.9116V24.818ZM55.5576 26.452L55.2375 26.8361L55.2375 26.8361L55.5576 26.452ZM59.0156 26.642L58.762 26.2109L58.7506 26.218L59.0156 26.642ZM58.8636 24.552L58.6316 24.9949L58.64 24.9993L58.6486 25.0034L58.8636 24.552ZM56.2036 23.526L56.3588 23.0507L56.3542 23.0492L56.2036 23.526ZM52.6316 22.196L52.8404 21.7417L52.8404 21.7417L52.6316 22.196ZM50.1616 20.296L49.7746 20.6127L49.7804 20.6195L50.1616 20.296ZM50.2376 13.646L49.8376 13.346L49.8328 13.3525L50.2376 13.646ZM53.4296 11.29L53.6183 11.7531L53.6255 11.75L53.4296 11.29ZM63.1576 11.404L62.9439 11.8561L62.9538 11.8606L63.1576 11.404ZM66.3116 14.064L65.8828 14.3213L65.8871 14.3281L66.3116 14.064ZM67.2616 17.864V18.364H67.7351L67.7609 17.8912L67.2616 17.864ZM60.5736 17.864L60.074 17.8455L60.0547 18.364H60.5736V17.864ZM59.9656 16.268L59.6229 16.6321L59.6288 16.6376L59.6348 16.6429L59.9656 16.268ZM56.6596 16.04L56.3823 15.624L56.3823 15.624L56.6596 16.04ZM56.8876 18.168L56.6556 18.611L56.664 18.6152L56.8876 18.168ZM59.6616 19.232L59.5035 19.7064L59.5086 19.708L59.6616 19.232ZM63.1956 20.6L62.9769 21.0496L62.9841 21.0531L62.9914 21.0564L63.1956 20.6ZM65.6656 22.462L65.2834 22.7845L65.2886 22.7904L65.6656 22.462ZM63.9556 30.48L64.2289 30.8987L64.233 30.896L63.9556 30.48ZM56.8496 31.766C55.126 31.766 53.6047 31.5075 52.278 31.0009L51.9213 31.9351C53.3812 32.4925 55.0266 32.766 56.8496 32.766V31.766ZM52.278 31.0009C50.9499 30.4938 49.939 29.7924 49.219 28.9099L48.4442 29.5421C49.2949 30.5849 50.4626 31.3782 51.9213 31.9351L52.278 31.0009ZM49.223 28.9149C48.5083 28.0157 48.1536 26.9981 48.1536 25.844H47.1536C47.1536 27.2232 47.5843 28.4603 48.4402 29.5371L49.223 28.9149ZM48.1536 25.844C48.1536 25.6448 48.1763 25.3253 48.2266 24.8732L47.2327 24.7628C47.1816 25.2227 47.1536 25.5872 47.1536 25.844H48.1536ZM47.7296 25.318H54.9116V24.318H47.7296V25.318ZM54.4119 24.8002C54.3823 25.6302 54.6389 26.3373 55.2375 26.8361L55.8777 26.0679C55.5643 25.8067 55.3903 25.4245 55.4113 24.8358L54.4119 24.8002ZM55.2375 26.8361C55.8115 27.3144 56.5727 27.522 57.4576 27.522V26.522C56.7212 26.522 56.2158 26.3496 55.8777 26.0679L55.2375 26.8361ZM57.4576 27.522C58.1549 27.522 58.7739 27.3827 59.2806 27.066L58.7506 26.218C58.4467 26.408 58.027 26.522 57.4576 26.522V27.522ZM59.2691 27.073C59.8111 26.7542 60.1616 26.2798 60.1616 25.654H59.1616C59.1616 25.8388 59.0815 26.0232 58.7621 26.211L59.2691 27.073ZM60.1616 25.654C60.1616 25.3149 60.0658 24.9986 59.8671 24.7242C59.6725 24.4555 59.3982 24.2528 59.0786 24.1006L58.6486 25.0034C58.861 25.1046 58.9858 25.2122 59.0571 25.3108C59.1245 25.4037 59.1616 25.5118 59.1616 25.654H60.1616ZM59.0956 24.1091C58.524 23.8097 57.6033 23.4571 56.3588 23.0507L56.0484 24.0013C57.2866 24.4056 58.1392 24.737 58.6316 24.9949L59.0956 24.1091ZM56.3542 23.0492C54.9218 22.5969 53.7523 22.1606 52.8404 21.7417L52.4229 22.6503C53.3856 23.0927 54.5975 23.5431 56.053 24.0028L56.3542 23.0492ZM52.8404 21.7417C51.9735 21.3434 51.208 20.7564 50.5429 19.9725L49.7804 20.6195C50.5339 21.5076 51.415 22.1873 52.4229 22.6503L52.8404 21.7417ZM50.5486 19.9794C49.9527 19.2511 49.6356 18.2941 49.6356 17.066H48.6356C48.6356 18.4725 49.0025 19.6689 49.7746 20.6126L50.5486 19.9794ZM49.6356 17.066C49.6356 15.9034 49.9704 14.8664 50.6424 13.9395L49.8328 13.3525C49.0355 14.4523 48.6356 15.6953 48.6356 17.066H49.6356ZM50.6376 13.946C51.3348 13.0165 52.32 12.2819 53.6183 11.753L53.241 10.827C51.8032 11.4127 50.6605 12.2489 49.8376 13.346L50.6376 13.946ZM53.6255 11.75C54.92 11.1986 56.4345 10.916 58.1796 10.916V9.916C56.3274 9.916 54.6752 10.216 53.2337 10.83L53.6255 11.75ZM58.1796 10.916C60.049 10.916 61.6319 11.2358 62.9439 11.856L63.3713 10.952C61.8966 10.2549 60.1609 9.916 58.1796 9.916V10.916ZM62.9538 11.8606C64.2951 12.4593 65.2601 13.2833 65.8829 14.3212L66.7404 13.8068C65.9951 12.5647 64.8575 11.6153 63.3614 10.9474L62.9538 11.8606ZM65.8871 14.3281C66.54 15.3774 66.833 16.5416 66.7624 17.8368L67.7609 17.8912C67.8422 16.3997 67.5019 15.0306 66.7361 13.7998L65.8871 14.3281ZM67.2616 17.364H60.5736V18.364H67.2616V17.364ZM61.0733 17.8825C61.103 17.0805 60.8614 16.3916 60.2964 15.8931L59.6348 16.6429C59.9311 16.9044 60.0949 17.2795 60.074 17.8455L61.0733 17.8825ZM60.3083 15.9039C59.7551 15.3832 58.9938 15.16 58.1036 15.16V16.16C58.8348 16.16 59.3148 16.3421 59.6229 16.6321L60.3083 15.9039ZM58.1036 15.16C57.4493 15.16 56.8644 15.3026 56.3823 15.624L56.937 16.456C57.2149 16.2708 57.5926 16.16 58.1036 16.16V15.16ZM56.3823 15.624C55.8838 15.9563 55.5896 16.4321 55.5896 17.028H56.5896C56.5896 16.8132 56.6754 16.6304 56.937 16.456L56.3823 15.624ZM55.5896 17.028C55.5896 17.7443 56.0073 18.2713 56.6556 18.6109L57.1196 17.7251C56.7039 17.5073 56.5896 17.2743 56.5896 17.028H55.5896ZM56.664 18.6152C57.2554 18.9109 58.2089 19.2748 59.5035 19.7063L59.8197 18.7577C58.5303 18.3278 57.6345 17.9824 57.1112 17.7208L56.664 18.6152ZM59.5086 19.708C60.9135 20.1596 62.0677 20.6073 62.9769 21.0496L63.4143 20.1504C62.4489 19.6807 61.2471 19.2164 59.8146 18.756L59.5086 19.708ZM62.9914 21.0564C63.885 21.4562 64.6477 22.0309 65.2835 22.7844L66.0478 22.1396C65.3156 21.2718 64.4315 20.6051 63.3998 20.1436L62.9914 21.0564ZM65.2886 22.7904C65.8786 23.4679 66.1916 24.357 66.1916 25.502H67.1916C67.1916 24.1643 66.8206 23.0268 66.0427 22.1336L65.2886 22.7904ZM66.1916 25.502C66.1916 27.4291 65.3703 28.936 63.6783 30.064L64.233 30.896C66.189 29.592 67.1916 27.7802 67.1916 25.502H66.1916ZM63.6823 30.0613C61.9628 31.1838 59.6979 31.766 56.8496 31.766V32.766C59.828 32.766 62.3005 32.1576 64.2289 30.8987L63.6823 30.0613ZM91.8233 12.278L92.1806 11.9283L92.1806 11.9283L91.8233 12.278ZM93.3433 19.574L92.8518 19.4819L92.851 19.4867L93.3433 19.574ZM91.1393 32V32.5H91.5584L91.6316 32.0873L91.1393 32ZM83.6913 32L83.1988 31.9133L83.0955 32.5H83.6913V32ZM85.7053 20.562L85.2148 20.4639L85.2128 20.4753L85.7053 20.562ZM85.0213 17.408L84.6676 17.7617L84.6764 17.7701L85.0213 17.408ZM80.1953 17.598L79.8688 17.2193L79.8688 17.2193L80.1953 17.598ZM78.7133 20.22L78.2257 20.1092L78.223 20.1209L78.221 20.1327L78.7133 20.22ZM76.6233 32V32.5H77.0424L77.1156 32.0873L76.6233 32ZM69.1373 32L68.6449 31.9128L68.541 32.5H69.1373V32ZM74.1153 3.88V3.38H73.696L73.6229 3.79284L74.1153 3.88ZM81.6013 3.88L82.0936 3.96743L82.1979 3.38H81.6013V3.88ZM79.8533 13.722L79.361 13.6346L79.0446 15.4157L80.2308 14.0498L79.8533 13.722ZM82.9313 11.404L83.1474 11.855L83.1549 11.8512L82.9313 11.404ZM86.9593 10.992C88.9373 10.992 90.4167 11.5557 91.4659 12.6277L92.1806 11.9283C90.8991 10.619 89.1359 9.992 86.9593 9.992V10.992ZM91.4659 12.6277C92.5163 13.701 93.0713 15.2209 93.0713 17.256H94.0713C94.0713 15.0351 93.4608 13.2363 92.1806 11.9283L91.4659 12.6277ZM93.0713 17.256C93.0713 17.9563 92.9988 18.6979 92.8518 19.4819L93.8347 19.6661C93.9917 18.8287 94.0713 18.0251 94.0713 17.256H93.0713ZM92.851 19.4867L90.647 31.9127L91.6316 32.0873L93.8356 19.6613L92.851 19.4867ZM91.1393 31.5H83.6913V32.5H91.1393V31.5ZM84.1837 32.0867L86.1977 20.6487L85.2128 20.4753L83.1988 31.9133L84.1837 32.0867ZM86.1956 20.6601C86.2763 20.2561 86.3193 19.8805 86.3193 19.536H85.3193C85.3193 19.7995 85.2862 20.1079 85.215 20.4639L86.1956 20.6601ZM86.3193 19.536C86.3193 18.5224 86.0201 17.6688 85.3661 17.0459L84.6764 17.7701C85.0864 18.1605 85.3193 18.7256 85.3193 19.536H86.3193ZM85.3748 17.0544C84.7481 16.4277 83.8827 16.148 82.8553 16.148V17.148C83.7025 17.148 84.2811 17.3749 84.6677 17.7616L85.3748 17.0544ZM82.8553 16.148C81.7059 16.148 80.701 16.5019 79.8688 17.2193L80.5217 17.9767C81.1589 17.4274 81.9273 17.148 82.8553 17.148V16.148ZM79.8688 17.2193C79.0394 17.9343 78.4984 18.9095 78.2257 20.1092L79.2008 20.3308C79.4348 19.3012 79.8818 18.5284 80.5217 17.9767L79.8688 17.2193ZM78.221 20.1327L76.131 31.9127L77.1156 32.0873L79.2056 20.3073L78.221 20.1327ZM76.6233 31.5H69.1373V32.5H76.6233V31.5ZM69.6296 32.0872L74.6076 3.96716L73.6229 3.79284L68.6449 31.9128L69.6296 32.0872ZM74.1153 4.38H81.6013V3.38H74.1153V4.38ZM81.109 3.79256L79.361 13.6346L80.3456 13.8094L82.0936 3.96743L81.109 3.79256ZM80.2308 14.0498C81.0194 13.1417 81.9894 12.4098 83.1473 11.8549L82.7152 10.9531C81.4411 11.5636 80.3591 12.3769 79.4757 13.3942L80.2308 14.0498ZM83.1549 11.8512C84.2959 11.2807 85.5612 10.992 86.9593 10.992V9.992C85.4187 9.992 83.9986 10.3113 82.7077 10.9568L83.1549 11.8512ZM95.872 21.322L95.3802 21.2315L95.3785 21.242L95.872 21.322ZM98.114 15.546L98.5311 15.8219L98.5311 15.8219L98.114 15.546ZM102.028 11.746L101.779 11.3123L101.776 11.3141L102.028 11.746ZM110.54 11.29L110.281 11.7177L110.281 11.7177L110.54 11.29ZM112.554 13.646L112.087 13.8255L112.73 15.4962L113.046 13.7343L112.554 13.646ZM113.086 10.682V10.182H112.668L112.594 10.5937L113.086 10.682ZM120.534 10.682L121.026 10.7689L121.13 10.182H120.534V10.682ZM116.772 32V32.5H117.192L117.264 32.0869L116.772 32ZM109.324 32L108.832 31.9117L108.726 32.5H109.324V32ZM109.856 29.036L110.348 29.1243L109.455 28.7376L109.856 29.036ZM106.968 31.392L107.188 31.8411L107.188 31.8411L106.968 31.392ZM97.658 30.062L97.2861 30.3961L97.2889 30.3993L97.658 30.062ZM111.224 21.322L110.734 21.2239L110.732 21.2326L110.731 21.2413L111.224 21.322ZM110.426 17.788L110.072 18.1416L110.08 18.149L110.426 17.788ZM105.144 18.092L105.469 18.4717L105.476 18.4663L105.144 18.092ZM103.472 21.322L103.962 21.4201L103.964 21.4114L103.965 21.4027L103.472 21.322ZM104.232 24.894L103.878 25.2476L103.886 25.255L104.232 24.894ZM109.552 24.59L109.221 24.2157L109.552 24.59ZM96.3638 21.4124C96.7586 19.2657 97.4836 17.4053 98.5311 15.8219L97.697 15.2701C96.5659 16.98 95.7962 18.9703 95.3803 21.2316L96.3638 21.4124ZM98.5311 15.8219C99.5833 14.2313 100.834 13.0214 102.28 12.1779L101.776 11.3141C100.182 12.2439 98.8235 13.5674 97.697 15.2701L98.5311 15.8219ZM102.277 12.1797C103.75 11.3342 105.286 10.916 106.892 10.916V9.916C105.103 9.916 103.396 10.3844 101.779 11.3123L102.277 12.1797ZM106.892 10.916C108.297 10.916 109.417 11.1947 110.281 11.7177L110.799 10.8622C109.738 10.2199 108.425 9.916 106.892 9.916V10.916ZM110.281 11.7177C111.155 12.2469 111.75 12.9478 112.087 13.8255L113.021 13.4665C112.598 12.3682 111.85 11.4985 110.799 10.8622L110.281 11.7177ZM113.046 13.7343L113.578 10.7703L112.594 10.5937L112.062 13.5577L113.046 13.7343ZM113.086 11.182H120.534V10.182H113.086V11.182ZM120.042 10.5951L116.28 31.9131L117.264 32.0869L121.026 10.7689L120.042 10.5951ZM116.772 31.5H109.324V32.5H116.772V31.5ZM109.816 32.0883L110.348 29.1243L109.364 28.9477L108.832 31.9117L109.816 32.0883ZM109.455 28.7376C108.771 29.6568 107.873 30.3925 106.748 30.9429L107.188 31.8411C108.445 31.2261 109.471 30.3912 110.257 29.3344L109.455 28.7376ZM106.748 30.9429C105.632 31.4892 104.391 31.766 103.016 31.766V32.766C104.529 32.766 105.923 32.4602 107.188 31.8411L106.748 30.9429ZM103.016 31.766C100.908 31.766 99.2632 31.0773 98.0272 29.7247L97.2889 30.3993C98.7383 31.9853 100.665 32.766 103.016 32.766V31.766ZM98.03 29.7279C96.7904 28.348 96.144 26.4522 96.144 23.982H95.144C95.144 26.6292 95.8403 28.7867 97.2861 30.3961L98.03 29.7279ZM96.144 23.982C96.144 23.1761 96.2173 22.3164 96.3656 21.402L95.3785 21.242C95.2228 22.2023 95.144 23.1159 95.144 23.982H96.144ZM111.714 21.4201C111.796 21.0133 111.838 20.6254 111.838 20.258H110.838C110.838 20.5492 110.804 20.8707 110.734 21.2239L111.714 21.4201ZM111.838 20.258C111.838 19.0958 111.503 18.1274 110.772 17.427L110.08 18.149C110.565 18.6139 110.838 19.2922 110.838 20.258H111.838ZM110.78 17.4344C110.09 16.7449 109.196 16.414 108.146 16.414V17.414C108.971 17.414 109.597 17.6658 110.072 18.1416L110.78 17.4344ZM108.146 16.414C106.901 16.414 105.784 16.8569 104.813 17.7177L105.476 18.4663C106.277 17.7564 107.162 17.414 108.146 17.414V16.414ZM104.819 17.7124C103.825 18.5643 103.222 19.7569 102.979 21.2413L103.965 21.4027C104.179 20.1004 104.69 19.1397 105.469 18.4716L104.819 17.7124ZM102.982 21.2239C102.9 21.6333 102.858 22.0335 102.858 22.424H103.858C103.858 22.1051 103.892 21.7707 103.962 21.4201L102.982 21.2239ZM102.858 22.424C102.858 23.5803 103.177 24.546 103.878 25.2476L104.586 24.5404C104.122 24.0767 103.858 23.3957 103.858 22.424H102.858ZM103.886 25.255C104.598 25.9373 105.5 26.268 106.55 26.268V25.268C105.726 25.268 105.082 25.0161 104.578 24.533L103.886 25.255ZM106.55 26.268C107.795 26.268 108.912 25.8251 109.884 24.9643L109.221 24.2157C108.419 24.9256 107.534 25.268 106.55 25.268V26.268ZM109.884 24.9643C110.872 24.0887 111.475 22.8869 111.717 21.4027L110.731 21.2413C110.517 22.5437 110.005 23.5206 109.221 24.2157L109.884 24.9643ZM133.48 3.88L133.973 3.96716L134.076 3.38H133.48V3.88ZM128.502 32V32.5H128.921L128.995 32.0872L128.502 32ZM121.016 32L120.524 31.9128L120.42 32.5H121.016V32ZM125.994 3.88V3.38H125.575L125.502 3.79284L125.994 3.88ZM132.988 3.79284L128.01 31.9128L128.995 32.0872L133.973 3.96716L132.988 3.79284ZM128.502 31.5H121.016V32.5H128.502V31.5ZM121.509 32.0872L126.487 3.96716L125.502 3.79284L120.524 31.9128L121.509 32.0872ZM125.994 4.38H133.48V3.38H125.994V4.38ZM137.836 7.832L137.504 8.20656L137.511 8.21262L137.836 7.832ZM137.494 3.348L137.073 3.07761L137.071 3.08159L137.494 3.348ZM139.318 1.676L139.553 2.11721L139.558 2.1144L139.318 1.676ZM144.676 1.942L144.336 2.3094L144.344 2.31616L144.351 2.32262L144.676 1.942ZM145.018 6.464L144.601 6.18655L144.595 6.19759L145.018 6.464ZM143.194 8.098L143.423 8.54231L143.423 8.54231L143.194 8.098ZM143.954 10.682L144.446 10.7689L144.55 10.182H143.954V10.682ZM140.192 32V32.5H140.611L140.684 32.0869L140.192 32ZM132.706 32L132.213 31.9123L132.109 32.5H132.706V32ZM136.506 10.682V10.182H136.087L136.013 10.5943L136.506 10.682ZM140.61 8.206C139.527 8.206 138.729 7.9365 138.16 7.45138L137.511 8.21262C138.31 8.89283 139.361 9.206 140.61 9.206V8.206ZM138.167 7.4575C137.62 6.97367 137.348 6.36481 137.348 5.59H136.348C136.348 6.63919 136.734 7.52499 137.504 8.2065L138.167 7.4575ZM137.348 5.59C137.348 4.87331 137.536 4.21838 137.917 3.61441L137.071 3.08159C136.589 3.84562 136.348 4.68535 136.348 5.59H137.348ZM137.914 3.61838C138.323 2.98245 138.867 2.48323 139.553 2.11718L139.082 1.23482C138.249 1.67943 137.576 2.29488 137.073 3.07762L137.914 3.61838ZM139.558 2.1144C140.264 1.72715 141.055 1.53 141.94 1.53V0.529998C140.899 0.529998 139.942 0.763514 139.077 1.23759L139.558 2.1144ZM141.94 1.53C143.018 1.53 143.795 1.80978 144.336 2.3094L145.015 1.5746C144.239 0.858221 143.192 0.529998 141.94 0.529998V1.53ZM144.351 2.32262C144.918 2.80569 145.202 3.42392 145.202 4.222H146.202C146.202 3.14541 145.801 2.24364 145 1.56138L144.351 2.32262ZM145.202 4.222C145.202 4.93249 145.004 5.58355 144.602 6.18665L145.434 6.74135C145.944 5.97644 146.202 5.13284 146.202 4.222H145.202ZM144.595 6.19759C144.216 6.7991 143.678 7.28535 142.964 7.65369L143.423 8.54231C144.28 8.09998 144.958 7.49689 145.441 6.7304L144.595 6.19759ZM142.964 7.65369C142.254 8.02021 141.472 8.206 140.61 8.206V9.206C141.622 9.206 142.562 8.98645 143.423 8.54231L142.964 7.65369ZM143.461 10.5951L139.699 31.9131L140.684 32.0869L144.446 10.7689L143.461 10.5951ZM140.192 31.5H132.706V32.5H140.192V31.5ZM133.198 32.0877L136.998 10.7697L136.013 10.5943L132.213 31.9123L133.198 32.0877ZM136.506 11.182H143.954V10.182H136.506V11.182ZM145.193 31.43L144.862 31.8046L144.869 31.8106L145.193 31.43ZM144.851 26.908L144.43 26.6376L144.428 26.6416L144.851 26.908ZM146.713 25.236L146.942 25.6805L146.953 25.6744L146.713 25.236ZM152.033 25.502L151.694 25.8694L151.701 25.8762L151.709 25.8826L152.033 25.502ZM151.577 31.012L151.91 31.3846L151.911 31.3841L151.577 31.012ZM147.967 31.804C146.885 31.804 146.087 31.5345 145.517 31.0494L144.869 31.8106C145.667 32.4908 146.719 32.804 147.967 32.804V31.804ZM145.524 31.0555C144.981 30.5746 144.705 29.9548 144.705 29.15H143.705C143.705 30.2199 144.088 31.1201 144.862 31.8045L145.524 31.0555ZM144.705 29.15C144.705 28.4333 144.894 27.7784 145.274 27.1744L144.428 26.6416C143.947 27.4056 143.705 28.2454 143.705 29.15H144.705ZM145.272 27.1784C145.678 26.5464 146.231 26.0474 146.942 25.6803L146.484 24.7917C145.624 25.2352 144.936 25.8509 144.43 26.6376L145.272 27.1784ZM146.953 25.6744C147.66 25.2872 148.45 25.09 149.335 25.09V24.09C148.295 24.09 147.337 24.3235 146.473 24.7976L146.953 25.6744ZM149.335 25.09C150.385 25.09 151.151 25.368 151.694 25.8694L152.372 25.1346C151.598 24.42 150.565 24.09 149.335 24.09V25.09ZM151.709 25.8826C152.276 26.3657 152.559 26.9839 152.559 27.782H153.559C153.559 26.7054 153.158 25.8036 152.357 25.1214L151.709 25.8826ZM152.559 27.782C152.559 28.8991 152.131 29.8429 151.243 30.6399L151.911 31.3841C152.999 30.4078 153.559 29.1982 153.559 27.782H152.559ZM151.244 30.6394C150.384 31.4089 149.304 31.804 147.967 31.804V32.804C149.519 32.804 150.845 32.3378 151.91 31.3846L151.244 30.6394Z"/><defs><radialGradient id="paint0_radial" cx="0" cy="0" r="1" gradientTransform="translate(77 16.5) rotate(90) scale(26.5 87)" gradientUnits="userSpaceOnUse"><stop offset="0" stop-color="#C72B2B"/><stop offset="0" stop-color="snow"/><stop offset="1" stop-color="#F80C0C"/></radialGradient><radialGradient id="paint1_radial" cx="0" cy="0" r="1" gradientTransform="translate(77 16.5) rotate(90) scale(26.5 87)" gradientUnits="userSpaceOnUse"><stop offset="0"/><stop offset="0" stop-color="snow"/><stop offset="1" stop-color="#fff"/></radialGradient><radialGradient id="paint2_radial" cx="0" cy="0" r="1" gradientTransform="translate(77 16.5) rotate(90) scale(26.5 87)" gradientUnits="userSpaceOnUse"><stop stop-color="#fff"/><stop offset="1" stop-color="#FE0000"/></radialGradient></defs></svg>