<svg xmlns="http://www.w3.org/2000/svg" width="107" height="95" fill="none" viewBox="0 0 107 95"><path fill="#2B323C" d="M106.057 94.9994H6.56868C5.9846 94.9994 5.59521 94.5691 5.59521 93.9235C5.59521 93.278 5.9846 92.8477 6.56868 92.8477H105.96C106.544 92.8477 106.933 93.278 106.933 93.9235C106.933 94.5691 106.544 94.9994 106.057 94.9994Z"/><path fill="url(#paint0_linear)" d="M78.0217 92.9566C70.6233 93.1718 61.7647 92.9566 55.5345 92.8491C49.3043 93.0642 40.4457 93.1718 33.0474 92.9566C40.3484 88.3304 42.8794 79.8309 43.2688 74.2363H67.7029C68.1896 79.8309 70.7207 88.4379 78.0217 92.9566Z"/><path fill="#353B4A" d="M101.677 3.01246V73.375C101.677 75.0964 100.411 76.3875 98.9513 76.3875H12.4098C10.9496 76.3875 9.68408 74.9888 9.68408 73.375V3.01246C9.68408 1.39864 10.9496 0 12.4098 0H98.9513C100.509 0 101.677 1.39864 101.677 3.01246Z"/><path fill="#262A31" d="M101.677 3.01246V63.5845H9.68408V3.01246C9.68408 1.39864 10.9496 0 12.4098 0H98.9513C100.509 0 101.677 1.39864 101.677 3.01246Z"/><path fill="#474E61" d="M98.1722 3.76562H12.7988V60.1417H98.1722V3.76562Z"/><path fill="#262A31" d="M55.5344 72.8377C56.7709 72.8377 57.7734 71.7298 57.7734 70.3632C57.7734 68.9966 56.7709 67.8887 55.5344 67.8887C54.2978 67.8887 53.2954 68.9966 53.2954 70.3632C53.2954 71.7298 54.2978 72.8377 55.5344 72.8377Z"/><path fill="#25292E" d="M41.7108 26.8975H16.3032V54.6552H41.7108V26.8975Z" opacity=".4"/><path fill="#646E87" d="M39.9589 28.7256H17.9585V52.8253H39.9589V28.7256Z"/><path fill="#282C35" d="M25.5516 28.7256L17.9585 46.6928V37.8706L21.8524 28.7256H25.5516Z" opacity=".4"/><path fill="#282C35" d="M37.4278 28.7256L27.3037 52.8253H23.7992L23.6045 52.7177L33.7286 28.7256H37.4278Z" opacity=".4"/><path fill="#282C35" d="M39.9583 29.6939L30.2236 52.8253H28.374L38.4981 28.7256L39.9583 29.6939Z" opacity=".4"/><path fill="#25292E" d="M95.0565 26.8975H69.6489V54.6552H95.0565V26.8975Z" opacity=".4"/><path fill="#646E87" d="M93.3046 28.7256H71.3042V52.8253H93.3046V28.7256Z"/><path fill="#282C35" d="M78.8973 28.7256L71.3042 46.6928V37.8706L75.1981 28.7256H78.8973Z" opacity=".4"/><path fill="#282C35" d="M90.7735 28.7256L80.6494 52.8253H77.1449L76.9502 52.7177L87.0743 28.7256H90.7735Z" opacity=".4"/><path fill="#282C35" d="M93.3045 29.6939L83.5698 52.8253H81.7202L91.8443 28.7256L93.3045 29.6939Z" opacity=".4"/><path fill="#25292E" d="M46.189 26.8975V62.0787H65.0743V26.8975H46.189Z" opacity=".4"/><path fill="#646E87" d="M63.4198 28.7256H47.8442V44.7562H63.4198V28.7256Z"/><path fill="#646E87" d="M63.4198 46.6934H47.8442V60.2494H63.4198V46.6934Z"/><path fill="#646E87" d="M47.2599 46.1553C47.5824 46.1553 47.8439 45.8663 47.8439 45.5098C47.8439 45.1533 47.5824 44.8643 47.2599 44.8643C46.9373 44.8643 46.6758 45.1533 46.6758 45.5098C46.6758 45.8663 46.9373 46.1553 47.2599 46.1553Z"/><path fill="#282C35" d="M55.1453 28.7256L48.4283 44.7562H47.8442V37.8706L51.7381 28.7256H55.1453Z" opacity=".4"/><path fill="#282C35" d="M57.5786 28.7256L50.7644 44.7562H49.5962L56.3131 28.7256H57.5786Z" opacity=".4"/><path fill="#282C35" d="M63.4196 31.416V36.3651L59.8177 44.7569H57.7734L63.4196 31.416Z" opacity=".4"/><path fill="#282C35" d="M54.5612 46.6934L49.4018 60.2494H47.8442V57.9901L52.2249 46.6934H54.5612Z" opacity=".4"/><path fill="#282C35" d="M63.4198 49.167L59.2339 60.2486H60.3047L63.4198 52.0719V49.167Z" opacity=".4"/><path fill="#282C35" d="M61.7641 46.6934L56.6047 60.2494H55.1445L60.3039 46.6934H61.7641Z" opacity=".4"/><path fill="#6E8EFF" d="M4.45814 63.6597C5.40226 63.6597 6.24147 62.8532 6.24147 61.701C6.24147 60.664 5.50716 59.7422 4.45814 59.7422C3.51402 59.7422 2.6748 60.5487 2.6748 61.701C2.77971 62.738 3.51402 63.6597 4.45814 63.6597Z"/><path fill="url(#paint1_linear)" d="M105.663 28.402C106.415 28.402 107 27.7593 107 26.9329C107 26.1066 106.415 25.4639 105.663 25.4639C104.91 25.4639 104.325 26.1066 104.325 26.9329C104.325 27.7593 104.91 28.402 105.663 28.402Z"/><path fill="url(#paint2_linear)" d="M98.1722 3.76562H12.7988V40.4531H98.1722V3.76562Z" opacity=".5"/><path fill="#6E8EFF" d="M106.933 12.2652V11.9425C106.933 11.5121 106.836 11.1894 106.739 10.759C106.544 10.2211 106.252 9.79072 105.765 9.36037L98.4641 3.6582H12.7988L1.70119 9.46796C1.11711 9.79072 0.727723 10.2211 0.435682 10.759C0.143641 11.1894 0.0462943 11.7273 0.0462943 12.2652C-0.440441 16.9991 2.9667 21.6254 7.63936 21.6254C11.8253 21.6254 15.3871 17.3219 15.3871 12.588C15.3871 17.3219 18.6396 21.6254 22.9228 21.6254C27.2061 21.6254 30.6133 17.3219 30.6133 12.588C30.6133 17.3219 33.9231 21.6254 38.2063 21.6254C42.1976 21.6254 45.6288 17.7522 45.9208 13.2335C46.4076 18.075 49.9853 21.733 53.4898 21.733C57.6757 21.733 61.0829 17.9674 61.1802 13.2335C61.1802 13.3411 61.1802 13.4487 61.1802 13.5563V13.2335C63.2245 25.7137 76.3663 22.7013 76.3663 12.8032C76.3663 13.0184 76.3663 13.1259 76.3663 13.3411C76.3663 13.3411 76.3663 13.3411 76.3663 13.4487C76.3663 13.1259 76.6833 12.5652 76.6833 12.2425C76.6833 16.546 79.3841 20.6571 83.0833 21.3026C84.3488 21.5178 85.517 21.4102 86.7825 20.9799C86.9772 20.8723 87.1719 20.8723 87.3666 20.7647C89.3135 19.904 90.8711 18.1826 91.5525 15.7081C91.5525 15.6005 91.6498 15.4929 91.6498 15.2777C91.7472 14.9549 91.7472 14.7398 91.8445 14.417C92.6233 18.2902 95.6411 21.4102 99.2429 21.4102C104.208 21.733 107.517 16.6763 106.933 12.2652Z"/><path fill="#586178" d="M92.0396 13.0182C92.0396 13.5561 92.0396 14.0941 91.9422 14.632C91.9422 14.9548 91.8449 15.17 91.7475 15.4927C91.7475 15.6003 91.6502 15.7079 91.6502 15.9231C90.9687 18.1824 89.4112 20.0114 87.4643 20.9797C87.2696 21.0873 87.0749 21.1949 86.8802 21.1949C86.1014 21.5176 85.2253 21.6252 84.4465 21.6252C84.0571 21.6252 83.6677 21.6252 83.2783 21.5176C79.5791 20.7645 76.6587 16.8914 76.6587 12.5878C76.6587 13.0182 76.6587 13.341 76.5614 13.6637V13.7713V13.5561L76.6587 10.3285L73.4463 3.76562H85.8094L87.2696 5.48703L92.1369 10.6513L92.0396 13.0182Z"/><path fill="#586178" d="M30.7104 10.3295L30.8078 13.7723C30.8078 13.3419 30.7104 13.0192 30.7104 12.5888C30.7104 17.3227 27.2059 21.6262 23.02 21.6262C18.8341 21.6262 15.3296 17.753 15.3296 13.0192C15.3296 13.2343 15.3296 13.3419 15.3296 13.5571L15.4269 10.6522L20.2943 5.48801L21.9492 3.7666H33.9229L30.7104 10.3295Z"/><path fill="#586178" d="M45.7993 10.5437V13.9865C45.7993 13.5561 45.8967 13.2334 45.8967 12.803C45.8967 17.5369 49.4012 21.8404 53.5871 21.8404C57.773 21.8404 61.2775 17.9672 61.2775 13.2334C61.2775 13.4485 61.2775 13.5561 61.2775 13.7713L61.1801 10.8664L59.8173 5.70221L59.2332 3.76562H47.5516L45.7993 10.5437Z"/><path fill="url(#paint3_linear)" d="M106.739 10.7588H0.436035C0.728076 10.2209 1.11746 9.79055 1.70155 9.46779L12.7991 3.76562H98.4645L105.765 9.46779C106.252 9.79055 106.544 10.2209 106.739 10.7588Z" opacity=".3"/><g clip-path="url(#clip0)"><path fill="#DB1A74" d="M83.9072 91.4854L86.8321 93.5667C88.0565 94.4371 89.655 94.0208 90.4032 92.6585L102.375 71.732C103.055 70.521 103.259 69.0073 102.919 67.645L101.321 61.2119L98.9399 60.9092"/><path fill="#E9368B" d="M77.479 86.68L81.3222 90.6912C82.3765 91.7886 84.009 91.7129 84.9953 90.5398L100.232 72.4136C101.116 71.354 101.558 69.9539 101.456 68.5159L100.912 61.2124L98.1574 60.9854"/><path fill="url(#paint4_linear)" d="M100.47 61.2123L99.1437 69.651C98.9056 71.089 98.1574 72.3378 97.0691 73.0946L78.2272 86.3393C77.0029 87.1718 75.4044 86.7934 74.6561 85.431L66.3916 70.9376C65.6434 69.5753 65.9835 67.7967 67.2078 66.9642L86.0497 53.6817C87.138 52.9249 88.4984 52.6978 89.7228 53.0762L97.4092 55.4603C98.9737 55.9522 100.096 57.3145 100.436 58.9796"/><path fill="#DB1A74" d="M74.18 84.6362L73.7719 84.3713C72.9557 83.8037 72.5475 82.8198 72.5816 81.8359"/><path fill="#262A31" d="M98.1234 61.2128C97.9534 61.5155 97.7153 61.8182 97.4432 62.0075C96.4569 62.6886 95.1645 62.3859 94.5523 61.2885C93.9402 60.191 94.2122 58.7531 95.1985 58.0719C96.1849 57.3908 97.4772 57.6935 98.0894 58.7909C98.1234 58.8287 98.1575 58.9044 98.1575 58.9423"/><path fill="#fff" d="M73.7719 74.1164C73.2958 73.2461 73.5679 71.9216 74.6902 71.1269C75.2004 70.7485 75.6765 70.635 76.0506 70.5971C76.4588 70.5593 76.7989 70.9755 76.7308 71.4675V71.5053C76.6628 71.8081 76.4247 72.073 76.1527 72.073C75.9826 72.073 75.7785 72.1486 75.5745 72.2622C75.2684 72.4892 75.1664 72.8676 75.3024 73.0947C75.7105 73.8515 77.7852 71.8459 78.8735 73.738C79.4177 74.7219 79.1456 76.0463 77.9212 76.9167C77.275 77.3708 76.6288 77.4843 76.1867 77.4843C75.7785 77.4843 75.5065 77.0681 75.5745 76.614V76.5761C75.6425 76.2356 75.9146 76.0085 76.2207 76.0085C76.4928 76.0085 76.7989 75.9707 77.0709 75.7436C77.4451 75.4787 77.5471 75.0246 77.377 74.7219C76.9009 74.0407 74.8603 76.0463 73.7719 74.1164Z"/><path fill="#fff" d="M81.1182 72.8676L81.2882 73.6622C81.3563 74.0407 81.2202 74.4191 80.9481 74.6083C80.472 74.9489 79.8598 74.6461 79.7578 74.0407L78.9075 69.4618C78.8055 68.8942 79.0095 68.2887 79.4857 67.986C79.9278 67.6832 80.506 67.6832 80.9141 68.0616L84.2812 70.8619C84.7233 71.2404 84.6893 71.9594 84.2131 72.2999C83.9411 72.4891 83.5669 72.4891 83.2949 72.2242L82.7167 71.6945L81.1182 72.8676ZM80.3359 69.4996L80.7781 71.4296L81.6964 70.7863L80.3359 69.4996Z"/><path fill="#fff" d="M85.7438 71.2404L82.989 66.3967C82.7849 66.0561 82.8869 65.602 83.193 65.375L83.3971 65.2236C83.7032 64.9965 84.1113 65.1101 84.3154 65.4506L86.322 68.9699L87.9545 67.8347C88.2606 67.6076 88.6687 67.7212 88.8728 68.0617L88.9068 68.1374C89.1109 68.478 89.0088 68.9321 88.7027 69.1591L85.7438 71.2404Z"/><path fill="#fff" d="M93.4642 64.9206C93.6683 65.2612 93.5663 65.7153 93.2602 65.9424L89.9612 68.2507L86.8662 62.7636L90.0972 60.4931C90.4033 60.2661 90.8114 60.3796 91.0155 60.7202C91.2196 61.0608 91.1175 61.5149 90.8114 61.7419L88.9068 63.1042L89.383 63.9746L90.7434 63.0285C91.0495 62.8393 91.4236 62.915 91.5937 63.2556C91.7637 63.5962 91.6957 64.0124 91.3896 64.2016L90.0292 65.1477L90.5734 66.0937L92.546 64.6936C92.8521 64.4665 93.2942 64.58 93.4642 64.9206Z"/><path fill="#474E61" d="M105.98 61.2119H96.5589C96.0147 61.2119 95.5386 60.72 95.5386 60.0767C95.5386 59.4712 95.9807 58.9414 96.5589 58.9414H106.014C106.558 58.9414 107.034 59.4334 107.034 60.0767C107 60.72 106.558 61.2119 105.98 61.2119Z"/></g><defs><linearGradient id="paint0_linear" x1="55.438" x2="55.438" y1="92.589" y2="75.754" gradientUnits="userSpaceOnUse"><stop stop-color="#474755"/><stop offset=".991" stop-color="#2F3338"/></linearGradient><linearGradient id="paint1_linear" x1="104.324" x2="107" y1="26.933" y2="26.933" gradientUnits="userSpaceOnUse"><stop stop-color="#FF66A9"/><stop offset="1" stop-color="#F53689"/></linearGradient><linearGradient id="paint2_linear" x1="55.496" x2="55.496" y1="38.134" y2="15.992" gradientUnits="userSpaceOnUse"><stop offset=".003" stop-color="#606673" stop-opacity="0"/><stop offset="1" stop-color="#373C47"/></linearGradient><linearGradient id="paint3_linear" x1="53.605" x2="53.605" y1="10.771" y2="3.674" gradientUnits="userSpaceOnUse"><stop offset=".003" stop-color="#3F5073" stop-opacity="0"/><stop offset="1" stop-color="#283247"/></linearGradient><linearGradient id="paint4_linear" x1="65.984" x2="100.471" y1="69.839" y2="69.839" gradientUnits="userSpaceOnUse"><stop stop-color="#FF66A9"/><stop offset="1" stop-color="#F53689"/></linearGradient><clipPath id="clip0"><rect width="41.017" height="41.134" fill="#fff" transform="translate(65.9834 52.8867)"/></clipPath></defs></svg>