<svg xmlns="http://www.w3.org/2000/svg" width="148" height="131" fill="none" viewBox="0 0 148 131"><path fill="#2A2E39" d="M31.0145 25.9577C32.7662 25.9577 34.1863 24.4574 34.1863 22.6068C34.1863 20.7561 32.7662 19.2559 31.0145 19.2559C29.2628 19.2559 27.8428 20.7561 27.8428 22.6068C27.8428 24.4574 29.2628 25.9577 31.0145 25.9577Z"/><path fill="#EAEEF9" d="M117.82 36.1862C119.572 36.1862 120.992 34.6859 120.992 32.8353C120.992 30.9846 119.572 29.4844 117.82 29.4844C116.068 29.4844 114.648 30.9846 114.648 32.8353C114.648 34.6859 116.068 36.1862 117.82 36.1862Z"/><path fill="#2A2E39" d="M37.4424 14.582C38.1339 14.582 38.6944 13.9898 38.6944 13.2593C38.6944 12.5287 38.1339 11.9365 37.4424 11.9365C36.751 11.9365 36.1904 12.5287 36.1904 13.2593C36.1904 13.9898 36.751 14.582 37.4424 14.582Z"/><path fill="#2A2E39" d="M114.148 21.9888C114.886 21.9888 115.483 21.3571 115.483 20.5779C115.483 19.7987 114.886 19.167 114.148 19.167C113.41 19.167 112.812 19.7987 112.812 20.5779C112.812 21.3571 113.41 21.9888 114.148 21.9888Z"/><path fill="#2A2E38" d="M73.7495 101C99.1031 101 119.656 79.2858 119.656 52.5C119.656 25.7142 99.1031 4 73.7495 4C48.3959 4 27.8428 25.7142 27.8428 52.5C27.8428 79.2858 48.3959 101 73.7495 101Z"/><g filter="url(#filter0_d)"><path fill="#474E61" d="M86.604 80.2773L46.7068 97.2964C46.0391 97.561 45.2879 97.2083 45.0375 96.591L22.0841 36.3628C21.8337 35.6574 22.1676 34.8637 22.7519 34.5992L62.649 17.5801C63.3167 17.3155 64.0679 17.6683 64.3183 18.2855L87.2717 78.4255C87.6056 79.2192 87.2717 80.0128 86.604 80.2773Z"/></g><path fill="#2C313D" d="M68.992 44.6524L35.6052 58.8496C35.2714 59.026 34.9375 58.8496 34.7706 58.4969C34.6036 58.1442 34.7706 57.7915 35.1044 57.6151L68.4077 43.4178C68.7416 43.2415 69.0754 43.4178 69.2424 43.7705C69.4093 44.1233 69.2424 44.476 68.992 44.6524Z"/><path fill="#2C313D" d="M70.2444 48.0918L36.9412 62.2891C36.6073 62.4655 36.2734 62.2891 36.1065 61.9364C35.9396 61.5836 36.1065 61.2309 36.4404 61.0545L69.7436 46.8573C70.0775 46.6809 70.4114 46.8573 70.5783 47.21C70.7452 47.5627 70.5783 47.9155 70.2444 48.0918Z"/><path fill="#2C313D" d="M71.5804 51.4421L38.2771 65.7276C37.9432 65.9039 37.6094 65.7276 37.4424 65.3748C37.2755 65.0221 37.4424 64.6694 37.7763 64.493L71.0796 50.2958C71.4134 50.1194 71.7473 50.2958 71.9142 50.6485C72.0812 50.913 71.9142 51.3539 71.5804 51.4421Z"/><path fill="#2C313D" d="M52.1321 63.7871L39.6121 69.1662C39.2782 69.3426 38.9443 69.1662 38.7774 68.8135C38.6105 68.4608 38.7774 68.108 39.1113 67.9317L51.6313 62.5526C51.9652 62.3762 52.299 62.5526 52.466 62.9053C52.5494 63.258 52.466 63.6108 52.1321 63.7871Z"/><path fill="url(#paint0_linear)" d="M75.9196 60.1722L77.0046 63.0822C77.1716 63.6113 77.0046 64.2286 76.5038 64.405L43.5344 78.514C43.0336 78.6904 42.4494 78.514 42.2824 77.985L41.1974 74.9868C41.0304 74.4577 41.1974 73.8404 41.6982 73.664L74.6676 59.6431C75.1684 59.4668 75.6692 59.7313 75.9196 60.1722Z" opacity=".3"/><path fill="url(#paint1_linear)" d="M78.5079 66.8744L79.593 69.7844C79.7599 70.3135 79.593 70.9307 79.0922 71.1071L46.1228 85.2162C45.622 85.3926 45.0377 85.2162 44.8708 84.6871L43.7022 81.6889C43.5353 81.1598 43.7022 80.5426 44.203 80.3662L77.1725 66.3453C77.6733 66.1689 78.2575 66.4335 78.5079 66.8744Z" opacity=".3"/><path fill="url(#paint2_linear)" d="M81.0114 73.5758L82.0964 76.4858C82.2634 77.0148 82.0964 77.6321 81.5956 77.8085L48.6262 91.9176C48.1254 92.0939 47.5412 91.9176 47.3742 91.3885L46.2892 88.4785C46.1222 87.9494 46.2892 87.3321 46.79 87.1558L79.7594 73.1348C80.2602 72.8703 80.8444 73.1348 81.0114 73.5758Z" opacity=".3"/><path fill="url(#paint3_linear)" d="M45.1203 72.2529L46.9566 77.1029L43.5344 78.5138C43.0336 78.6902 42.4494 78.5138 42.2824 77.9847L41.1974 74.9866C41.0304 74.4575 41.1974 73.8402 41.6982 73.6638L45.1203 72.2529Z"/><path fill="url(#paint4_linear)" d="M44.2862 80.3658L54.3022 76.0449L56.1385 80.8949L46.1224 85.2158C45.6216 85.3922 45.0374 85.2158 44.8704 84.6867L43.7019 81.6886C43.535 81.2477 43.7854 80.6304 44.2862 80.3658Z"/><path fill="url(#paint5_linear)" d="M46.79 87.0675L48.2089 86.4502L50.0452 91.3002L48.6262 91.9175C48.1254 92.0938 47.5412 91.9175 47.3742 91.3884L46.2892 88.4784C46.1222 87.9493 46.2892 87.332 46.79 87.0675Z"/><path fill="#2C313D" d="M47.2909 41.6541C47.2074 36.8041 43.4514 32.8359 38.7773 32.8359H38.6938C34.0197 32.8359 30.2637 36.8923 30.2637 41.8305C30.3471 46.7687 34.1866 50.7368 38.8608 50.7368C41.4482 50.7368 43.7018 49.5023 45.2877 47.6505C46.6232 46.0632 47.3744 44.035 47.3744 41.7423C47.2909 41.7423 47.2909 41.7423 47.2909 41.6541ZM38.8608 47.915C35.689 47.915 33.1015 45.1814 33.1015 41.8305C33.1015 38.4796 35.689 35.7459 38.8608 35.7459H38.9442C42.116 35.7459 44.62 38.3914 44.7034 41.6541C44.7034 41.7423 44.7034 41.7423 44.7034 41.8305C44.7034 43.3296 44.2026 44.7405 43.2845 45.7987C42.116 47.1214 40.6136 47.915 38.8608 47.915Z"/><path fill="url(#paint6_linear)" d="M47.291 41.6531H44.5366C44.5366 38.3904 41.9491 35.745 38.8608 35.745H38.7773V32.835H38.8608C43.4515 32.835 47.2075 36.8031 47.291 41.6531Z"/><g filter="url(#filter1_d)"><path fill="#474E61" d="M102.88 93.945L62.5658 78.0723C61.898 77.8078 61.5642 77.0141 61.8146 76.3087L83.1821 15.5514C83.4325 14.8459 84.1837 14.4932 84.8514 14.7578L125.166 30.5423C125.834 30.8068 126.168 31.6005 125.917 32.3059L104.55 93.1514C104.299 93.8568 103.548 94.2096 102.88 93.945Z"/></g><path fill="url(#paint7_linear)" d="M97.5384 42.0947L94.2832 40.772L96.9541 32.9238L100.209 34.1584L97.5384 42.0947Z" opacity=".4"/><path fill="url(#paint8_linear)" d="M101.962 43.7705L98.623 42.4478L102.713 30.4551L105.968 31.7778L101.962 43.7705Z"/><path fill="url(#paint9_linear)" d="M110.726 47.0318L107.471 45.7972L112.813 30.0127L116.151 31.2472L110.726 47.0318Z"/><path fill="url(#paint10_linear)" d="M114.9 48.6199L111.645 47.3854L113.063 43.0645L116.402 44.3872L114.9 48.6199Z" opacity=".4"/><path fill="#2C313D" d="M112.562 55.0578L78.8409 41.8306C78.5071 41.7424 78.3401 41.3015 78.4236 40.9487C78.5071 40.596 78.9244 40.4196 79.2583 40.5078L112.979 53.7351C113.313 53.8233 113.48 54.2642 113.396 54.6169C113.229 54.9696 112.895 55.146 112.562 55.0578Z"/><path fill="#2C313D" d="M111.311 58.4963L77.59 45.269C77.2561 45.1808 77.0892 44.7399 77.1726 44.3872C77.2561 44.0345 77.6734 43.8581 78.0073 43.9463L111.728 57.1736C112.062 57.2618 112.229 57.7027 112.145 58.0554C112.062 58.4081 111.644 58.6727 111.311 58.4963Z"/><path fill="#2C313D" d="M110.142 61.9348L76.421 48.7075C76.0872 48.6193 75.9202 48.1784 76.0037 47.8257C76.0872 47.473 76.5045 47.2966 76.8384 47.3848L110.559 60.612C110.893 60.7002 111.06 61.1411 110.976 61.4939C110.809 61.9348 110.475 62.1111 110.142 61.9348Z"/><path fill="#2C313D" d="M87.94 57.173L75.2531 52.2348C74.9192 52.1467 74.7523 51.7058 74.8357 51.353C74.9192 51.0003 75.3365 50.8239 75.6704 50.9121L88.3574 55.8503C88.6912 55.9385 88.8582 56.3794 88.7747 56.7321C88.6078 57.0848 88.2739 57.2612 87.94 57.173Z"/><path fill="url(#paint11_linear)" d="M107.804 71.4586L106.803 74.4568C106.636 74.9859 106.052 75.2504 105.551 75.0741L98.3727 72.2523L72.1641 61.935C71.6633 61.7586 71.4129 61.1413 71.5798 60.6123L72.5814 57.6141C72.7484 57.085 73.3326 56.8204 73.8334 56.9968L99.8751 67.2259L107.137 70.0477C107.721 70.4004 107.971 70.9295 107.804 71.4586Z" opacity=".3"/><path fill="url(#paint12_linear)" d="M105.384 78.2484L104.382 81.2465C104.216 81.7756 103.631 82.0402 103.13 81.8638L100.71 80.8938L69.8272 68.8129C69.3264 68.6365 69.076 68.0193 69.2429 67.4902L70.2445 64.492C70.4114 63.9629 70.9957 63.6984 71.4965 63.8747L102.463 76.0438L104.8 77.0138C105.301 77.1902 105.551 77.7193 105.384 78.2484Z" opacity=".3"/><path fill="url(#paint13_linear)" d="M103.047 85.0384L102.046 88.0366C101.879 88.5657 101.294 88.8302 100.794 88.6539L88.4404 83.8039L67.4903 75.6029C66.9895 75.4266 66.7391 74.8093 66.906 74.2802L67.9076 71.282C68.0745 70.7529 68.6588 70.4884 69.1596 70.6648L90.6106 79.042L102.463 83.7157C102.964 83.892 103.214 84.5093 103.047 85.0384Z" opacity=".3"/><path fill="url(#paint14_linear)" d="M69.1596 70.6646L90.6106 79.0419L88.4404 83.7155L67.4903 75.5146C66.9895 75.3383 66.7391 74.721 66.906 74.1919L67.9076 71.1937C68.0745 70.7528 68.6588 70.4883 69.1596 70.6646Z"/><path fill="url(#paint15_linear)" d="M71.5798 60.7011L72.5814 57.7029C72.7484 57.1738 73.3326 56.9093 73.8334 57.0857L99.8751 67.3148L98.2057 72.1648L72.1641 61.9357C71.6633 61.7593 71.4129 61.2302 71.5798 60.7011Z"/><path fill="url(#paint16_linear)" d="M102.463 76.0438L100.71 80.8938L69.8272 68.8129C69.3264 68.6365 69.076 68.0193 69.2429 67.4902L70.2445 64.492C70.4114 63.9629 70.9957 63.6984 71.4965 63.8747L102.463 76.0438Z"/><path fill="#2C313D" d="M80.0934 59.5541L78.4241 64.4041L72.1641 61.935C71.6633 61.7586 71.4129 61.1413 71.5798 60.6123L72.5814 57.6141C72.7484 57.085 73.3326 56.8204 73.8334 56.9968L80.0934 59.5541Z"/><path fill="#2C313D" d="M71.4965 63.8756L77.7565 66.3446L76.0872 71.1946L69.8272 68.7256C69.3264 68.5492 69.076 67.9319 69.2429 67.4028L70.2445 64.4046C70.4949 63.9637 70.9957 63.6992 71.4965 63.8756Z"/><path fill="#2C313D" d="M69.1596 70.6646L75.4196 73.1337L73.7503 77.9837L67.4903 75.5146C66.9895 75.3383 66.7391 74.721 66.906 74.1919L67.9076 71.1937C68.0745 70.7528 68.6588 70.4883 69.1596 70.6646Z"/><g filter="url(#filter2_d)"><path fill="#474E61" d="M95.7013 79.2192H52.7159C52.0481 79.2192 51.4639 78.6019 51.4639 77.8964V12.9946C51.4639 12.2891 52.0481 11.6719 52.7159 11.6719H95.7013C96.369 11.6719 96.9533 12.2891 96.9533 12.9946V77.8082C97.0368 78.6019 96.4525 79.2192 95.7013 79.2192Z"/></g><path fill="#2C313D" d="M91.9452 36.6269H56.0545C55.7206 36.6269 55.3867 36.3625 55.3867 35.9218C55.3867 35.5693 55.6371 35.2168 56.0545 35.2168H91.9452C92.2791 35.2168 92.6129 35.4812 92.6129 35.9218C92.6129 36.2744 92.2791 36.6269 91.9452 36.6269Z"/><path fill="#2C313D" d="M91.9452 40.2421H56.0545C55.7206 40.2421 55.3867 39.9777 55.3867 39.5371C55.3867 39.1846 55.6371 38.832 56.0545 38.832H91.9452C92.2791 38.832 92.6129 39.0964 92.6129 39.5371C92.6129 39.9777 92.2791 40.2421 91.9452 40.2421Z"/><path fill="#2C313D" d="M91.9452 43.9462H56.0545C55.7206 43.9462 55.3867 43.6818 55.3867 43.2412C55.3867 42.8887 55.6371 42.5361 56.0545 42.5361H91.9452C92.2791 42.5361 92.6129 42.8005 92.6129 43.2412C92.6129 43.6818 92.2791 43.9462 91.9452 43.9462Z"/><path fill="#2C313D" d="M91.8622 57.79H79.7595C79.4257 57.79 79.0918 57.5256 79.0918 57.0849C79.0918 56.7324 79.3422 56.3799 79.7595 56.3799H91.8622C92.1961 56.3799 92.53 56.6443 92.53 57.0849C92.4465 57.4375 92.1961 57.79 91.8622 57.79Z"/><path fill="#2C313D" d="M72.33 61.5828C72.2465 56.7328 68.4905 52.7646 63.8164 52.7646H63.7329C59.0587 52.7646 55.3027 56.821 55.3027 61.7592C55.3027 66.6974 59.1422 70.7537 63.8164 70.7537C66.4038 70.7537 68.6574 69.5192 70.2433 67.6674C71.5788 66.0801 72.33 64.0519 72.33 61.7592C72.33 61.671 72.33 61.5828 72.33 61.5828ZM63.8164 67.7556C60.6446 67.7556 58.0571 65.0219 58.0571 61.671C58.0571 58.3201 60.6446 55.5865 63.8164 55.5865H63.8998C67.0716 55.5865 69.5756 58.2319 69.659 61.4947C69.659 61.5828 69.659 61.5828 69.659 61.671C69.659 63.1701 69.1582 64.581 68.2401 65.6392C67.0716 66.9619 65.5692 67.7556 63.8164 67.7556Z"/><path fill="url(#paint17_linear)" d="M72.3305 61.5828H69.5761C69.4926 58.3201 66.9886 55.6746 63.8169 55.6746H63.7334V52.7646H63.8169C68.491 52.7646 72.247 56.6446 72.3305 61.5828Z"/><path fill="url(#paint18_linear)" d="M72.3306 61.6712C72.3306 63.9639 71.5794 65.9921 70.2439 67.5794L68.1572 65.7276C69.0754 64.6694 69.5762 63.2585 69.5762 61.7594C69.5762 61.6712 69.5762 61.6712 69.5762 61.583H72.3306V61.6712Z"/><path fill="#2C313D" d="M76.8381 58.0552C77.3451 58.0552 77.7562 57.621 77.7562 57.0852C77.7562 56.5495 77.3451 56.1152 76.8381 56.1152C76.331 56.1152 75.9199 56.5495 75.9199 57.0852C75.9199 57.621 76.331 58.0552 76.8381 58.0552Z"/><path fill="#2C313D" d="M91.8622 61.8466H79.7595C79.4257 61.8466 79.0918 61.5822 79.0918 61.1416C79.0918 60.789 79.3422 60.4365 79.7595 60.4365H91.8622C92.1961 60.4365 92.53 60.7009 92.53 61.1416C92.4465 61.4941 92.1961 61.8466 91.8622 61.8466Z"/><path fill="url(#paint19_linear)" d="M76.8381 62.1119C77.3451 62.1119 77.7562 61.6776 77.7562 61.1419C77.7562 60.6062 77.3451 60.1719 76.8381 60.1719C76.331 60.1719 75.9199 60.6062 75.9199 61.1419C75.9199 61.6776 76.331 62.1119 76.8381 62.1119Z"/><path fill="#2C313D" d="M91.8622 65.9033H79.7595C79.4257 65.9033 79.0918 65.6389 79.0918 65.1982C79.0918 64.8457 79.3422 64.4932 79.7595 64.4932H91.8622C92.1961 64.4932 92.53 64.7576 92.53 65.1982C92.4465 65.5507 92.1961 65.9033 91.8622 65.9033Z"/><path fill="url(#paint20_linear)" d="M76.8381 66.1685C77.3451 66.1685 77.7562 65.7342 77.7562 65.1985C77.7562 64.6628 77.3451 64.2285 76.8381 64.2285C76.331 64.2285 75.9199 64.6628 75.9199 65.1985C75.9199 65.7342 76.331 66.1685 76.8381 66.1685Z"/><path fill="url(#paint21_linear)" d="M93.6151 89.8004C93.6151 93.8568 90.5268 97.1195 86.6873 97.1195C86.6873 97.1195 86.6038 97.1195 84.7676 97.1195C84.0164 97.1195 83.0982 97.1195 81.7628 97.1195C78.4241 97.1195 72.9153 97.1195 63.7339 97.1195C59.1432 97.2958 55.4707 93.3277 55.4707 88.654C55.4707 83.8922 59.1432 80.0122 63.8174 80.1886C67.8238 66.9613 86.103 68.8131 87.6889 82.4813C91.0276 83.0104 93.6151 86.0968 93.6151 89.8004Z"/><path fill="url(#paint22_linear)" d="M86.6875 97.1196C90.5136 97.1196 93.6153 93.8428 93.6153 89.8005C93.6153 85.7583 90.5136 82.4814 86.6875 82.4814C82.8614 82.4814 79.7598 85.7583 79.7598 89.8005C79.7598 93.8428 82.8614 97.1196 86.6875 97.1196Z"/><path fill="url(#paint23_linear)" d="M75.419 97.1198C82.1954 97.1198 87.6887 91.3162 87.6887 84.1571C87.6887 76.998 82.1954 71.1943 75.419 71.1943C68.6427 71.1943 63.1494 76.998 63.1494 84.1571C63.1494 91.3162 68.6427 97.1198 75.419 97.1198Z"/><path fill="url(#paint24_linear)" d="M90.1927 94.0334L84.7674 97.1198C84.0162 97.1198 83.0981 97.1198 81.7626 97.1198L74.501 89.448L75.9199 88.478L75.4191 82.3934L78.09 81.2471L90.1927 94.0334Z"/><path fill="url(#paint25_linear)" d="M74.752 79.2188L70.7456 83.4516C70.3283 83.8925 70.3283 84.5979 70.7456 85.0388C71.163 85.4798 71.8307 85.4798 72.1646 85.0388L74.4182 82.6579V89.007C74.4182 89.6243 74.919 90.0652 75.4198 90.0652C76.004 90.0652 76.4214 89.5361 76.4214 89.007V82.6579L78.675 85.0388C79.0923 85.4798 79.76 85.4798 80.1774 85.0388C80.5947 84.5979 80.5947 83.8925 80.1774 83.5398L76.171 79.307C75.8371 78.7779 75.1694 78.7779 74.752 79.2188Z"/><path fill="url(#paint26_linear)" d="M55.6377 31.7777H92.53V15.9932L86.6874 19.0795L83.5991 21.3723L78.0903 21.2841L73.2492 23.9295L69.0759 24.5468L67.5735 26.3104L63.2332 29.2204L58.9764 30.0141L55.6377 31.7777Z"/><path fill="#2C313D" d="M55.6377 31.7769H92.53V19.7842L86.6874 22.0769L83.5991 23.8405L78.0903 23.7524L73.2492 25.7805L69.0759 26.3096L67.5735 27.5442L63.2332 29.8369L58.9764 30.4542L55.6377 31.7769Z"/><path fill="#1B2532" d="M55.6377 31.7773H92.53V24.9873L86.6874 26.31L83.5991 27.28H78.0903L73.2492 28.3382L69.0759 28.6909L67.5735 29.3964L63.2332 30.6309L58.9764 30.9837L55.6377 31.7773Z"/><defs><filter id="filter0_d" width="109.403" height="123.894" x="0" y="6.491" color-interpolation-filters="sRGB" filterUnits="userSpaceOnUse"><feFlood flood-opacity="0" result="BackgroundImageFix"/><feColorMatrix in="SourceAlpha" type="matrix" values="0 0 0 0 0 0 0 0 0 0 0 0 0 0 0 0 0 0 127 0"/><feOffset dy="11"/><feGaussianBlur stdDeviation="11"/><feColorMatrix type="matrix" values="0 0 0 0 0 0 0 0 0 0 0 0 0 0 0 0 0 0 0.18 0"/><feBlend in2="BackgroundImageFix" mode="normal" result="effect1_dropShadow"/><feBlend in="SourceGraphic" in2="effect1_dropShadow" mode="normal" result="shape"/></filter><filter id="filter1_d" width="108.269" height="123.363" x="39.731" y="3.67" color-interpolation-filters="sRGB" filterUnits="userSpaceOnUse"><feFlood flood-opacity="0" result="BackgroundImageFix"/><feColorMatrix in="SourceAlpha" type="matrix" values="0 0 0 0 0 0 0 0 0 0 0 0 0 0 0 0 0 0 127 0"/><feOffset dy="11"/><feGaussianBlur stdDeviation="11"/><feColorMatrix type="matrix" values="0 0 0 0 0 0 0 0 0 0 0 0 0 0 0 0 0 0 0.18 0"/><feBlend in2="BackgroundImageFix" mode="normal" result="effect1_dropShadow"/><feBlend in="SourceGraphic" in2="effect1_dropShadow" mode="normal" result="shape"/></filter><filter id="filter2_d" width="89.497" height="111.547" x="29.464" y=".672" color-interpolation-filters="sRGB" filterUnits="userSpaceOnUse"><feFlood flood-opacity="0" result="BackgroundImageFix"/><feColorMatrix in="SourceAlpha" type="matrix" values="0 0 0 0 0 0 0 0 0 0 0 0 0 0 0 0 0 0 127 0"/><feOffset dy="11"/><feGaussianBlur stdDeviation="11"/><feColorMatrix type="matrix" values="0 0 0 0 0 0 0 0 0 0 0 0 0 0 0 0 0 0 0.18 0"/><feBlend in2="BackgroundImageFix" mode="normal" result="effect1_dropShadow"/><feBlend in="SourceGraphic" in2="effect1_dropShadow" mode="normal" result="shape"/></filter><linearGradient id="paint0_linear" x1="41.095" x2="77.095" y1="69.085" y2="69.085" gradientUnits="userSpaceOnUse"><stop stop-color="#83A6FF"/><stop offset="1" stop-color="#5A78FF"/></linearGradient><linearGradient id="paint1_linear" x1="43.656" x2="79.656" y1="75.785" y2="75.785" gradientUnits="userSpaceOnUse"><stop stop-color="#83A6FF"/><stop offset="1" stop-color="#5A78FF"/></linearGradient><linearGradient id="paint2_linear" x1="46.215" x2="82.216" y1="82.485" y2="82.485" gradientUnits="userSpaceOnUse"><stop stop-color="#83A6FF"/><stop offset="1" stop-color="#5A78FF"/></linearGradient><linearGradient id="paint3_linear" x1="41.095" x2="46.968" y1="75.429" y2="75.429" gradientUnits="userSpaceOnUse"><stop stop-color="#83A6FF"/><stop offset="1" stop-color="#5A78FF"/></linearGradient><linearGradient id="paint4_linear" x1="43.656" x2="56.08" y1="80.693" y2="80.693" gradientUnits="userSpaceOnUse"><stop stop-color="#83A6FF"/><stop offset="1" stop-color="#5A78FF"/></linearGradient><linearGradient id="paint5_linear" x1="46.215" x2="50.061" y1="89.256" y2="89.256" gradientUnits="userSpaceOnUse"><stop stop-color="#83A6FF"/><stop offset="1" stop-color="#5A78FF"/></linearGradient><linearGradient id="paint6_linear" x1="38.794" x2="47.321" y1="37.262" y2="37.262" gradientUnits="userSpaceOnUse"><stop stop-color="#83A6FF"/><stop offset="1" stop-color="#5A78FF"/></linearGradient><linearGradient id="paint7_linear" x1="94.256" x2="100.245" y1="37.488" y2="37.488" gradientUnits="userSpaceOnUse"><stop stop-color="#83A6FF"/><stop offset="1" stop-color="#5A78FF"/></linearGradient><linearGradient id="paint8_linear" x1="98.634" x2="106.006" y1="37.114" y2="37.114" gradientUnits="userSpaceOnUse"><stop stop-color="#83A6FF"/><stop offset="1" stop-color="#5A78FF"/></linearGradient><linearGradient id="paint9_linear" x1="107.44" x2="116.116" y1="38.533" y2="38.533" gradientUnits="userSpaceOnUse"><stop stop-color="#83A6FF"/><stop offset="1" stop-color="#5A78FF"/></linearGradient><linearGradient id="paint10_linear" x1="111.623" x2="116.387" y1="45.876" y2="45.876" gradientUnits="userSpaceOnUse"><stop stop-color="#83A6FF"/><stop offset="1" stop-color="#5A78FF"/></linearGradient><linearGradient id="paint11_linear" x1="71.553" x2="107.833" y1="66.076" y2="66.076" gradientUnits="userSpaceOnUse"><stop stop-color="#FF66A9"/><stop offset="1" stop-color="#F53689"/></linearGradient><linearGradient id="paint12_linear" x1="69.17" x2="105.45" y1="72.849" y2="72.849" gradientUnits="userSpaceOnUse"><stop stop-color="#FF66A9"/><stop offset="1" stop-color="#F53689"/></linearGradient><linearGradient id="paint13_linear" x1="66.787" x2="103.069" y1="79.622" y2="79.622" gradientUnits="userSpaceOnUse"><stop stop-color="#FF66A9"/><stop offset="1" stop-color="#F53689"/></linearGradient><linearGradient id="paint14_linear" x1="66.787" x2="90.56" y1="77.169" y2="77.169" gradientUnits="userSpaceOnUse"><stop stop-color="#FF66A9"/><stop offset="1" stop-color="#F53689"/></linearGradient><linearGradient id="paint15_linear" x1="71.553" x2="99.964" y1="64.634" y2="64.634" gradientUnits="userSpaceOnUse"><stop stop-color="#FF66A9"/><stop offset="1" stop-color="#F53689"/></linearGradient><linearGradient id="paint16_linear" x1="69.17" x2="102.444" y1="72.334" y2="72.334" gradientUnits="userSpaceOnUse"><stop stop-color="#FF66A9"/><stop offset="1" stop-color="#F53689"/></linearGradient><linearGradient id="paint17_linear" x1="63.771" x2="72.297" y1="57.135" y2="57.135" gradientUnits="userSpaceOnUse"><stop stop-color="#FF66A9"/><stop offset="1" stop-color="#F53689"/></linearGradient><linearGradient id="paint18_linear" x1="68.16" x2="72.3" y1="64.558" y2="64.558" gradientUnits="userSpaceOnUse"><stop stop-color="#83A6FF"/><stop offset="1" stop-color="#5A78FF"/></linearGradient><linearGradient id="paint19_linear" x1="75.978" x2="77.755" y1="61.139" y2="61.139" gradientUnits="userSpaceOnUse"><stop stop-color="#FF66A9"/><stop offset="1" stop-color="#F53689"/></linearGradient><linearGradient id="paint20_linear" x1="75.978" x2="77.755" y1="65.202" y2="65.202" gradientUnits="userSpaceOnUse"><stop stop-color="#83A6FF"/><stop offset="1" stop-color="#5A78FF"/></linearGradient><linearGradient id="paint21_linear" x1="74.524" x2="74.524" y1="71.099" y2="97.086" gradientUnits="userSpaceOnUse"><stop stop-color="#83A6FF"/><stop offset="1" stop-color="#5A78FF"/></linearGradient><linearGradient id="paint22_linear" x1="79.061" x2="85.565" y1="80.977" y2="87.693" gradientUnits="userSpaceOnUse"><stop stop-color="#83A6FF"/><stop offset="1" stop-color="#87A5FF" stop-opacity="0"/></linearGradient><linearGradient id="paint23_linear" x1="66.148" x2="70.435" y1="76.597" y2="79.725" gradientUnits="userSpaceOnUse"><stop stop-color="#83A6FF"/><stop offset="1" stop-color="#87A5FF" stop-opacity="0"/></linearGradient><linearGradient id="paint24_linear" x1="76.012" x2="84.556" y1="85.029" y2="93.117" gradientUnits="userSpaceOnUse"><stop stop-color="#4F6AFF"/><stop offset="1" stop-color="#657EFF" stop-opacity="0"/></linearGradient><linearGradient id="paint25_linear" x1="78.379" x2="72.231" y1="87.598" y2="81.778" gradientUnits="userSpaceOnUse"><stop offset=".011" stop-color="#C2D1FF"/><stop offset="1" stop-color="#fff"/></linearGradient><linearGradient id="paint26_linear" x1="55.67" x2="92.563" y1="23.882" y2="23.882" gradientUnits="userSpaceOnUse"><stop stop-color="#FF66A9"/><stop offset="1" stop-color="#F53689"/></linearGradient></defs></svg>