<svg width="64" height="64" viewBox="0 0 64 64" fill="none" xmlns="http://www.w3.org/2000/svg">
<rect x="4" y="4" width="56" height="56" fill="#FFCA28"/>
<path d="M38 50.5757L42.1231 47.8475C42.4462 48.8626 44.4923 51.2736 47.0769 51.2736C49.6615 51.2736 50.8615 49.8619 50.8615 48.9261C50.8615 46.3757 48.2223 45.4765 46.9547 45.0446C46.7481 44.9742 46.5779 44.9162 46.4615 44.8655C46.4019 44.8395 46.3116 44.805 46.1958 44.7608C44.7859 44.2221 39.5846 42.2349 39.5846 36.4747C39.5846 30.13 45.7077 29.4004 47.0923 29.4004C47.9982 29.4004 52.3538 29.5114 54.5231 33.5879L50.5231 36.3795C49.6462 34.603 48.1892 34.0161 47.2923 34.0161C45.0769 34.0161 44.6154 35.6403 44.6154 36.3795C44.6154 38.454 47.0223 39.3837 49.0547 40.1688C49.5864 40.3742 50.0925 40.5697 50.5231 40.7732C52.7385 41.8201 56 43.5331 56 48.9261C56 51.6273 53.7344 56.0004 48.0308 56.0004C40.3692 56.0004 38.3385 51.4005 38 50.5757Z" fill="#3E3E3E"/>
<path d="M18 51.1175L22.2973 48.3906C22.6341 49.4053 23.9425 51.276 25.8411 51.276C27.7396 51.276 28.7113 49.326 28.7113 48.3906V30.0004H33.9964V48.3906C34.0819 50.9272 32.6751 56.0004 26.4664 56.0004C20.758 56.0004 18.3848 52.6077 18 51.1175Z" fill="#3E3E3E"/>
</svg>
