<svg xmlns="http://www.w3.org/2000/svg" width="126" height="108" fill="none" viewBox="0 0 126 108"><g filter="url(#filter0_d)"><path fill="#3A4051" d="M103.804 40.0504C103.804 40.2645 103.804 40.4073 103.804 40.6214C103.804 40.9069 103.804 41.1924 103.734 41.4779C103.734 41.6207 103.734 41.692 103.663 41.8348C103.592 42.1203 103.592 42.4058 103.521 42.6913C103.521 42.8341 103.45 42.9054 103.45 43.0482C103.309 43.6192 103.096 44.2616 102.813 44.8326C102.742 44.9753 102.671 45.0467 102.671 45.1895C102.458 45.5464 102.246 45.9746 102.033 46.3315C101.962 46.4743 101.892 46.5456 101.821 46.6884C101.041 47.8304 100.049 48.8297 98.9158 49.6148C98.7741 49.6862 98.6324 49.8289 98.4907 49.9003C98.4199 49.9717 98.349 49.9717 98.2782 50.0431C98.2782 50.0431 98.2781 50.0431 98.2073 50.0431C98.0656 50.1145 97.853 50.2572 97.7113 50.3286C97.5696 50.4 97.4988 50.4713 97.3571 50.4713C97.2154 50.5427 97.1445 50.6141 97.0028 50.6141C96.7903 50.6855 96.5777 50.8282 96.2943 50.8996C96.1526 50.971 95.9401 51.0423 95.7984 51.0423C95.4441 51.1851 95.0899 51.2565 94.6648 51.3279C94.4522 51.3992 94.1688 51.3992 93.9563 51.4706C93.6729 51.4706 93.4603 51.542 93.1769 51.542C92.9644 51.542 92.7518 51.542 92.5393 51.542C92.4684 51.542 91.8308 51.542 87.934 51.542H84.7457C83.7538 51.542 82.6202 51.542 81.4158 51.542H80.7073C79.3611 51.542 77.8733 51.542 76.2437 51.542H54.7052C53.855 51.542 53.0048 51.542 52.2255 51.3992C52.0129 51.3279 51.7295 51.3279 51.517 51.2565C45.4947 49.9717 41.1729 44.6185 41.1729 38.3373C41.1729 37.6236 41.2437 36.9812 41.3146 36.2674L41.4563 35.5537C42.7316 29.4867 48.187 24.8472 54.8469 25.1327C54.9178 24.8472 55.0595 24.5617 55.1303 24.2762C55.4138 23.5624 55.6971 22.8486 56.0514 22.1349C56.264 21.7066 56.4765 21.207 56.7599 20.7787C59.9482 15.2827 65.1202 12.1422 70.5757 11.2856C70.7882 11.2856 71.0717 11.2143 71.2842 11.2143C71.4968 11.2143 71.7093 11.1429 71.9219 11.1429C71.9927 11.1429 72.0636 11.1429 72.1344 11.1429C72.2761 11.1429 72.4178 11.1429 72.5595 11.1429C75.3227 11.0001 78.1567 11.357 80.7781 12.2135C80.9198 12.2849 80.9907 12.2849 81.1324 12.3563C85.1 13.7838 88.5717 16.4248 90.9806 20.1363C91.1223 20.3505 91.264 20.636 91.4057 20.8501C92.185 22.2063 92.8227 23.7052 93.2478 25.2754C93.3186 25.4182 93.3895 25.6323 93.3895 25.7751C93.602 26.703 93.8146 27.7022 93.9563 28.7015C94.5939 28.7729 95.2316 28.9156 95.7984 29.1298C96.0109 29.2011 96.2235 29.2725 96.3652 29.3439C96.5069 29.4153 96.6486 29.4867 96.8611 29.558C97.3571 29.7722 97.7822 29.9863 98.2073 30.2718C98.2073 30.2718 98.2782 30.2718 98.2782 30.3432C98.5616 30.4859 98.7741 30.7001 99.0575 30.8428C99.1283 30.9142 99.2701 30.9856 99.3409 31.0569C99.4118 31.1283 99.4826 31.1997 99.5535 31.2711C99.6243 31.3424 99.766 31.4138 99.8369 31.5566C99.9077 31.6279 99.9786 31.6993 100.049 31.7707C100.12 31.8421 100.191 31.9135 100.262 31.9848C100.333 32.0562 100.404 32.1276 100.404 32.1276C100.475 32.199 100.616 32.3417 100.687 32.4131C100.9 32.6272 101.041 32.77 101.183 32.9841C101.254 33.0555 101.325 33.1269 101.396 33.2696C102.175 34.4116 102.813 35.625 103.167 37.0526C103.167 37.1953 103.238 37.3381 103.238 37.4808C103.309 37.6236 103.309 37.8377 103.309 37.9805C103.309 38.1232 103.379 38.3373 103.379 38.4801C103.804 38.9797 103.804 39.4794 103.804 40.0504Z"/></g><path fill="url(#paint0_linear)" d="M103.805 40.0512C103.805 40.2653 103.805 40.4081 103.805 40.6222C103.805 40.9077 103.805 41.1932 103.734 41.4787C103.734 41.6215 103.734 41.6928 103.663 41.8356C103.592 42.1211 103.592 42.4066 103.521 42.6921C103.521 42.8349 103.451 42.9062 103.451 43.049C103.309 43.6914 103.096 44.2624 102.813 44.8334C102.742 44.9762 102.671 45.0475 102.671 45.1903C102.459 45.5472 102.246 45.9754 102.034 46.3323C101.963 46.4751 101.892 46.5464 101.821 46.6892C101.042 47.8312 100.05 48.8305 98.9161 49.5443C98.7744 49.6156 98.6327 49.7584 98.491 49.8298C98.4202 49.9011 98.3493 49.9011 98.2785 49.9725C98.2785 49.9725 98.2785 49.9725 98.2076 49.9725C98.0659 50.0439 97.9242 50.1866 97.7117 50.258C97.57 50.3294 97.4991 50.4008 97.3574 50.4008C97.2157 50.4722 97.1449 50.5435 97.0032 50.5435C96.7906 50.6149 96.5781 50.7577 96.2947 50.829C96.153 50.9004 95.9404 50.9718 95.7987 50.9718C95.4445 51.1145 95.0902 51.1859 94.6651 51.2573C94.4526 51.3287 94.1692 51.3287 93.9566 51.3287C93.6732 51.3287 93.4607 51.4 93.1773 51.4C92.9647 51.4 92.7521 51.4 92.5396 51.4C90.91 51.4 89.3513 51.0432 87.9343 50.4008C87.7218 50.3294 87.4384 50.1866 87.2258 50.0439C86.3756 49.6156 85.5963 48.9732 84.8878 48.3309C82.6206 46.2609 81.2744 43.2631 81.2744 39.9798C81.2744 33.6987 86.3756 28.5596 92.6105 28.5596C93.1064 28.5596 93.6023 28.6309 94.0983 28.6309C94.736 28.7023 95.3736 28.8451 96.0113 29.0592C96.2238 29.1306 96.4364 29.202 96.5781 29.2733C96.7198 29.3447 96.8615 29.4161 97.074 29.4875C97.57 29.7016 97.9951 29.9157 98.4202 30.2012H98.491C98.7744 30.344 98.987 30.5581 99.2704 30.7009C99.3412 30.7722 99.4829 30.8436 99.5538 30.915C99.6246 30.9864 99.6955 31.0577 99.8372 31.1291C99.908 31.2005 100.05 31.2719 100.121 31.4146C100.191 31.486 100.262 31.5574 100.333 31.6288C100.404 31.7001 100.475 31.7715 100.546 31.8429C100.617 31.9143 100.687 31.9856 100.687 31.9856C100.758 32.057 100.9 32.1998 100.971 32.2711C101.183 32.4853 101.325 32.6994 101.467 32.8422C101.538 32.9135 101.608 32.9849 101.679 33.1277C102.459 34.2697 103.096 35.4831 103.451 36.9106C103.451 37.0534 103.521 37.1961 103.521 37.2675C103.592 37.4103 103.592 37.6244 103.663 37.7671C103.663 37.9099 103.734 38.124 103.734 38.2668C103.805 38.9805 103.805 39.4802 103.805 40.0512Z"/><path fill="url(#paint1_linear)" d="M74.0473 51.5418C85.16 51.5418 94.1687 42.4662 94.1687 31.2709C94.1687 20.0756 85.16 11 74.0473 11C62.9345 11 53.9258 20.0756 53.9258 31.2709C53.9258 42.4662 62.9345 51.5418 74.0473 51.5418Z"/><path fill="#697791" d="M60.799 32.1274C60.799 32.3415 60.6573 32.4843 60.4447 32.4843H53.0763C52.6512 32.4843 52.2261 32.8412 52.2261 33.3408V51.3277C52.0135 51.2563 51.7301 51.2563 51.5176 51.1849V33.3408C51.5176 32.4843 52.2261 31.7705 53.0763 31.7705H60.5156C60.6573 31.7705 60.799 31.9133 60.799 32.1274Z"/><path fill="url(#paint2_linear)" d="M78.5111 39.6226C77.2358 40.4791 75.7479 40.9787 74.1184 40.9787C69.7257 40.9787 66.1123 37.3385 66.1123 32.9132C66.1123 28.4879 69.7257 24.8477 74.1184 24.8477C78.5111 24.8477 82.1245 28.4879 82.1245 32.9132C82.1245 35.6969 80.7075 38.1951 78.5111 39.6226Z"/><path fill="#fff" d="M73.0562 35.9115C72.7728 35.9115 72.5602 35.8402 72.3477 35.626L70.293 33.5561C69.9388 33.1992 69.9388 32.5569 70.293 32.2C70.6473 31.8431 71.2849 31.8431 71.6392 32.2L72.9853 33.5561L76.457 30.0587C76.8113 29.7018 77.4489 29.7018 77.8032 30.0587C78.1574 30.4156 78.1574 31.0579 77.8032 31.4148L73.623 35.626C73.5521 35.8402 73.3396 35.9115 73.0562 35.9115Z"/><path stroke="#697791" stroke-miterlimit="10" d="M88.3592 38.6956C88.2175 39.0526 87.8633 39.2669 87.4382 39.2669C86.8714 39.2669 86.4463 38.8384 86.4463 38.2672C86.4463 37.696 86.8714 37.2676 87.4382 37.2676C88.005 37.2676 88.4301 37.696 88.4301 38.2672C88.5009 38.3386 88.5009 38.5528 88.3592 38.6956Z"/><path stroke="#697791" stroke-miterlimit="10" d="M80.9909 44.6917C81.5387 44.6917 81.9828 44.2441 81.9828 43.692C81.9828 43.1399 81.5387 42.6924 80.9909 42.6924C80.4431 42.6924 79.999 43.1399 79.999 43.692C79.999 44.2441 80.4431 44.6917 80.9909 44.6917Z"/><path stroke="#697791" stroke-miterlimit="10" d="M92.8933 38.6233C93.4411 38.6233 93.8852 38.1757 93.8852 37.6237C93.8852 37.0716 93.4411 36.624 92.8933 36.624C92.3455 36.624 91.9014 37.0716 91.9014 37.6237C91.9014 38.1757 92.3455 38.6233 92.8933 38.6233Z"/><path stroke="#697791" stroke-miterlimit="10" d="M92.8933 33.0559C93.4411 33.0559 93.8852 32.6084 93.8852 32.0563C93.8852 31.5042 93.4411 31.0566 92.8933 31.0566C92.3455 31.0566 91.9014 31.5042 91.9014 32.0563C91.9014 32.6084 92.3455 33.0559 92.8933 33.0559Z"/><path stroke="#697791" stroke-miterlimit="10" d="M86.3044 29.5579C86.8522 29.5579 87.2963 29.1103 87.2963 28.5582C87.2963 28.0061 86.8522 27.5586 86.3044 27.5586C85.7566 27.5586 85.3125 28.0061 85.3125 28.5582C85.3125 29.1103 85.7566 29.5579 86.3044 29.5579Z"/><path stroke="#697791" stroke-miterlimit="10" d="M70.9294 22.7776C71.4772 22.7776 71.9213 22.33 71.9213 21.778C71.9213 21.2259 71.4772 20.7783 70.9294 20.7783C70.3816 20.7783 69.9375 21.2259 69.9375 21.778C69.9375 22.33 70.3816 22.7776 70.9294 22.7776Z"/><path stroke="#697791" stroke-miterlimit="10" d="M65.8288 26.6321C66.3766 26.6321 66.8207 26.1845 66.8207 25.6325C66.8207 25.0804 66.3766 24.6328 65.8288 24.6328C65.281 24.6328 64.8369 25.0804 64.8369 25.6325C64.8369 26.1845 65.281 26.6321 65.8288 26.6321Z"/><path stroke="#697791" stroke-miterlimit="10" d="M61.5075 33.0559C62.0553 33.0559 62.4994 32.6084 62.4994 32.0563C62.4994 31.5042 62.0553 31.0566 61.5075 31.0566C60.9597 31.0566 60.5156 31.5042 60.5156 32.0563C60.5156 32.6084 60.9597 33.0559 61.5075 33.0559Z"/><path stroke="#697791" stroke-miterlimit="10" d="M45.778 36.8391C46.3259 36.8391 46.7699 36.3916 46.7699 35.8395C46.7699 35.2874 46.3259 34.8398 45.778 34.8398C45.2302 34.8398 44.7861 35.2874 44.7861 35.8395C44.7861 36.3916 45.2302 36.8391 45.778 36.8391Z"/><path fill="#697791" d="M91.4057 20.7782H87.6506C87.0838 20.7782 86.6587 21.2065 86.6587 21.7775V27.559C86.6587 27.7731 86.517 27.9159 86.3044 27.9159C86.0919 27.9159 85.9502 27.7731 85.9502 27.559V21.7775C85.9502 20.8496 86.7295 20.0645 87.6506 20.0645H90.9806C91.1223 20.35 91.264 20.5641 91.4057 20.7782Z"/><path fill="#697791" d="M100.9 32.4123H93.8855C93.673 32.4123 93.5312 32.2695 93.5312 32.0553C93.5312 31.841 93.673 31.6982 93.8855 31.6982H100.191C100.262 31.7696 100.333 31.841 100.404 31.9124C100.475 31.9839 100.545 32.0553 100.545 32.0553C100.687 32.1981 100.829 32.2695 100.9 32.4123Z"/><path fill="#697791" d="M87.8628 39.2651V51.4705H87.1543V39.2651C87.1543 39.051 87.296 38.9082 87.5085 38.9082C87.7211 38.9082 87.8628 39.051 87.8628 39.2651Z"/><path fill="#697791" d="M98.8455 38.7665V49.473C98.7038 49.5443 98.5621 49.6871 98.4204 49.7585C98.3495 49.8298 98.2787 49.8298 98.2078 49.9012V38.7665C98.2078 38.3382 97.8536 37.9813 97.3576 37.9813H93.9568C93.7442 37.9813 93.6025 37.8386 93.6025 37.6245C93.6025 37.4103 93.7442 37.2676 93.9568 37.2676H97.3576C98.137 37.2676 98.8455 37.91 98.8455 38.7665Z"/><path fill="#697791" d="M81.2739 44.7612V51.4706H80.5654V44.7612C80.5654 44.547 80.7071 44.4043 80.9197 44.4043C81.1322 44.4043 81.2739 44.547 81.2739 44.7612Z"/><path fill="#697791" d="M71.2847 11.2148V20.7793C71.2847 20.9934 71.143 21.1362 70.9304 21.1362C70.7179 21.1362 70.5762 20.9934 70.5762 20.7793V11.2862C70.7887 11.2148 71.0721 11.2148 71.2847 11.2148Z"/><path fill="#697791" d="M65.1909 25.632C65.1909 25.8461 65.0492 25.9889 64.8366 25.9889H57.8225C56.9014 25.9889 56.1221 25.2038 56.1221 24.2759V22.0632C56.3346 21.5635 56.5472 21.1353 56.8306 20.707V24.2759C56.8306 24.8469 57.2557 25.2751 57.8225 25.2751H64.8366C65.0492 25.2751 65.1909 25.4179 65.1909 25.632Z"/><path fill="#697791" d="M41.5274 35.4814H44.7866C44.9991 35.4814 45.1408 35.6243 45.1408 35.8385C45.1408 36.0527 44.9991 36.1955 44.7866 36.1955H41.3857L41.5274 35.4814Z"/><path fill="url(#paint3_linear)" d="M59.3803 104.218C53.9957 104.361 47.5483 104.218 43.0139 104.147C38.4795 104.29 32.0321 104.361 26.6475 104.218C31.9612 101.149 33.8033 95.5104 34.0867 91.7988H51.8701C52.2244 95.5104 54.0665 101.221 59.3803 104.218Z"/><path fill="#353B4A" d="M27.2154 105.145H58.8146C59.2397 105.145 59.6648 104.788 59.6648 104.288C59.6648 103.86 59.3106 103.432 58.8146 103.432H27.2154C26.7903 103.432 26.3652 103.789 26.3652 104.288C26.3652 104.788 26.7195 105.145 27.2154 105.145Z"/><path fill="#353B4A" d="M76.4554 44.5474V91.2276C76.4554 92.3696 75.5344 93.2261 74.4716 93.2261H11.4858C10.423 93.2261 9.50195 92.2982 9.50195 91.2276V44.5474C9.50195 43.4767 10.423 42.5488 11.4858 42.5488H74.4716C75.6052 42.5488 76.4554 43.4053 76.4554 44.5474Z"/><path fill="#262A31" d="M76.4554 44.5474V84.7323H9.50195V44.5474C9.50195 43.4767 10.423 42.5488 11.4858 42.5488H74.4716C75.6052 42.5488 76.4554 43.4053 76.4554 44.5474Z"/><path fill="#474E61" d="M74.0468 45.0469H11.9111V82.4482H74.0468V45.0469Z"/><path fill="#262A31" d="M43.0143 90.8702C43.9143 90.8702 44.6439 90.1352 44.6439 89.2286C44.6439 88.3219 43.9143 87.5869 43.0143 87.5869C42.1143 87.5869 41.3848 88.3219 41.3848 89.2286C41.3848 90.1352 42.1143 90.8702 43.0143 90.8702Z"/><path stroke="#353E4E" stroke-linecap="round" stroke-linejoin="round" d="M88.3574 66.888V65.46"/><path stroke="#353E4E" stroke-dasharray="2.5 2.5" stroke-linecap="round" stroke-linejoin="round" d="M88.3574 63.6762V60.9639"/><path stroke="#353E4E" stroke-linecap="round" stroke-linejoin="round" d="M88.3574 60.1077V58.6797"/><path stroke="#353E4E" stroke-miterlimit="10" d="M88.2878 70.4573C88.8356 70.4573 89.2797 70.0097 89.2797 69.4576C89.2797 68.9056 88.8356 68.458 88.2878 68.458C87.74 68.458 87.2959 68.9056 87.2959 69.4576C87.2959 70.0097 87.74 70.4573 88.2878 70.4573Z"/><path stroke="#353E4E" stroke-miterlimit="10" d="M88.2878 56.8958C88.8356 56.8958 89.2797 56.4482 89.2797 55.8961C89.2797 55.344 88.8356 54.8965 88.2878 54.8965C87.74 54.8965 87.2959 55.344 87.2959 55.8961C87.2959 56.4482 87.74 56.8958 88.2878 56.8958Z"/><path stroke="#353E4E" stroke-linecap="round" stroke-linejoin="round" d="M2.06348 64.7484V63.3203"/><path stroke="#353E4E" stroke-dasharray="3.83 3.83" stroke-linecap="round" stroke-linejoin="round" d="M2.06348 60.608V39.195C2.06348 36.1972 4.40153 33.8418 7.37725 33.8418H30.7578"/><path stroke="#353E4E" stroke-linecap="round" stroke-linejoin="round" d="M32.0332 33.8418H33.4502"/><path stroke="#353E4E" stroke-miterlimit="10" d="M1.9919 68.3176C2.53972 68.3176 2.98381 67.8701 2.98381 67.318C2.98381 66.7659 2.53972 66.3184 1.9919 66.3184C1.44409 66.3184 1 66.7659 1 67.318C1 67.8701 1.44409 68.3176 1.9919 68.3176Z"/><path stroke="#353E4E" stroke-miterlimit="10" d="M36.071 34.7698C36.6188 34.7698 37.0629 34.3222 37.0629 33.7701C37.0629 33.2181 36.6188 32.7705 36.071 32.7705C35.5232 32.7705 35.0791 33.2181 35.0791 33.7701C35.0791 34.3222 35.5232 34.7698 36.071 34.7698Z"/><path fill="#474E61" d="M16.658 102.862C16.658 104.004 15.737 104.932 14.6034 104.932H3.55075C2.41715 104.932 1.49609 104.004 1.49609 102.862V76.6666C1.49609 75.5246 2.41715 74.5967 3.55075 74.5967H14.6742C15.8078 74.5967 16.7289 75.5246 16.7289 76.6666V102.862H16.658Z"/><path fill="#262A31" d="M14.6742 74.5967C15.8078 74.5967 16.7289 75.5246 16.7289 76.6666V102.933C16.7289 104.075 15.8078 105.003 14.6742 105.003H3.55075C2.41715 105.003 1.49609 104.075 1.49609 102.933V76.6666C1.49609 75.5246 2.41715 74.5967 3.55075 74.5967H14.6742Z"/><path fill="#474E61" d="M14.674 75.5957C15.2408 75.5957 15.6659 76.024 15.6659 76.595V102.862C15.6659 103.433 15.2408 103.861 14.674 103.861H3.5505C2.9837 103.861 2.55859 103.433 2.55859 102.862V76.6664C2.55859 76.0953 2.9837 75.6671 3.5505 75.6671H5.18005C5.3926 75.6671 5.5343 75.8098 5.5343 76.024C5.5343 76.4522 5.88856 76.8091 6.31366 76.8091H11.9817C12.4068 76.8091 12.761 76.4522 12.761 76.024C12.761 75.8098 12.9027 75.6671 13.1153 75.6671H14.674V75.5957Z"/><path fill="#151515" d="M10.0686 75.9528H8.58071C8.43901 75.9528 8.36816 75.81 8.36816 75.7386C8.36816 75.5958 8.50986 75.5244 8.58071 75.5244H10.0686C10.2103 75.5244 10.2811 75.6672 10.2811 75.7386C10.2811 75.8814 10.2103 75.9528 10.0686 75.9528Z"/><path fill="#151515" d="M7.73067 75.9528H7.65982C7.51812 75.9528 7.44727 75.81 7.44727 75.7386C7.44727 75.5958 7.58897 75.5244 7.65982 75.5244H7.73067C7.87237 75.5244 7.94322 75.6672 7.94322 75.7386C7.94322 75.8814 7.87237 75.9528 7.73067 75.9528Z"/><path fill="#262A31" d="M106 104.431V105.787C106 107 104.937 107.999 103.662 107.999H56.9718C55.6965 107.999 54.6338 107 54.6338 105.787V104.431H75.7472C75.8889 104.93 76.3848 105.287 77.0225 105.287H83.6115C84.1783 105.287 84.6743 104.93 84.8868 104.431H106Z"/><path fill="#353B4A" d="M106 104.431C106 105.645 104.937 106.644 103.662 106.644H56.9718C55.6965 106.644 54.6338 105.645 54.6338 104.431H75.7472C75.8889 104.93 76.3848 105.288 77.0225 105.288H83.6115C84.1783 105.288 84.6743 104.93 84.8868 104.431H106Z"/><path fill="#262A31" d="M103.378 104.432H57.2549V75.0246C57.2549 74.0967 58.0342 73.3115 58.9553 73.3115H101.678C102.599 73.3115 103.378 74.0967 103.378 75.0246V104.432Z"/><path fill="#474E61" d="M91.9006 104.575H59.4512V75.8105H101.04V104.575H96.6475"/><path fill="#474E61" d="M89.1379 99.2933H71.4961C71.071 99.2933 70.7168 98.9363 70.7168 98.5079V98.0081C70.7168 97.5797 71.071 97.2227 71.4961 97.2227H89.1379C89.563 97.2227 89.9172 97.5797 89.9172 98.0081V98.5079C89.8464 98.9363 89.563 99.2933 89.1379 99.2933Z"/><path fill="#5E6481" d="M88.8536 97.2941C89.4204 97.2941 89.8455 97.7224 89.8455 98.2934C89.8455 98.8644 89.4204 99.2926 88.8536 99.2926H71.7079C71.1411 99.2926 70.716 98.8644 70.716 98.2934C70.716 97.7224 71.1411 97.2941 71.7079 97.2941H88.8536ZM88.8536 96.3662H71.7079C70.6451 96.3662 69.7949 97.2227 69.7949 98.2934C69.7949 99.364 70.6451 100.221 71.7079 100.221H88.8536C89.9164 100.221 90.7666 99.364 90.7666 98.2934C90.7666 97.2227 89.9164 96.3662 88.8536 96.3662Z"/><path fill="url(#paint4_linear)" d="M77.5892 98.722H71.7795C71.6378 98.722 71.4961 98.5791 71.4961 98.4363V98.2221C71.4961 98.0793 71.6378 97.9365 71.7795 97.9365H77.5892C77.7309 97.9365 77.8726 98.0793 77.8726 98.2221V98.4363C77.8726 98.5791 77.8018 98.722 77.5892 98.722Z"/><path fill="url(#paint5_linear)" d="M77.4463 82.0208C78.4382 81.3784 79.5718 81.0215 80.8471 81.0215C84.2479 81.0215 87.0819 83.8052 87.0819 87.3026C87.0819 90.8001 84.3188 93.5837 80.8471 93.5837C77.3755 93.5837 74.6123 90.8001 74.6123 87.3026C74.6832 85.0186 75.7459 83.0914 77.4463 82.0208Z"/><path fill="#fff" d="M81.2725 84.09L83.1146 85.9458C83.3271 86.1599 83.3271 86.5168 83.1146 86.8023C82.902 87.0165 82.5478 87.0165 82.2644 86.8023L81.4142 85.9458V89.9429C81.4142 90.2998 81.1308 90.5139 80.8474 90.5139C80.564 90.5139 80.2806 90.2284 80.2806 89.9429V85.9458L79.4304 86.8023C79.2178 87.0165 78.8636 87.0165 78.5802 86.8023C78.4385 86.6596 78.4385 86.5168 78.4385 86.3741C78.4385 86.2313 78.5093 86.0886 78.5802 85.9458L80.4223 84.09C80.564 83.9473 80.7057 83.9473 80.8474 83.9473C80.9891 83.9473 81.2016 84.0186 81.2725 84.09Z"/><path fill="#474E61" d="M52.4366 73.813H33.5196C33.0945 73.813 32.7402 73.456 32.7402 73.0276V72.4563C32.7402 72.0279 33.0945 71.6709 33.5196 71.6709H52.4366C52.8617 71.6709 53.216 72.0279 53.216 72.4563V73.0276C53.2868 73.456 52.9326 73.813 52.4366 73.813Z"/><path fill="#5E6481" d="M52.2242 71.6701C52.791 71.6701 53.287 72.1697 53.287 72.7407C53.287 73.3117 52.791 73.8114 52.2242 73.8114H33.8031C33.2363 73.8114 32.7404 73.3117 32.7404 72.7407C32.7404 72.1697 33.2363 71.6701 33.8031 71.6701H52.2242ZM52.2242 70.7422H33.8031C32.6695 70.7422 31.8193 71.6701 31.8193 72.7407C31.8193 73.8828 32.7404 74.7393 33.8031 74.7393H52.2242C53.3578 74.7393 54.208 73.8114 54.208 72.7407C54.208 71.6701 53.287 70.7422 52.2242 70.7422Z"/><path fill="url(#paint6_linear)" d="M40.1086 73.2417H33.8738C33.6612 73.2417 33.5195 73.0989 33.5195 72.8847V72.6705C33.5195 72.4563 33.6612 72.3135 33.8738 72.3135H40.1086C40.3212 72.3135 40.4629 72.4563 40.4629 72.6705V72.8847C40.4629 73.0989 40.3212 73.2417 40.1086 73.2417Z"/><path fill="url(#paint7_linear)" d="M39.967 55.3246C41.0297 54.6108 42.305 54.2539 43.6512 54.2539C47.3354 54.2539 50.3111 57.2517 50.3111 60.9633C50.3111 64.6749 47.3354 67.6727 43.6512 67.6727C39.967 67.6727 36.9912 64.6749 36.9912 60.9633C36.9204 58.5365 38.1249 56.4666 39.967 55.3246Z"/><path fill="#fff" d="M44.0768 57.5383L46.0606 59.5368C46.2732 59.7509 46.2732 60.1792 46.0606 60.3933C45.8481 60.6074 45.423 60.6074 45.2104 60.3933L44.2894 59.5368V63.8194C44.2894 64.1763 44.006 64.4618 43.6517 64.4618C43.2975 64.4618 43.0141 64.1763 43.0141 63.8194V59.5368L42.093 60.4647C41.8805 60.6788 41.4554 60.6788 41.2428 60.4647C41.1011 60.3219 41.0303 60.1792 41.0303 60.0364C41.0303 59.8937 41.1011 59.6796 41.2428 59.6082L43.2266 57.6096C43.3683 57.4669 43.51 57.3955 43.6517 57.3955C43.7934 57.3955 43.9351 57.4669 44.0768 57.5383Z"/><path fill="#474E61" d="M13.3984 94.7954H4.75464C4.54209 94.7954 4.40039 94.6526 4.40039 94.4384V94.2242C4.40039 94.01 4.54209 93.8672 4.75464 93.8672H13.3984C13.6109 93.8672 13.7526 94.01 13.7526 94.2242V94.4384C13.7526 94.5812 13.6109 94.7954 13.3984 94.7954Z"/><path fill="#5E6481" d="M13.256 93.7976C13.5394 93.7976 13.7519 94.0118 13.7519 94.2974C13.7519 94.583 13.5394 94.7972 13.256 94.7972H4.89566C4.61226 94.7972 4.39971 94.583 4.39971 94.2974C4.39971 94.0118 4.61226 93.7976 4.89566 93.7976H13.256ZM13.256 93.3691H4.89566C4.39971 93.3691 3.97461 93.7976 3.97461 94.2974C3.97461 94.7972 4.39971 95.2256 4.89566 95.2256H13.3268C13.8228 95.2256 14.2479 94.7972 14.2479 94.2974C14.177 93.7976 13.8228 93.3691 13.256 93.3691Z"/><path fill="url(#paint8_linear)" d="M7.72962 94.5103H4.89561C4.82476 94.5103 4.75391 94.4389 4.75391 94.3675V94.2961C4.75391 94.2247 4.82476 94.1533 4.89561 94.1533H7.72962C7.80047 94.1533 7.87132 94.2247 7.87132 94.2961V94.3675C7.94217 94.4389 7.87132 94.5103 7.72962 94.5103Z"/><path fill="url(#paint9_linear)" d="M7.23371 83.9471C7.87136 83.5188 8.65071 83.3047 9.43007 83.3047C11.6264 83.3047 13.4685 85.0891 13.4685 87.3018C13.4685 89.5144 11.6973 91.2989 9.43007 91.2989C7.16286 91.2989 5.3916 89.5144 5.3916 87.3018C5.46245 85.8742 6.17095 84.6608 7.23371 83.9471Z"/><path fill="#fff" d="M9.71276 85.3049L10.9172 86.447C11.0589 86.5897 11.0589 86.8039 10.9172 86.9466C10.7755 87.0894 10.563 87.0894 10.3504 86.9466L9.78361 86.3756V88.9451C9.78361 89.1593 9.64191 89.302 9.42936 89.302C9.21681 89.302 9.07511 89.1593 9.07511 88.9451V86.3756L8.50831 86.9466C8.36661 87.0894 8.15406 87.0894 7.94151 86.9466C7.87065 86.8752 7.7998 86.8039 7.7998 86.6611C7.7998 86.5897 7.87065 86.447 7.94151 86.3756L9.14596 85.2336C9.21681 85.1622 9.28766 85.0908 9.42936 85.0908C9.57106 85.0908 9.64191 85.2336 9.71276 85.3049Z"/><defs><filter id="filter0_d" width="106.632" height="84.43" x="19.173" y=".112" color-interpolation-filters="sRGB" filterUnits="userSpaceOnUse"><feFlood flood-opacity="0" result="BackgroundImageFix"/><feColorMatrix in="SourceAlpha" type="matrix" values="0 0 0 0 0 0 0 0 0 0 0 0 0 0 0 0 0 0 127 0"/><feOffset dy="11"/><feGaussianBlur stdDeviation="11"/><feColorMatrix type="matrix" values="0 0 0 0 0.397708 0 0 0 0 0.47749 0 0 0 0 0.575 0 0 0 0.18 0"/><feBlend in2="BackgroundImageFix" mode="normal" result="effect1_dropShadow"/><feBlend in="SourceGraphic" in2="effect1_dropShadow" mode="normal" result="shape"/></filter><linearGradient id="paint0_linear" x1="79.957" x2="90.094" y1="26.269" y2="37.245" gradientUnits="userSpaceOnUse"><stop stop-color="#8A99C1"/><stop offset=".994" stop-color="#606A83" stop-opacity="0"/></linearGradient><linearGradient id="paint1_linear" x1="58.796" x2="65.586" y1="19.422" y2="24.618" gradientUnits="userSpaceOnUse"><stop stop-color="#50576C"/><stop offset=".994" stop-color="#43464F" stop-opacity="0"/></linearGradient><linearGradient id="paint2_linear" x1="66.099" x2="82.132" y1="32.863" y2="32.863" gradientUnits="userSpaceOnUse"><stop stop-color="#FF66A9"/><stop offset="1" stop-color="#F53689"/></linearGradient><linearGradient id="paint3_linear" x1="42.944" x2="42.944" y1="103.974" y2="92.805" gradientUnits="userSpaceOnUse"><stop stop-color="#474755"/><stop offset=".991" stop-color="#2F3338"/></linearGradient><linearGradient id="paint4_linear" x1="71.452" x2="77.908" y1="98.29" y2="98.29" gradientUnits="userSpaceOnUse"><stop stop-color="#83A6FF"/><stop offset="1" stop-color="#5A78FF"/></linearGradient><linearGradient id="paint5_linear" x1="80.878" x2="80.878" y1="81.28" y2="93.953" gradientUnits="userSpaceOnUse"><stop stop-color="#83A6FF"/><stop offset="1" stop-color="#5A78FF"/></linearGradient><linearGradient id="paint6_linear" x1="33.511" x2="40.439" y1="72.783" y2="72.783" gradientUnits="userSpaceOnUse"><stop stop-color="#83A6FF"/><stop offset="1" stop-color="#5A78FF"/></linearGradient><linearGradient id="paint7_linear" x1="43.628" x2="43.628" y1="54.527" y2="68.127" gradientUnits="userSpaceOnUse"><stop stop-color="#83A6FF"/><stop offset="1" stop-color="#5A78FF"/></linearGradient><linearGradient id="paint8_linear" x1="4.745" x2="7.912" y1="94.291" y2="94.291" gradientUnits="userSpaceOnUse"><stop stop-color="#83A6FF"/><stop offset="1" stop-color="#5A78FF"/></linearGradient><linearGradient id="paint9_linear" x1="9.459" x2="9.459" y1="83.471" y2="91.535" gradientUnits="userSpaceOnUse"><stop stop-color="#83A6FF"/><stop offset="1" stop-color="#5A78FF"/></linearGradient></defs></svg>