<svg xmlns="http://www.w3.org/2000/svg" width="108" height="113" fill="none" viewBox="0 0 108 113"><path fill="#282C35" d="M96.5147 48.1679C96.5147 58.6599 92.8826 68.3888 86.7963 76.2101C83.4587 80.4069 79.434 84.1267 74.8202 86.9882C67.3596 91.7572 58.4266 94.5233 48.8064 94.5233C22.4 94.5233 1 73.7301 1 48.1679C1 22.5103 22.4 1.8125 48.7083 1.8125C58.3284 1.8125 67.2615 4.57856 74.722 9.25226C79.3358 12.1137 83.3606 15.8336 86.6982 20.0304C92.8826 27.947 96.5147 37.6759 96.5147 48.1679Z"/><path fill="url(#paint0_linear)" d="M3.35584 16.4061C4.23933 16.4061 4.92648 15.643 4.92648 14.7846C4.92648 13.9261 4.23933 13.1631 3.25767 13.1631C2.37419 13.1631 1.58887 13.8308 1.58887 14.7846C1.68703 15.643 2.47235 16.4061 3.35584 16.4061Z"/><path fill="url(#paint1_linear)" d="M3.45396 88.8006C4.33745 88.8006 5.12277 88.1329 5.12277 87.1791C5.12277 86.3207 4.43562 85.5576 3.45396 85.5576C2.57048 85.5576 1.78516 86.2253 1.78516 87.1791C1.88332 88.0375 2.57048 88.8006 3.45396 88.8006Z"/><path fill="#282C35" d="M102.11 34.0513C103.582 32.716 103.68 30.5222 102.306 29.0915C100.932 27.6608 98.6738 27.5654 97.1031 28.9007C95.6307 30.2361 95.5325 32.4298 96.9068 33.8606C98.2811 35.1959 100.637 35.2913 102.11 34.0513Z"/><path fill="url(#paint2_linear)" d="M101.325 18.5044C102.208 18.5044 102.895 17.8367 102.895 16.9783C102.895 16.1198 102.208 15.4521 101.325 15.4521C100.441 15.4521 99.7539 16.1198 99.7539 16.9783C99.7539 17.8367 100.441 18.5044 101.325 18.5044Z"/><path fill="#fff" d="M64.4151 87.9417C64.4151 91.4709 61.4701 94.4277 57.7398 94.4277H22.1059C18.4738 94.4277 15.4307 91.5662 15.4307 87.9417V6.48594C15.4307 2.95683 18.3756 0 22.1059 0H58.0343C61.6664 0 64.7096 2.86145 64.7096 6.48594V88.0371H64.4151V87.9417Z"/><path fill="#353B4A" d="M58.0343 0C61.6664 0 64.7096 2.86145 64.7096 6.48594V88.2279C64.7096 91.757 61.7646 94.7138 58.0343 94.7138H22.1059C18.4738 94.7138 15.4307 91.8524 15.4307 88.2279V6.48594C15.4307 2.95683 18.3756 0 22.1059 0H58.0343V0Z"/><path fill="#474E61" d="M61.273 6.19967V87.9416C61.273 89.3723 60.3896 90.5169 59.0152 90.8984C58.7208 90.9938 58.4263 90.9938 58.0336 90.9938H22.1052C21.9088 90.9938 21.7125 90.9938 21.6143 90.9938C20.0437 90.7077 18.9639 89.4677 18.9639 87.9416V6.48581C18.9639 4.86433 20.0437 3.62437 21.6143 3.43361C21.8107 3.43361 21.9088 3.43361 22.1052 3.43361H27.4061C28.0932 3.43361 28.5841 3.91051 28.5841 4.57818C28.5841 5.91352 29.762 7.0581 31.1363 7.0581H49.3951C50.7694 7.0581 51.9474 5.91352 51.9474 4.57818C51.8492 3.81513 52.34 3.33822 53.0272 3.33822H58.0336V3.14746C58.3281 3.14746 58.7208 3.14746 59.0152 3.24284C60.3896 3.62437 61.273 4.76895 61.273 6.19967Z"/><path fill="#2D5887" d="M43.2111 4.19667H38.401C37.9102 4.19667 37.7139 3.71976 37.7139 3.529C37.7139 3.05209 38.2047 2.86133 38.401 2.86133H43.2111C43.7019 2.86133 43.8983 3.33824 43.8983 3.529C43.8983 4.00591 43.6038 4.19667 43.2111 4.19667Z"/><path fill="#2D5887" d="M35.653 4.19667H35.4567C34.9659 4.19667 34.7695 3.71976 34.7695 3.529C34.7695 3.05209 35.2604 2.86133 35.4567 2.86133H35.653C36.1438 2.86133 36.3402 3.33824 36.3402 3.529C36.3402 4.00591 36.1438 4.19667 35.653 4.19667Z"/><path fill="#fff" d="M55.9721 69.5334H24.6574C22.9886 69.5334 21.6143 68.198 21.6143 66.5766V28.5193C21.6143 26.8978 22.9886 25.5625 24.6574 25.5625H55.9721C57.6409 25.5625 59.0152 26.8978 59.0152 28.5193V66.5766C59.0152 68.198 57.6409 69.5334 55.9721 69.5334Z"/><path fill="#394252" stroke="#2E3746" stroke-dasharray="1.98 1.98" stroke-linecap="round" stroke-linejoin="round" stroke-width=".984" d="M55.9721 69.5334H24.6574C22.9886 69.5334 21.6143 68.198 21.6143 66.5766V28.5193C21.6143 26.8978 22.9886 25.5625 24.6574 25.5625H55.9721C57.6409 25.5625 59.0152 26.8978 59.0152 28.5193V66.5766C59.0152 68.198 57.6409 69.5334 55.9721 69.5334Z"/><path fill="#586178" d="M59.0152 3.24284V18.2177C59.0152 19.8392 57.6409 21.1746 55.9721 21.1746H24.6574C22.9886 21.1746 21.6143 19.8392 21.6143 18.2177V3.33822C21.8106 3.33822 21.9088 3.33822 22.1051 3.33822H27.406C28.0932 3.33822 28.584 3.81513 28.584 4.4828C28.584 5.81814 29.762 6.96272 31.1363 6.96272H49.395C50.7693 6.96272 51.9473 5.81814 51.9473 4.4828C51.8491 3.81513 52.3399 3.33822 53.0271 3.33822H58.0335V3.14746C58.4262 3.14746 58.7207 3.14746 59.0152 3.24284Z"/><path fill="#586178" d="M59.0152 76.6863V90.9935C58.7207 91.0889 58.4262 91.0889 58.0335 91.0889H22.1051C21.9088 91.0889 21.7124 91.0889 21.6143 91.0889V76.6863C21.6143 75.0648 22.9886 73.7295 24.6574 73.7295H55.9721C57.6409 73.7295 59.0152 75.0648 59.0152 76.6863Z"/><g filter="url(#filter0_d)"><path fill="#586178" d="M76.7815 72.6622H40.2444C37.282 72.6622 34.8838 70.332 34.8838 67.4536V24.0026C34.8838 21.1241 37.282 18.7939 40.2444 18.7939H76.7815C79.7439 18.7939 82.1421 21.1241 82.1421 24.0026V67.4536C82.1421 70.332 79.7439 72.6622 76.7815 72.6622Z"/></g><path fill="#2E3746" d="M70.2916 58.6814H42.0777C41.3723 58.6814 40.667 58.1331 40.667 57.5848C40.667 56.8995 41.2313 56.4883 42.0777 56.4883H70.2916C70.997 56.4883 71.7023 57.0366 71.7023 57.5848C71.5612 58.1331 70.997 58.6814 70.2916 58.6814Z"/><path fill="#2E3746" d="M53.2226 65.2605H41.9371C41.2317 65.2605 40.5264 64.7122 40.5264 64.1639C40.5264 63.4786 41.0906 63.0674 41.9371 63.0674H53.2226C53.928 63.0674 54.6333 63.6157 54.6333 64.1639C54.4923 64.7122 53.928 65.2605 53.2226 65.2605Z"/><path fill="#2E3746" d="M74.9466 49.7714H42.5005C41.6541 49.7714 41.0898 49.086 41.0898 48.4007V26.7437C41.0898 25.9213 41.7952 25.373 42.5005 25.373H74.9466C75.793 25.373 76.3573 26.0584 76.3573 26.7437V48.4007C76.3573 49.2231 75.6519 49.7714 74.9466 49.7714Z"/><path fill="#1E242D" d="M59.2879 44.5634H47.5791L53.504 38.1211L59.2879 44.5634Z"/><path fill="#39465B" d="M69.0217 44.5639H52.2344L60.5575 35.2432L69.0217 44.5639Z"/><path fill="url(#paint3_linear)" d="M52.093 35.7905C53.3396 35.7905 54.3502 34.8086 54.3502 33.5974C54.3502 32.3862 53.3396 31.4043 52.093 31.4043C50.8465 31.4043 49.8359 32.3862 49.8359 33.5974C49.8359 34.8086 50.8465 35.7905 52.093 35.7905Z"/><path fill="url(#paint4_linear)" d="M64.9061 11.0645C65.2006 13.5444 63.0409 16.4058 59.9978 16.4058C57.3474 16.4058 55.0896 14.0213 55.0896 11.3506V11.446C54.9914 14.5936 52.345 16.1487 49.5964 15.481H49.2978C47.3345 15.0995 45.273 14.0213 45.273 11.5414C45.273 14.2121 43.1134 16.4058 40.3648 16.4058C37.6162 16.4058 35.4565 13.9259 35.4565 11.3506C35.4565 14.0213 33.1987 16.4058 30.5483 16.4058C27.7996 16.4058 25.64 14.2121 25.64 11.5414C25.64 14.1167 23.4804 16.4058 20.7318 16.4058C17.9831 16.4058 15.6272 14.2121 15.8235 11.0645C15.8235 8.20303 15.1363 9.53837 21.3207 2.6709H59.507C65.3969 9.44298 64.9061 8.01226 64.9061 11.0645Z"/><path fill="#828AA0" d="M35.5543 11.9229C35.5543 11.7321 35.5543 11.446 35.5543 11.2552C35.5543 13.9259 33.2965 16.4058 30.5479 16.4058C27.7993 16.4058 25.6396 14.2121 25.6396 11.5414C25.6396 11.6368 25.6396 11.7321 25.6396 11.8275C25.7378 8.29841 25.1488 10.0153 28.7809 3.62471L29.4681 2.6709H37.5176C35.0635 10.206 35.4562 8.01226 35.5543 11.9229Z"/><path fill="#828AA0" d="M55.0894 11.4467C55.0894 14.6896 51.9481 16.788 49.2976 16.2157H49.1995C47.0398 15.8342 45.2729 13.7358 45.2729 11.2559C45.2729 8.20368 45.5674 9.6344 43.3096 2.57617H51.3591L52.0463 3.52999C55.2857 9.53902 55.0894 8.29906 55.0894 11.4467Z"/><path fill="#fff" d="M105.84 73.7295L102.208 91.852C101.913 93.4735 100.539 94.618 98.8703 94.618H70.0098C68.341 94.618 66.9666 93.4735 66.6721 91.852L63.04 73.7295"/><path fill="url(#paint5_linear)" d="M105.84 73.7295L105.545 75.2556V75.4464L102.306 91.852C102.011 93.4735 100.637 94.618 98.968 94.618H70.0093C68.3405 94.618 66.9661 93.4735 66.6716 91.852L63.4322 75.4464V75.2556L63.1377 73.7295H105.84Z"/><path fill="#526DFF" d="M105.84 73.7295L105.546 75.2556H63.4327L63.04 73.7295H105.84Z"/><path fill="url(#paint6_linear)" d="M64.4143 73.7294H63.3345C62.0583 73.7294 60.9785 72.7756 60.9785 71.631V69.4373C60.9785 68.2927 62.0583 67.3389 63.3345 67.3389H105.644C106.92 67.3389 108 68.2927 108 69.4373V71.631C108 72.7756 106.92 73.7294 105.644 73.7294H104.564"/><path fill="url(#paint7_linear)" d="M72.0709 78.4994C71.9728 78.0225 71.482 77.7364 70.9911 77.8318C70.5003 77.9271 70.2058 78.404 70.304 78.8809L72.5618 89.8498C72.7581 90.9944 74.6232 90.7083 74.3287 89.4683L72.0709 78.4994Z"/><path fill="url(#paint8_linear)" d="M78.2553 78.5932C78.1571 78.1163 77.7645 77.7348 77.1755 77.8301C76.6846 77.9255 76.292 78.307 76.3901 78.8793C76.6846 81.1685 77.6663 87.4637 77.9608 89.8482C78.1571 90.9928 79.9241 90.802 79.7278 89.5621C79.7278 88.5129 78.4516 79.8332 78.2553 78.5932Z"/><path fill="url(#paint9_linear)" d="M83.5566 78.6895V89.6584C83.5566 90.8029 85.4218 90.8029 85.4218 89.6584V78.6895C85.4218 77.5449 83.5566 77.5449 83.5566 78.6895Z"/><path fill="url(#paint10_linear)" d="M90.7228 78.594C89.9375 84.2215 90.232 81.6462 89.1522 89.5629C88.9558 90.7075 90.821 90.9936 90.9191 89.849L91.8026 83.4585C91.8026 83.3631 91.8026 83.3631 91.8026 83.2677L92.3916 78.8802C92.6861 77.6402 90.821 77.4494 90.7228 78.594Z"/><path fill="url(#paint11_linear)" d="M96.8081 78.4987C96.5137 79.9294 94.6485 88.8953 94.5504 89.4676C94.354 90.6122 96.121 90.9937 96.3173 89.8491L98.5751 78.8802C98.8696 77.7357 97.1026 77.3541 96.8081 78.4987Z"/><path fill="#fff" stroke="#2B323C" stroke-linecap="round" stroke-linejoin="round" stroke-miterlimit="10" d="M70.5455 48.8376C71.3839 48.8376 72.0547 49.4873 72.0547 50.2994V59.7197C72.0547 61.8311 70.3778 63.4553 68.1978 63.4553H61.8256C61.1549 63.4553 60.4841 63.2929 60.1487 62.8056C58.6395 61.5063 55.4534 58.9076 54.7826 57.9331C54.615 57.6082 54.4473 57.4458 54.4473 57.121V55.0095C54.4473 53.7102 55.4534 52.7357 56.7949 52.7357H57.6334V56.7962H58.1364V48.3504C58.1364 47.5383 58.8072 46.8886 59.6457 46.8886C60.4841 46.8886 61.1549 47.5383 61.1549 48.3504V49.9746H61.6579V47.8631C61.6579 47.051 62.3287 46.4014 63.1671 46.4014C64.0056 46.4014 64.6763 47.051 64.6763 47.8631V49.9746H65.3471V48.8376C65.3471 48.0256 66.0179 47.3759 66.8563 47.3759C67.6948 47.3759 68.3655 48.0256 68.3655 48.8376V49.9746H69.0363C69.204 49.3249 69.707 48.8376 70.5455 48.8376Z"/><path fill="#2E3746" d="M54.5978 79.834V91.089H26.1299V79.834C26.1299 79.1664 26.6207 78.6895 27.3079 78.6895H53.518C54.0088 78.6895 54.5978 79.1664 54.5978 79.834Z"/><path fill="#1E242D" d="M38.0081 91.0896H34.1797L36.143 88.9912L37.91 90.9942L38.0081 91.0896Z"/><path fill="#282C35" d="M45.8615 91.0897H37.9102V90.9943L41.8368 86.7021L45.8615 91.0897Z"/><path fill="#1E242D" d="M34.9652 87.0832C35.9411 87.0832 36.7322 86.3145 36.7322 85.3663C36.7322 84.4181 35.9411 83.6494 34.9652 83.6494C33.9893 83.6494 33.1982 84.4181 33.1982 85.3663C33.1982 86.3145 33.9893 87.0832 34.9652 87.0832Z"/><path fill="url(#paint12_linear)" d="M64.8077 9.1575H15.8232C15.9214 8.77597 16.0196 8.48983 16.3141 8.20368L21.2223 2.57617H59.4086L64.3168 8.20368C64.6113 8.48983 64.7095 8.77597 64.8077 9.1575Z" opacity=".2"/><path stroke="#2B323C" stroke-linecap="round" stroke-linejoin="round" stroke-miterlimit="10" stroke-width="2" d="M8.85352 95H106.822"/><path stroke="#2B323C" stroke-linecap="round" stroke-linejoin="round" stroke-miterlimit="10" stroke-width="2" d="M1.6875 95H5.41778"/><defs><filter id="filter0_d" width="91.258" height="97.868" x="12.884" y="14.794" color-interpolation-filters="sRGB" filterUnits="userSpaceOnUse"><feFlood flood-opacity="0" result="BackgroundImageFix"/><feColorMatrix in="SourceAlpha" type="matrix" values="0 0 0 0 0 0 0 0 0 0 0 0 0 0 0 0 0 0 127 0"/><feOffset dy="18"/><feGaussianBlur stdDeviation="11"/><feColorMatrix type="matrix" values="0 0 0 0 0 0 0 0 0 0 0 0 0 0 0 0 0 0 0.35 0"/><feBlend in2="BackgroundImageFix" mode="normal" result="effect1_dropShadow"/><feBlend in="SourceGraphic" in2="effect1_dropShadow" mode="normal" result="shape"/></filter><linearGradient id="paint0_linear" x1="1.696" x2="4.869" y1="14.813" y2="14.813" gradientUnits="userSpaceOnUse"><stop stop-color="#83A6FF"/><stop offset="1" stop-color="#5A78FF"/></linearGradient><linearGradient id="paint1_linear" x1="1.863" x2="5.036" y1="87.189" y2="87.189" gradientUnits="userSpaceOnUse"><stop stop-color="#FF66A9"/><stop offset="1" stop-color="#F53689"/></linearGradient><linearGradient id="paint2_linear" x1="99.801" x2="102.782" y1="17.044" y2="17.044" gradientUnits="userSpaceOnUse"><stop stop-color="#83A6FF"/><stop offset="1" stop-color="#5A78FF"/></linearGradient><linearGradient id="paint3_linear" x1="49.844" x2="54.356" y1="33.591" y2="33.591" gradientUnits="userSpaceOnUse"><stop stop-color="#FF66A9"/><stop offset="1" stop-color="#F53689"/></linearGradient><linearGradient id="paint4_linear" x1="15.74" x2="64.876" y1="9.473" y2="9.473" gradientUnits="userSpaceOnUse"><stop stop-color="#FF66A9"/><stop offset="1" stop-color="#F53689"/></linearGradient><linearGradient id="paint5_linear" x1="63.085" x2="105.875" y1="84.183" y2="84.183" gradientUnits="userSpaceOnUse"><stop stop-color="#83A6FF"/><stop offset="1" stop-color="#5A78FF"/></linearGradient><linearGradient id="paint6_linear" x1="60.962" x2="108.028" y1="70.564" y2="70.564" gradientUnits="userSpaceOnUse"><stop stop-color="#83A6FF"/><stop offset="1" stop-color="#5A78FF"/></linearGradient><linearGradient id="paint7_linear" x1="72.326" x2="72.326" y1="89.15" y2="78.438" gradientUnits="userSpaceOnUse"><stop stop-color="#BDCFFF"/><stop offset="1" stop-color="#91A5FF" stop-opacity=".5"/></linearGradient><linearGradient id="paint8_linear" x1="78.166" x2="78.166" y1="89.148" y2="78.436" gradientUnits="userSpaceOnUse"><stop stop-color="#BDCFFF"/><stop offset="1" stop-color="#91A5FF" stop-opacity=".5"/></linearGradient><linearGradient id="paint9_linear" x1="84.481" x2="84.481" y1="89.149" y2="78.437" gradientUnits="userSpaceOnUse"><stop stop-color="#BDCFFF"/><stop offset="1" stop-color="#91A5FF" stop-opacity=".5"/></linearGradient><linearGradient id="paint10_linear" x1="90.798" x2="90.798" y1="89.149" y2="78.437" gradientUnits="userSpaceOnUse"><stop stop-color="#BDCFFF"/><stop offset="1" stop-color="#91A5FF" stop-opacity=".5"/></linearGradient><linearGradient id="paint11_linear" x1="96.637" x2="96.637" y1="89.149" y2="78.437" gradientUnits="userSpaceOnUse"><stop stop-color="#BDCFFF"/><stop offset="1" stop-color="#91A5FF" stop-opacity=".5"/></linearGradient><linearGradient id="paint12_linear" x1="40.311" x2="40.311" y1="8.336" y2="2.039" gradientUnits="userSpaceOnUse"><stop offset=".003" stop-color="#3F5073" stop-opacity="0"/><stop offset="1" stop-color="#283247"/></linearGradient></defs></svg>