<svg xmlns="http://www.w3.org/2000/svg" width="64" height="64" fill="none" viewBox="0 0 64 64"><path fill="#8CC84B" d="M34.345 4.59744C32.9253 3.79906 31.0747 3.80265 29.6538 4.59744C22.5377 8.52453 15.4216 12.4528 8.30432 16.3781C6.91938 17.1067 5.98528 18.594 6.00018 20.1377V43.8656C5.99018 45.4394 6.97245 46.941 8.39309 47.6596C10.4374 48.7472 12.4236 49.9453 14.5049 50.9604C16.909 52.1418 19.9169 52.403 22.3504 51.1711C24.3257 50.1499 25.2031 47.879 25.2007 45.792C25.2166 37.9612 25.2031 30.1301 25.2068 22.2993C25.2537 21.9512 24.9925 21.5793 24.6129 21.5876C23.7035 21.5733 22.7928 21.5793 21.8834 21.5853C21.5397 21.5527 21.2044 21.8381 21.2304 22.1836C21.2181 29.964 21.2328 37.7468 21.223 45.5283C21.2428 46.6047 20.5156 47.6393 19.4783 48.0029C17.0824 48.8426 10.244 44.4025 10.244 44.4025C9.993 44.2862 9.83363 44.014 9.85823 43.7437C9.85823 35.9152 9.85946 28.0866 9.85823 20.2593C9.82374 19.9438 10.0182 19.6596 10.308 19.5308C17.4007 15.6268 24.4896 11.7131 31.5822 7.80673C31.8285 7.64231 32.172 7.6428 32.4178 7.80792C39.5104 11.7131 46.6006 15.6232 53.6944 19.5274C53.9853 19.656 54.1714 19.945 54.1418 20.2593C54.1406 28.0866 54.1442 35.9152 54.1393 43.7425C54.1604 44.0195 54.0173 44.288 53.7585 44.4096C46.7321 48.2924 39.6257 52.05 32.6629 56.0455C32.3592 56.2198 32.0151 56.4173 31.6747 56.2252C29.8436 55.2124 28.0348 54.1602 26.2099 53.1376C26.0115 53.0137 25.7588 52.9607 25.5519 53.0991C24.7335 53.5303 23.9641 53.8796 23.0245 54.2515C21.7047 54.7739 21.9157 54.9876 23.1057 55.6809C25.24 56.8888 27.3779 58.0918 29.512 59.3009C30.9169 60.1776 32.8047 60.2401 34.255 59.4297C41.3723 55.5076 48.4872 51.5807 55.6057 47.6586C57.0227 46.936 58.0098 45.4404 57.9998 43.8654V20.1377C58.0135 18.6253 57.1151 17.1645 55.772 16.4252C48.6312 12.4789 41.487 8.54128 34.345 4.59744Z"/><path fill="#8CC84B" d="M45.0837 22.4125C42.2904 20.9181 38.9672 20.8385 35.863 21.0337C33.6205 21.2553 31.2619 21.8742 29.6279 23.4817C27.9522 25.0978 27.5875 27.7073 28.3834 29.8171C28.9538 31.3077 30.3896 32.2772 31.8743 32.79C33.787 33.4652 35.7958 33.6739 37.8052 33.8828C39.638 34.0732 41.4714 34.2638 43.233 34.8084C43.9526 35.0469 44.7906 35.4117 45.0111 36.1945C45.2145 37.1217 44.9915 38.1995 44.2386 38.8437C41.8473 40.7364 35.1958 40.4464 32.8331 38.9568C31.878 38.3222 31.4663 37.1987 31.299 36.1283C31.2804 35.7946 31.0118 35.4887 30.6496 35.514C29.7426 35.5032 28.8357 35.5056 27.9287 35.5128C27.6122 35.4863 27.2832 35.7114 27.2658 36.0343C27.0795 40.9377 31.5827 43.0753 35.8077 43.546C38.2217 43.776 40.6885 43.7628 43.0655 43.2449C44.8523 42.838 46.6438 42.0889 47.8738 40.7125C49.3906 39.04 49.6887 36.5497 49.0085 34.4663C48.4885 32.9118 47.0023 31.9146 45.4831 31.4016C43.4172 30.6932 40.9688 30.3125 39.0976 30.1343C36.3778 29.8752 33.1457 29.981 32.376 28.1938C32.069 27.258 32.3303 26.096 33.1903 25.5204C35.4657 23.977 40.0965 24.1819 42.453 25.3349C43.5351 25.8768 44.162 26.9895 44.4208 28.113C44.4688 28.4431 44.6908 28.7873 45.0729 28.773C45.9735 28.7909 46.8744 28.7778 47.775 28.779C48.0844 28.8007 48.4232 28.626 48.4836 28.3093C48.4454 25.9612 47.2464 23.5577 45.0837 22.4125Z"/></svg>