<svg width="64" height="64" viewBox="0 0 64 64" fill="none" xmlns="http://www.w3.org/2000/svg">
<path d="M37.3578 31.9518C37.3578 29.0829 34.9592 26.7571 32 26.7571C29.0411 26.7571 26.6422 29.0829 26.6422 31.9518C26.6422 34.8209 29.0411 37.1468 32 37.1468C34.9592 37.1468 37.3578 34.8209 37.3578 31.9518Z" fill="#53C1DE"/>
<path fill-rule="evenodd" clip-rule="evenodd" d="M49.4007 22.3074C50.5322 17.8496 51.9545 9.58296 46.9408 6.78032C41.9506 3.98989 35.4569 9.33685 32.0279 12.5464C28.6089 9.36884 21.9327 4.04473 16.9233 6.85627C11.935 9.65605 13.4733 17.7856 14.6298 22.2714C9.97662 23.5528 2 26.3128 2 31.9518C2 37.5748 9.96832 40.5776 14.594 41.8578C13.4332 46.3684 11.9719 54.3819 16.9665 57.1753C21.9945 59.9863 28.6501 54.789 32.1107 51.5444C35.5617 54.7728 41.9932 60.0041 46.9843 57.2029C51.9913 54.3926 50.6871 46.2368 49.5306 41.7249C54.0145 40.442 62 37.5046 62 31.9518C62 26.3669 53.9807 23.5846 49.4007 22.3074ZM48.8325 39.3339C48.073 37.0032 47.0481 34.5246 45.7942 31.9642C46.991 29.4642 47.9761 27.0176 48.7143 24.7018C52.0718 25.6455 59.437 27.8026 59.437 31.9518C59.437 36.1399 52.3693 38.3174 48.8325 39.3339ZM45.6999 55.052C41.9761 57.142 36.4443 52.1393 33.8957 49.7618C35.5864 47.9688 37.276 45.8845 38.925 43.5699C41.8257 43.3204 44.5661 42.9123 47.0512 42.3555C47.8653 45.5468 49.4404 52.9525 45.6999 55.052ZM18.2472 55.0222C14.5229 52.94 16.2252 45.7893 17.0791 42.4667C19.5367 42.9937 22.2571 43.3729 25.1648 43.6016C26.8247 45.8664 28.5631 47.9482 30.3152 49.7713C28.1505 51.8015 21.989 57.114 18.2472 55.0222ZM4.56298 31.9518C4.56298 27.7479 11.8841 25.6066 15.3181 24.6652C16.069 27.0331 17.0539 29.5088 18.2425 32.0123C17.0385 34.5532 16.0395 37.0683 15.2817 39.4639C12.0074 38.5553 4.56298 36.1583 4.56298 31.9518ZM18.2074 9.00708C21.947 6.90833 27.7494 12.0197 30.2318 14.3203C28.4888 16.1351 26.7662 18.2012 25.1207 20.4529C22.2988 20.7065 19.5975 21.1138 17.1142 21.6594C16.1825 18.0414 14.4718 11.1036 18.2074 9.00708ZM40.7585 23.1542C42.6731 23.3885 44.5071 23.7 46.2294 24.0813C45.7124 25.6881 45.0679 27.3683 44.309 29.0907C43.2088 27.0665 42.0278 25.0832 40.7585 23.1542ZM32.0287 16.0962C33.2109 17.3379 34.3949 18.7246 35.5595 20.2289C33.1971 20.1207 30.8306 20.1202 28.4681 20.2274C29.6338 18.737 30.8279 17.3524 32.0287 16.0962ZM19.713 29.0889C18.9666 27.3724 18.328 25.6847 17.8064 24.055C19.5184 23.6835 21.3439 23.38 23.246 23.1496C21.9732 25.0743 20.7942 27.057 19.713 29.0889ZM23.3007 40.9315C21.3357 40.7188 19.4825 40.4307 17.7711 40.0695C18.3009 38.4109 18.9536 36.687 19.7159 34.9337C20.8121 36.9866 22.009 38.9885 23.3007 40.9315ZM32.0996 47.983C30.8847 46.7119 29.6731 45.3062 28.4896 43.7941C30.8657 43.8847 33.2463 43.8849 35.6219 43.782C34.4536 45.3216 33.2738 46.7294 32.0996 47.983ZM44.3335 34.8444C45.1354 36.6167 45.8114 38.3314 46.3484 39.9619C44.6086 40.3468 42.7304 40.6567 40.7513 40.8869C42.03 38.9215 43.2297 36.9072 44.3335 34.8444ZM37.4945 41.1881C33.8603 41.4399 30.2031 41.4372 26.5676 41.2087C24.5018 38.2829 22.6629 35.2059 21.0755 32.0115C22.6551 28.8238 24.4807 25.7529 26.5368 22.8316C30.1751 22.5649 33.8356 22.5643 37.4738 22.8331C39.5121 25.7542 41.335 28.8172 42.9513 31.9763C41.3542 35.1625 39.5191 38.2396 37.4945 41.1881ZM45.6606 8.93319C49.4012 11.0251 47.7362 18.4545 46.919 21.6851C44.4299 21.1282 41.7267 20.7137 38.8966 20.4563C37.2478 18.1801 35.5396 16.1104 33.8248 14.319C36.339 11.9688 41.9562 6.86178 45.6606 8.93319Z" fill="#53C1DE"/>
</svg>
