<svg width="64" height="64" viewBox="0 0 64 64" fill="none" xmlns="http://www.w3.org/2000/svg">
<path d="M43.5737 43.1119C45.7878 42.8866 47.4676 41.01 47.3912 38.7579C47.315 36.506 45.406 34.7043 43.1155 34.7043H42.9629C40.5957 34.7794 38.7634 36.7311 38.8398 39.0581C38.9162 40.1842 39.3741 41.16 40.0613 41.8356C37.4654 46.8652 33.4951 50.5434 27.5396 53.6212C23.4929 55.723 19.2936 56.4738 15.0943 55.9484C11.6584 55.4979 8.98601 53.9967 7.30601 51.5193C4.86289 47.8411 4.6339 43.8624 6.69547 39.8839C8.14625 37.0313 10.4366 34.9294 11.8873 33.8785C11.582 32.9027 11.1237 31.2512 10.8948 30.0503C-0.176409 37.9323 0.968982 48.5918 4.32851 53.6212C6.84804 57.3747 11.9637 59.7017 17.6138 59.7017C19.1408 59.7017 20.6677 59.5515 22.1949 59.1764C31.9681 57.2996 39.3744 51.5944 43.5737 43.1119V43.1119ZM57.0118 33.8036C51.2089 27.1226 42.6575 23.4444 32.8843 23.4444H31.6627C30.9755 22.0932 29.5248 21.1922 27.9214 21.1922H27.7686C25.4019 21.2674 23.5695 23.219 23.6457 25.5463C23.7221 27.7982 25.6309 29.5998 27.9214 29.5998H28.074C29.7537 29.5247 31.2045 28.4738 31.8153 27.0475H33.1897C38.9926 27.0475 44.4898 28.6989 49.453 31.9268C53.2705 34.4041 56.0192 37.632 57.5462 41.5354C58.8441 44.6882 58.7677 47.7659 57.3934 50.3934C55.2556 54.3719 51.6671 56.5489 46.9332 56.5489C43.8791 56.5489 40.9777 55.6479 39.4505 54.9723C38.6108 55.723 37.0836 56.924 36.0146 57.6749C39.298 59.1761 42.6575 60.002 45.8642 60.002C53.1941 60.002 58.6152 56.0233 60.6767 52.0448C62.8909 47.6908 62.738 40.1842 57.0118 33.8036V33.8036ZM18.2246 44.3877C18.301 46.6399 20.2098 48.4413 22.5003 48.4413H22.6531C25.0201 48.3664 26.8524 46.4145 26.776 44.0875C26.6998 41.8354 24.7909 40.0339 22.5003 40.0339H22.3477C22.1949 40.0339 21.9657 40.0339 21.8134 40.1088C18.6828 35.0043 17.3848 29.4496 17.843 23.4441C18.1482 18.9401 19.6754 15.0366 22.3477 11.8086C24.5619 9.03111 28.8376 7.67992 31.7391 7.60504C39.8323 7.4548 43.268 17.3636 43.4973 21.3422C44.4898 21.5674 46.1696 22.093 47.315 22.4683C46.3986 10.3076 38.7634 4.00195 31.4337 4.00195C24.5619 4.00195 18.2246 8.88134 15.7048 16.0877C12.1927 25.6963 14.4833 34.9294 18.759 42.211C18.3774 42.7363 18.1482 43.5621 18.2246 44.388V44.3877Z" fill="#764ABC"/>
</svg>
