<svg xmlns="http://www.w3.org/2000/svg" width="64" height="64" fill="none" viewBox="0 0 64 64"><path fill="url(#paint0_linear)" d="M44.2713 50.543C37.67 54.3401 28.5934 54.7302 19.4616 50.8332C12.0677 47.7009 5.93278 42.218 2 35.9535C3.88774 37.5196 6.09007 38.7731 8.44968 39.8688C17.8802 44.2701 27.3087 43.9687 33.944 39.8801C24.5053 32.6748 16.4725 23.2653 10.495 15.5909C9.23598 14.3377 8.29211 12.7713 7.34823 11.3617C14.5845 17.9403 26.0687 26.2413 30.1579 28.592C21.507 19.5064 13.7982 8.22941 14.1122 8.54207C27.7986 22.326 40.5415 30.1581 40.5415 30.1581C40.963 30.3947 41.2883 30.5919 41.55 30.7679C41.8258 30.0694 42.0677 29.344 42.2714 28.592C44.4737 20.6036 41.9574 11.518 36.4509 4C49.1924 11.675 56.7442 26.085 53.597 38.1465C53.515 38.4718 53.4258 38.793 53.3297 39.1084C59.6212 46.9405 58.0016 55.3768 57.2152 53.8107C53.8021 47.1602 47.4835 49.1938 44.2713 50.543Z"/><defs><linearGradient id="paint0_linear" x1="30.021" x2="30.021" y1="4" y2="54.003" gradientUnits="userSpaceOnUse"><stop stop-color="#F88A36"/><stop offset="1" stop-color="#FD2020"/></linearGradient></defs></svg>