<svg xmlns="http://www.w3.org/2000/svg" width="64" height="64" fill="none" viewBox="0 0 64 64"><path fill="url(#paint0_linear)" d="M42.0032 6.23358C42.0032 4.47566 40.0349 4.47564 39.1602 4.69538C40.3848 3.72852 41.8209 3.96294 42.3312 4.25592L54.1579 10.0549C55.2848 10.6075 55.9997 11.7572 55.9997 13.0171V51.1663C55.9997 52.4431 55.2658 53.605 54.116 54.1486L42.9873 59.4107C42.2219 59.7403 40.5598 60.5533 39.1602 59.4107C40.9097 59.7403 41.8574 58.4951 42.0032 57.6528V6.23358Z"/><path fill="url(#paint1_linear)" d="M39.3024 4.66381C40.2309 4.48033 42.0035 4.56542 42.0035 6.2337V19.3651L6.14718 46.4906C5.52044 46.9648 4.63841 46.8861 4.10458 46.3085L0.409065 42.3096C-0.169872 41.6832 -0.129365 40.7026 0.499247 40.1265L39.1605 4.6955L39.3024 4.66381Z"/><path fill="url(#paint2_linear)" d="M42.0035 44.7416L6.14718 17.616C5.52044 17.1419 4.6384 17.2206 4.10458 17.7982L0.409065 21.797C-0.169872 22.4235 -0.129365 23.404 0.499247 23.9801L39.1605 59.4111V59.4111C40.9101 59.7408 41.8577 58.4955 42.0035 57.6532V44.7416Z"/><defs><linearGradient id="paint0_linear" x1="47.58" x2="47.58" y1="4" y2="60" gradientUnits="userSpaceOnUse"><stop stop-color="#32B5F1"/><stop offset="1" stop-color="#2B9FED"/></linearGradient><linearGradient id="paint1_linear" x1="42.004" x2="2.043" y1="11.068" y2="44.61" gradientUnits="userSpaceOnUse"><stop stop-color="#0F6FB3"/><stop offset=".271" stop-color="#1279B7"/><stop offset=".421" stop-color="#1176B5"/><stop offset=".618" stop-color="#0E69AC"/><stop offset=".855" stop-color="#0F70AF"/><stop offset="1" stop-color="#0F6DAD"/></linearGradient><linearGradient id="paint2_linear" x1="2.31" x2="42.158" y1="19.968" y2="52.962" gradientUnits="userSpaceOnUse"><stop stop-color="#1791D2"/><stop offset="1" stop-color="#1173C5"/></linearGradient></defs></svg>