<svg xmlns="http://www.w3.org/2000/svg" width="108" height="98" fill="none" viewBox="0 0 108 98"><path fill="url(#paint0_linear)" d="M81.3069 3.08807H81.0334C80.9422 3.08807 80.851 2.99095 80.7598 2.89383C80.7598 2.79672 80.6686 2.6996 80.6686 2.6996C80.5774 2.60248 80.6686 2.50537 80.6686 2.40825L80.851 2.21402C80.9422 2.1169 80.9422 1.92267 80.851 1.82555L80.4862 1.43709C80.395 1.33997 80.2127 1.33997 80.1215 1.43709L79.9391 1.63132C79.8479 1.72844 79.7567 1.72844 79.6655 1.63132C79.5743 1.63132 79.4832 1.5342 79.4832 1.5342C79.392 1.5342 79.3008 1.43709 79.3008 1.24285V0.951505C79.3008 0.757273 79.1184 0.660156 79.0272 0.660156H78.4801C78.2977 0.660156 78.2065 0.757273 78.2065 0.951505V1.24285C78.2065 1.33997 78.1153 1.43709 78.0241 1.5342C77.9329 1.5342 77.8417 1.63132 77.8417 1.63132C77.7506 1.72844 77.6594 1.63132 77.5682 1.63132L77.3858 1.43709C77.2946 1.33997 77.1122 1.33997 77.021 1.43709L76.6563 1.82555C76.5651 1.92267 76.5651 2.1169 76.6563 2.21402L76.8387 2.40825C76.9298 2.50537 76.9298 2.60248 76.8387 2.6996C76.8387 2.79672 76.7475 2.89383 76.7475 2.89383C76.7475 2.99095 76.6563 3.08807 76.4739 3.08807H76.2003C76.018 3.08807 75.9268 3.2823 75.9268 3.37942V3.96211C75.9268 4.15635 76.018 4.25346 76.2003 4.25346H76.4739C76.5651 4.25346 76.6563 4.35058 76.7475 4.4477C76.7475 4.54481 76.8387 4.64193 76.8387 4.64193C76.9298 4.73905 76.8387 4.83616 76.8387 4.93328L76.6563 5.12751C76.5651 5.22463 76.5651 5.41886 76.6563 5.51598L77.021 5.90444C77.1122 6.00156 77.2946 6.00156 77.3858 5.90444L77.5682 5.71021C77.6594 5.61309 77.7506 5.61309 77.8417 5.71021C77.9329 5.71021 78.0241 5.80733 78.0241 5.80733C78.1153 5.80733 78.2065 5.90444 78.2065 6.09868V6.39002C78.2065 6.58426 78.3889 6.68137 78.4801 6.68137H79.0272C79.2096 6.68137 79.3008 6.58426 79.3008 6.39002V6.09868C79.3008 6.00156 79.392 5.90444 79.4832 5.80733C79.5743 5.80733 79.6655 5.71021 79.6655 5.71021C79.7567 5.61309 79.8479 5.71021 79.9391 5.71021L80.1215 5.90444C80.2127 6.00156 80.395 6.00156 80.4862 5.90444L80.851 5.51598C80.9422 5.41886 80.9422 5.22463 80.851 5.12751L80.6686 4.93328C80.5774 4.83616 80.5774 4.73905 80.6686 4.64193C80.6686 4.54481 80.7598 4.4477 80.7598 4.4477C80.7598 4.35058 80.851 4.25346 81.0334 4.25346H81.3069C81.4893 4.25346 81.5805 4.05923 81.5805 3.96211V3.37942C81.5805 3.2823 81.4893 3.18518 81.3069 3.08807ZM78.6624 4.83616C78.1153 4.83616 77.6594 4.35058 77.6594 3.76788C77.6594 3.18518 78.1153 2.6996 78.6624 2.6996C79.2096 2.6996 79.6655 3.18518 79.6655 3.76788C79.6655 4.35058 79.2096 4.83616 78.6624 4.83616Z"/><path fill="url(#paint1_linear)" d="M105.429 27.1921C105.429 27.1921 105.337 27.1921 105.429 27.1921C105.611 27.3864 105.702 27.4835 105.702 27.7748C104.973 30.0085 104.79 30.1056 105.702 30.4941C105.793 30.4941 105.885 30.5912 105.793 30.6883C105.611 31.3681 105.52 31.7566 105.246 31.6595C101.781 30.397 105.337 27.872 103.605 27.1921C103.514 27.1921 103.514 27.095 103.514 27.095L103.878 25.9296C103.878 25.8325 103.97 25.8325 103.97 25.8325C104.79 26.1239 104.882 25.444 105.155 24.57C105.52 23.4046 106.432 22.919 107.526 23.3075C107.708 23.4046 107.982 23.4046 107.891 23.5988C107.526 24.7642 107.617 24.6671 107.161 24.4729C106.067 24.2786 106.432 27.2893 105.429 27.1921Z"/><path fill="url(#paint2_linear)" d="M3.93522 52.6366C3.93522 52.5395 3.93522 52.5395 3.93522 52.6366C3.75284 52.7338 3.57046 52.7338 3.38808 52.6366C1.65548 51.1799 1.65548 50.8885 1.01715 51.6655C0.925961 51.7626 0.834772 51.7626 0.743583 51.6655C0.287635 51.277 -0.0771225 50.9857 0.014067 50.7914C2.29381 47.7808 3.29689 52.1511 4.48236 50.6943C4.48236 50.6943 4.57354 50.5972 4.66473 50.6943L5.48544 51.4712C5.48544 51.4712 5.57663 51.5684 5.48544 51.6655C4.9383 52.4424 5.48544 52.7338 6.12376 53.3165C7.03566 54.0934 7.12685 55.1617 6.39734 56.1328C6.30615 56.3271 6.12377 56.5213 5.94139 56.4242C5.02949 55.6473 5.02949 55.7444 5.39425 55.3559C6.30615 54.2876 3.47927 53.6078 3.93522 52.6366Z"/><path fill="#69738D" d="M40.0461 4.75914C40.0461 4.75914 40.0461 4.85626 40.0461 4.75914C40.1373 4.95338 40.1373 5.05049 40.0461 5.24473C38.9518 6.70147 38.7694 6.70147 39.3166 7.28417C39.4078 7.38129 39.4078 7.38129 39.3166 7.4784C38.9518 7.86687 38.8606 8.25533 38.6782 8.0611C36.3985 6.11877 39.6813 5.24473 38.587 4.27356V4.17644L39.1342 3.39951H39.2254C39.7725 3.8851 40.0461 3.39951 40.502 2.81682C41.1404 2.03988 41.8699 1.94277 42.5994 2.62258C42.6906 2.7197 42.873 2.81682 42.7818 3.01105C42.2346 3.78798 42.3258 3.78798 41.9611 3.49663C41.3227 2.7197 40.7756 5.14761 40.0461 4.75914Z"/><path fill="#69738D" d="M104.7 43.022C104.791 42.9249 104.973 42.8278 105.156 42.9249C106.706 43.7989 106.797 43.9932 107.162 43.3133C107.162 43.2162 107.253 43.2162 107.344 43.2162C107.8 43.5076 108.074 43.6047 107.983 43.7989C106.615 46.5182 105.156 43.2162 104.426 44.5759C104.426 44.5759 104.335 44.673 104.335 44.5759L103.514 44.0903C103.514 44.0903 103.423 43.9932 103.514 43.9932C103.879 43.3133 103.423 43.2162 102.785 42.8278C101.964 42.3422 101.69 41.5653 102.146 40.6912C102.238 40.497 102.329 40.3027 102.42 40.3999C103.241 40.8854 103.241 40.7883 102.967 41.1768C102.602 42.0508 104.882 42.1479 104.7 43.022Z"/><path fill="#69738D" d="M4.84717 39.5269C4.93836 39.4298 5.12074 39.3326 5.30312 39.4298C6.85334 40.3038 6.94453 40.498 7.30929 39.8182C7.30929 39.7211 7.40048 39.7211 7.49167 39.7211C7.94761 40.0125 8.22119 40.1096 8.13 40.3038C6.76215 43.0231 5.30312 39.7211 4.5736 41.0807C4.5736 41.0807 4.48241 41.1779 4.48241 41.0807L3.66171 40.5952C3.66171 40.5952 3.57052 40.498 3.66171 40.498C4.02647 39.8182 3.57052 39.7211 2.93219 39.3326C2.11149 38.8471 1.83792 38.0701 2.29386 37.1961C2.38505 37.0019 2.47624 36.8076 2.56743 36.9047C3.38814 37.3903 3.38814 37.2932 3.11457 37.6817C2.74981 38.5557 5.02955 38.6528 4.84717 39.5269Z"/><path fill="#69738D" d="M100.687 8.83728C100.87 8.83728 100.961 8.9344 101.052 9.03152C101.599 10.7796 101.508 10.9738 102.238 10.7796C102.329 10.7796 102.42 10.7796 102.42 10.8767C102.602 11.3623 102.785 11.7508 102.511 11.7508C99.7754 12.7219 100.87 9.32287 99.4107 9.80845C99.4107 9.80845 99.3195 9.80845 99.3195 9.71133L99.0459 8.83728C99.0459 8.83728 99.0459 8.74017 99.1371 8.74017C99.7754 8.54593 99.593 8.06035 99.3195 7.28342C99.0459 6.31226 99.4107 5.53533 100.323 5.24398C100.505 5.14686 100.687 5.04974 100.687 5.24398C100.961 6.21514 101.052 6.11802 100.596 6.21514C99.7754 6.60361 101.417 8.3517 100.687 8.83728Z"/><path fill="#69738D" d="M57.0078 1.35963C56.9166 1.45675 56.8254 1.55386 56.643 1.55386C55.184 1.06828 55.0928 0.971164 54.9104 1.65098C54.9104 1.7481 54.8193 1.74809 54.7281 1.74809C54.2721 1.65098 53.9985 1.65098 54.0897 1.45675C54.8193 -1.1654 56.5519 1.35963 56.9166 0.0971158L57.0078 0L57.7373 0.194233L57.8285 0.291348C57.6461 0.971163 58.1021 0.971164 58.6492 1.1654C59.4699 1.35963 59.7435 2.03944 59.5611 2.91349C59.5611 3.10772 59.4699 3.20484 59.3787 3.20484C58.6492 3.01061 58.6492 3.10772 58.7404 2.71926C58.9228 1.74809 57.0078 2.13656 57.0078 1.35963Z"/><path fill="#69738D" d="M7.85643 85.4631C7.85643 85.4631 7.76524 85.4631 7.85643 85.4631C7.76524 85.5603 7.67405 85.6574 7.49167 85.6574C6.03264 85.1718 5.94146 85.0747 5.75908 85.7545C5.75908 85.8516 5.66788 85.8516 5.57669 85.8516C5.12075 85.7545 4.84718 85.7545 4.93837 85.5603C5.66789 82.9381 7.40049 85.4632 7.76525 84.2006L7.85643 84.1035L8.58595 84.2978L8.67714 84.3949C8.49476 85.0747 8.95071 85.0747 9.49785 85.2689C10.3186 85.4631 10.5921 86.143 10.4097 87.017C10.4097 87.2112 10.3186 87.3084 10.2274 87.3084C9.49784 87.1141 9.49785 87.2112 9.58904 86.8228C9.77142 85.8516 7.76524 86.2401 7.85643 85.4631Z"/><path fill="url(#paint3_linear)" d="M75.0153 95.7361C68.0849 95.9304 59.7867 95.7361 53.9505 95.639C48.1144 95.8333 39.8161 95.9304 32.8857 95.7361C39.725 91.5601 42.0959 83.8879 42.4606 78.8379H65.3492C65.8964 83.8879 68.2673 91.5601 75.0153 95.7361Z"/><path fill="#262A31" d="M33.6148 97.0007H74.2853C74.8325 97.0007 75.3796 96.5151 75.3796 95.8353C75.3796 95.2526 74.9236 94.6699 74.2853 94.6699H33.6148C33.0676 94.6699 32.5205 95.1555 32.5205 95.8353C32.6117 96.5151 33.0676 97.0007 33.6148 97.0007Z"/><path fill="#353B4A" d="M97.2649 14.5484V78.0625C97.2649 79.6164 96.0795 80.7818 94.7116 80.7818H13.6441C12.2763 80.7818 11.0908 79.5192 11.0908 78.0625V14.5484C11.0908 13.0916 12.2763 11.8291 13.6441 11.8291H94.7116C96.1707 11.8291 97.2649 12.9945 97.2649 14.5484Z"/><path fill="#262A31" d="M97.2649 14.5484V69.2249H11.0908V14.5484C11.0908 13.0916 12.2763 11.8291 13.6441 11.8291H94.7116C96.1707 11.8291 97.2649 12.9945 97.2649 14.5484Z"/><path fill="#474E61" d="M93.982 15.2266H14.0088V66.1156H93.982V15.2266Z"/><path fill="#262A31" d="M54.0407 77.4791C55.1991 77.4791 56.1381 76.479 56.1381 75.2454C56.1381 74.0118 55.1991 73.0117 54.0407 73.0117C52.8824 73.0117 51.9434 74.0118 51.9434 75.2454C51.9434 76.479 52.8824 77.4791 54.0407 77.4791Z"/><path fill="#354157" d="M17.565 58.3477H15.7412V60.29H17.565V58.3477Z"/><path fill="#354157" d="M17.565 54.4629H15.7412V56.4052H17.565V54.4629Z"/><path fill="#354157" d="M17.565 50.6748H15.7412V52.6171H17.565V50.6748Z"/><path fill="url(#paint4_linear)" d="M17.565 46.8877H15.7412V48.83H17.565V46.8877Z"/><path fill="#354157" d="M17.565 43.0029H15.7412V44.9453H17.565V43.0029Z"/><path fill="#6A7590" d="M17.565 39.2158H15.7412V41.1581H17.565V39.2158Z"/><path fill="#354157" d="M21.3043 62.1348H19.4805V64.0771H21.3043V62.1348Z"/><path fill="#354157" d="M21.3043 58.3477H19.4805V60.29H21.3043V58.3477Z"/><path fill="#354157" d="M21.3043 50.6748H19.4805V52.6171H21.3043V50.6748Z"/><path fill="#354157" d="M21.3043 46.8877H19.4805V48.83H21.3043V46.8877Z"/><path fill="#354157" d="M21.3043 43.0029H19.4805V44.9453H21.3043V43.0029Z"/><path fill="#354157" d="M21.3043 39.2158H19.4805V41.1581H21.3043V39.2158Z"/><path fill="#354157" d="M21.3043 35.4277H19.4805V37.3701H21.3043V35.4277Z"/><path fill="url(#paint5_linear)" d="M21.3043 31.543H19.4805V33.4853H21.3043V31.543Z"/><path fill="#354157" d="M25.0425 62.1348H23.2188V64.0771H25.0425V62.1348Z"/><path fill="#354157" d="M25.0425 58.3477H23.2188V60.29H25.0425V58.3477Z"/><path fill="#354157" d="M25.0425 54.4629H23.2188V56.4052H25.0425V54.4629Z"/><path fill="#354157" d="M25.0425 50.6748H23.2188V52.6171H25.0425V50.6748Z"/><path fill="url(#paint6_linear)" d="M25.0425 46.8877H23.2188V48.83H25.0425V46.8877Z"/><path fill="#6A7590" d="M25.0425 43.0029H23.2188V44.9453H25.0425V43.0029Z"/><path fill="#354157" d="M25.0425 39.2158H23.2188V41.1581H25.0425V39.2158Z"/><path fill="#6A7590" d="M25.0425 35.4277H23.2188V37.3701H25.0425V35.4277Z"/><path fill="#354157" d="M25.0425 31.543H23.2188V33.4853H25.0425V31.543Z"/><path fill="#6A7590" d="M25.0435 27.7559H23.2197V29.6982H25.0435V27.7559Z"/><path fill="#354157" d="M28.7818 62.1348H26.958V64.0771H28.7818V62.1348Z"/><path fill="#354157" d="M28.7818 58.3477H26.958V60.29H28.7818V58.3477Z"/><path fill="#354157" d="M28.7818 54.4629H26.958V56.4052H28.7818V54.4629Z"/><path fill="#354157" d="M28.7818 50.6748H26.958V52.6171H28.7818V50.6748Z"/><path fill="#354157" d="M28.7818 46.8877H26.958V48.83H28.7818V46.8877Z"/><path fill="#6A7590" d="M28.7818 43.0029H26.958V44.9453H28.7818V43.0029Z"/><path fill="#354157" d="M28.7818 39.2158H26.958V41.1581H28.7818V39.2158Z"/><path fill="#354157" d="M28.7818 35.4277H26.958V37.3701H28.7818V35.4277Z"/><path fill="#354157" d="M32.5211 62.1348H30.6973V64.0771H32.5211V62.1348Z"/><path fill="#354157" d="M32.5211 58.3477H30.6973V60.29H32.5211V58.3477Z"/><path fill="#354157" d="M32.5211 54.4629H30.6973V56.4052H32.5211V54.4629Z"/><path fill="#354157" d="M32.5211 46.8877H30.6973V48.83H32.5211V46.8877Z"/><path fill="url(#paint7_linear)" d="M32.5211 43.0029H30.6973V44.9453H32.5211V43.0029Z"/><path fill="#6A7590" d="M32.5211 39.2158H30.6973V41.1581H32.5211V39.2158Z"/><path fill="#354157" d="M36.2603 62.1348H34.4365V64.0771H36.2603V62.1348Z"/><path fill="#354157" d="M36.2603 58.3477H34.4365V60.29H36.2603V58.3477Z"/><path fill="#354157" d="M36.2603 54.4629H34.4365V56.4052H36.2603V54.4629Z"/><path fill="#354157" d="M36.2603 50.6748H34.4365V52.6171H36.2603V50.6748Z"/><path fill="#354157" d="M36.2603 46.8877H34.4365V48.83H36.2603V46.8877Z"/><path fill="#354157" d="M36.2603 43.0029H34.4365V44.9453H36.2603V43.0029Z"/><path fill="#6A7590" d="M36.2603 39.2158H34.4365V41.1581H36.2603V39.2158Z"/><path fill="#354157" d="M36.2603 35.4277H34.4365V37.3701H36.2603V35.4277Z"/><path fill="#354157" d="M36.2603 31.543H34.4365V33.4853H36.2603V31.543Z"/><path fill="#354157" d="M39.9976 62.1348H38.1738V64.0771H39.9976V62.1348Z"/><path fill="#354157" d="M39.9976 58.3477H38.1738V60.29H39.9976V58.3477Z"/><path fill="#354157" d="M39.9976 54.4629H38.1738V56.4052H39.9976V54.4629Z"/><path fill="#354157" d="M39.9976 46.8877H38.1738V48.83H39.9976V46.8877Z"/><path fill="#6A7590" d="M39.9976 43.0029H38.1738V44.9453H39.9976V43.0029Z"/><path fill="url(#paint8_linear)" d="M43.7359 62.1348H41.9121V64.0771H43.7359V62.1348Z"/><path fill="#354157" d="M43.7359 58.3477H41.9121V60.29H43.7359V58.3477Z"/><path fill="#354157" d="M43.7359 54.4629H41.9121V56.4052H43.7359V54.4629Z"/><path fill="#6A7590" d="M43.7359 50.6748H41.9121V52.6171H43.7359V50.6748Z"/><path fill="#354157" d="M43.7359 46.8877H41.9121V48.83H43.7359V46.8877Z"/><path fill="#354157" d="M43.7359 39.2158H41.9121V41.1581H43.7359V39.2158Z"/><path fill="#6A7590" d="M43.7359 35.4277H41.9121V37.3701H43.7359V35.4277Z"/><path fill="#354157" d="M47.4752 62.1348H45.6514V64.0771H47.4752V62.1348Z"/><path fill="#354157" d="M47.4752 58.3477H45.6514V60.29H47.4752V58.3477Z"/><path fill="url(#paint9_linear)" d="M47.4752 54.4629H45.6514V56.4052H47.4752V54.4629Z"/><path fill="#354157" d="M47.4752 50.6748H45.6514V52.6171H47.4752V50.6748Z"/><path fill="#354157" d="M47.4752 46.8877H45.6514V48.83H47.4752V46.8877Z"/><path fill="#354157" d="M47.4752 43.0029H45.6514V44.9453H47.4752V43.0029Z"/><path fill="#6A7590" d="M47.4752 39.2158H45.6514V41.1581H47.4752V39.2158Z"/><path fill="#354157" d="M47.4752 31.543H45.6514V33.4853H47.4752V31.543Z"/><path fill="#6A7590" d="M47.4761 27.7559H45.6523V29.6982H47.4761V27.7559Z"/><path fill="#354157" d="M73.5562 58.3477H71.7324V60.29H73.5562V58.3477Z"/><path fill="#354157" d="M73.5562 50.6748H71.7324V52.6171H73.5562V50.6748Z"/><path fill="#354157" d="M73.5562 46.8877H71.7324V48.83H73.5562V46.8877Z"/><path fill="#6A7590" d="M73.5562 43.0029H71.7324V44.9453H73.5562V43.0029Z"/><path fill="#354157" d="M73.5562 39.2158H71.7324V41.1581H73.5562V39.2158Z"/><path fill="#354157" d="M73.5562 35.4277H71.7324V37.3701H73.5562V35.4277Z"/><path fill="#354157" d="M77.2945 62.1348H75.4707V64.0771H77.2945V62.1348Z"/><path fill="#354157" d="M77.2945 58.3477H75.4707V60.29H77.2945V58.3477Z"/><path fill="#354157" d="M77.2945 54.4629H75.4707V56.4052H77.2945V54.4629Z"/><path fill="#354157" d="M77.2945 50.6748H75.4707V52.6171H77.2945V50.6748Z"/><path fill="#354157" d="M77.2945 46.8877H75.4707V48.83H77.2945V46.8877Z"/><path fill="url(#paint10_linear)" d="M77.2945 43.0029H75.4707V44.9453H77.2945V43.0029Z"/><path fill="#6A7590" d="M77.2945 39.2158H75.4707V41.1581H77.2945V39.2158Z"/><path fill="#354157" d="M81.0328 62.1348H79.209V64.0771H81.0328V62.1348Z"/><path fill="#354157" d="M81.0328 58.3477H79.209V60.29H81.0328V58.3477Z"/><path fill="#354157" d="M81.0328 54.4629H79.209V56.4052H81.0328V54.4629Z"/><path fill="#354157" d="M81.0328 50.6748H79.209V52.6171H81.0328V50.6748Z"/><path fill="#354157" d="M81.0328 46.8877H79.209V48.83H81.0328V46.8877Z"/><path fill="#354157" d="M81.0328 43.0029H79.209V44.9453H81.0328V43.0029Z"/><path fill="#6A7590" d="M81.0328 39.2158H79.209V41.1581H81.0328V39.2158Z"/><path fill="#354157" d="M81.0328 35.4277H79.209V37.3701H81.0328V35.4277Z"/><path fill="#354157" d="M81.0328 31.543H79.209V33.4853H81.0328V31.543Z"/><path fill="#354157" d="M84.7711 62.1348H82.9473V64.0771H84.7711V62.1348Z"/><path fill="#354157" d="M84.7711 58.3477H82.9473V60.29H84.7711V58.3477Z"/><path fill="#354157" d="M84.7711 54.4629H82.9473V56.4052H84.7711V54.4629Z"/><path fill="#354157" d="M84.7711 50.6748H82.9473V52.6171H84.7711V50.6748Z"/><path fill="#354157" d="M84.7711 46.8877H82.9473V48.83H84.7711V46.8877Z"/><path fill="url(#paint11_linear)" d="M88.5103 62.1348H86.6865V64.0771H88.5103V62.1348Z"/><path fill="#354157" d="M88.5103 58.3477H86.6865V60.29H88.5103V58.3477Z"/><path fill="#354157" d="M88.5103 54.4629H86.6865V56.4052H88.5103V54.4629Z"/><path fill="#6A7590" d="M88.5103 50.6748H86.6865V52.6171H88.5103V50.6748Z"/><path fill="#354157" d="M88.5103 46.8877H86.6865V48.83H88.5103V46.8877Z"/><path fill="url(#paint12_linear)" d="M88.5103 43.0029H86.6865V44.9453H88.5103V43.0029Z"/><path fill="#354157" d="M88.5103 39.2158H86.6865V41.1581H88.5103V39.2158Z"/><path fill="#6A7590" d="M88.5103 35.4277H86.6865V37.3701H88.5103V35.4277Z"/><path fill="#354157" d="M92.2486 62.1348H90.4248V64.0771H92.2486V62.1348Z"/><path fill="#354157" d="M92.2486 58.3477H90.4248V60.29H92.2486V58.3477Z"/><path fill="url(#paint13_linear)" d="M92.2486 54.4629H90.4248V56.4052H92.2486V54.4629Z"/><path fill="#354157" d="M92.2486 50.6748H90.4248V52.6171H92.2486V50.6748Z"/><path fill="#354157" d="M92.2486 46.8877H90.4248V48.83H92.2486V46.8877Z"/><path fill="#354157" d="M92.2486 43.0029H90.4248V44.9453H92.2486V43.0029Z"/><path fill="#6A7590" d="M92.2486 39.2158H90.4248V41.1581H92.2486V39.2158Z"/><path fill="#354157" d="M92.2486 31.543H90.4248V33.4853H92.2486V31.543Z"/><path fill="#6A7590" d="M92.2496 27.7559H90.4258V29.6982H92.2496V27.7559Z"/><path fill="#354157" d="M51.2134 62.1348H49.3896V64.0771H51.2134V62.1348Z"/><path fill="#354157" d="M51.2134 58.3477H49.3896V60.29H51.2134V58.3477Z"/><path fill="#354157" d="M51.2134 54.4629H49.3896V56.4052H51.2134V54.4629Z"/><path fill="#6A7590" d="M51.2134 46.8877H49.3896V48.83H51.2134V46.8877Z"/><path fill="#354157" d="M51.2134 39.2158H49.3896V41.1581H51.2134V39.2158Z"/><path fill="#6A7590" d="M51.2134 35.4277H49.3896V37.3701H51.2134V35.4277Z"/><path fill="#354157" d="M51.2134 31.543H49.3896V33.4853H51.2134V31.543Z"/><path fill="#6A7590" d="M51.2144 27.7559H49.3906V29.6982H51.2144V27.7559Z"/><path fill="#354157" d="M54.8619 58.3477H53.0381V60.29H54.8619V58.3477Z"/><path fill="#6A7590" d="M54.8619 54.4629H53.0381V56.4052H54.8619V54.4629Z"/><path fill="#354157" d="M54.8619 50.6748H53.0381V52.6171H54.8619V50.6748Z"/><path fill="#354157" d="M54.8619 46.8877H53.0381V48.83H54.8619V46.8877Z"/><path fill="url(#paint14_linear)" d="M54.8619 43.0029H53.0381V44.9453H54.8619V43.0029Z"/><path fill="#354157" d="M54.8619 39.2158H53.0381V41.1581H54.8619V39.2158Z"/><path fill="#354157" d="M54.8619 35.4277H53.0381V37.3701H54.8619V35.4277Z"/><path fill="#354157" d="M58.6002 62.1348H56.7764V64.0771H58.6002V62.1348Z"/><path fill="#354157" d="M58.6002 54.4629H56.7764V56.4052H58.6002V54.4629Z"/><path fill="url(#paint15_linear)" d="M58.6002 50.6748H56.7764V52.6171H58.6002V50.6748Z"/><path fill="#354157" d="M58.6002 46.8877H56.7764V48.83H58.6002V46.8877Z"/><path fill="#6A7590" d="M58.6002 43.0029H56.7764V44.9453H58.6002V43.0029Z"/><path fill="url(#paint16_linear)" d="M58.6002 39.2158H56.7764V41.1581H58.6002V39.2158Z"/><path fill="#354157" d="M62.3394 62.1348H60.5156V64.0771H62.3394V62.1348Z"/><path fill="#6A7590" d="M62.3394 50.6748H60.5156V52.6171H62.3394V50.6748Z"/><path fill="#354157" d="M62.3394 46.8877H60.5156V48.83H62.3394V46.8877Z"/><path fill="#354157" d="M62.3394 43.0029H60.5156V44.9453H62.3394V43.0029Z"/><path fill="#354157" d="M66.0777 62.1348H64.2539V64.0771H66.0777V62.1348Z"/><path fill="#354157" d="M66.0777 58.3477H64.2539V60.29H66.0777V58.3477Z"/><path fill="#354157" d="M66.0777 54.4629H64.2539V56.4052H66.0777V54.4629Z"/><path fill="#354157" d="M66.0777 50.6748H64.2539V52.6171H66.0777V50.6748Z"/><path fill="#6A7590" d="M66.0777 46.8877H64.2539V48.83H66.0777V46.8877Z"/><path fill="#354157" d="M66.0777 43.0029H64.2539V44.9453H66.0777V43.0029Z"/><path fill="url(#paint17_linear)" d="M66.0777 39.2158H64.2539V41.1581H66.0777V39.2158Z"/><path fill="#354157" d="M66.0777 35.4277H64.2539V37.3701H66.0777V35.4277Z"/><path fill="#354157" d="M69.817 62.1348H67.9932V64.0771H69.817V62.1348Z"/><path fill="#354157" d="M69.817 54.4629H67.9932V56.4052H69.817V54.4629Z"/><path fill="#6A7590" d="M69.817 50.6748H67.9932V52.6171H69.817V50.6748Z"/><path fill="#434B60" d="M104.56 56.5012V69.0292C104.56 69.2235 104.56 69.4177 104.56 69.6119C104.378 71.0687 103.648 72.3312 102.463 73.011L92.3406 79.2265C91.3376 79.8092 90.2433 80.0034 89.149 79.7121C88.7842 79.6149 88.4195 79.4207 88.0547 79.2265L77.9327 73.011C77.2032 72.5254 76.5648 71.8456 76.2001 70.9716C75.9265 70.3889 75.7441 69.7091 75.7441 69.0292V56.5012C75.7441 55.8214 75.8353 55.2387 76.1089 54.656C76.4737 53.782 77.112 53.005 77.8415 52.5195L87.9635 46.304C88.9666 45.7213 90.0609 45.5271 91.1552 45.8184C91.5199 45.9155 91.8847 46.1098 92.2494 46.304L102.371 52.5195C103.283 53.1022 103.922 53.9762 104.286 54.9474C104.56 55.4329 104.56 56.0156 104.56 56.5012Z"/><path fill="#566079" d="M104.377 54.9474L99.5444 64.7561L81.2153 61.8426L76.0175 70.9716C75.7439 70.3889 75.5615 69.7091 75.5615 69.0292V56.5012C75.5615 55.8214 75.6527 55.2387 75.9263 54.656C76.291 53.782 76.9294 53.005 77.6589 52.5195L87.7809 46.304C88.784 45.7213 89.8783 45.5271 90.9726 45.8184C91.3373 45.9155 91.7021 46.1098 92.0668 46.304L102.189 52.5195C103.374 53.1022 104.013 53.9762 104.377 54.9474Z"/><path fill="#69738D" d="M104.561 69.6119C104.378 71.0687 103.649 72.3312 102.464 73.011L92.3415 79.2265C91.3384 79.8092 90.2441 80.0034 89.1498 79.7121L76.0186 54.656C76.3833 53.782 77.0216 53.005 77.7512 52.5195L87.8732 46.304C88.8763 45.7213 89.9706 45.5271 91.0648 45.8184L104.561 69.6119Z"/><path fill="#1E242D" d="M95.441 60.483V69.0292L91.8846 66.8927V62.6195L90.0608 61.4542L88.2371 62.6195V66.8927L84.6807 69.0292V60.483C84.6807 60.1916 84.863 59.9003 85.0454 59.8032L89.6961 56.7926C89.8785 56.6954 90.152 56.6954 90.3344 56.7926L94.9851 59.8032C95.3498 59.9003 95.441 60.1916 95.441 60.483Z"/><path fill="#69738D" d="M35.3477 20.1799C36.8068 22.6079 36.8068 25.6185 35.3477 28.0464C32.4297 32.9993 28.5085 37.0782 23.949 40.1859C21.6693 41.7398 18.8424 41.7398 16.5627 40.1859C11.912 37.0782 7.99086 32.9993 5.07279 28.0464C3.61376 25.6185 3.61376 22.6079 5.07279 20.1799C7.99086 15.227 11.912 11.1481 16.4715 8.0404C18.7512 6.48653 21.5781 6.48653 23.8578 8.0404C28.5085 11.1481 32.4297 15.227 35.3477 20.1799Z"/><path fill="#1E242D" d="M26.0459 21.2488C25.7723 21.1517 25.4987 21.0546 25.2252 20.9574C25.4076 19.6949 25.7723 18.0439 25.134 16.7814C24.8604 16.2959 24.4957 15.9074 23.8573 15.8103C22.4895 15.7132 21.0305 16.9757 20.1186 17.8497C18.9331 16.6843 17.93 16.0045 16.8357 15.8103C15.7415 15.616 15.1031 16.2959 14.9208 17.4612C14.6472 18.7238 14.9208 20.0834 15.1031 20.9574C14.556 21.1517 11.2732 22.22 11.4556 24.2594C11.6379 26.1046 14.6472 27.0758 15.1031 27.27C14.9208 28.5325 14.556 29.8921 15.1031 31.2518C15.2855 31.8345 15.6503 32.2229 16.2886 32.3201C17.6564 32.6114 19.2067 31.2518 20.2098 30.3777C21.1217 31.1547 22.1247 32.2229 23.4926 32.3201C25.6811 32.6114 25.7723 29.6008 25.3164 27.1729C26.5018 26.6873 27.9609 26.2017 28.5992 25.0363C29.6023 23.3853 27.7785 22.0257 26.0459 21.2488ZM23.1278 16.7814C23.7661 16.5872 24.2221 16.5872 24.5869 17.1699C25.0428 18.1411 24.8604 19.5978 24.5869 20.6661C24.5869 20.8603 24.5869 20.7632 23.0366 20.4719C22.0335 20.2776 22.5807 20.8603 20.8481 18.4324C20.8481 18.4324 20.8481 18.4324 20.8481 18.3353C21.2128 17.9468 22.0335 17.0728 23.1278 16.7814ZM16.6534 25.0363C17.0181 25.7161 17.3829 26.2988 17.6564 26.9787C17.1093 26.8815 16.5622 26.7844 16.015 26.6873C16.2886 26.1046 16.471 25.5219 16.6534 25.0363ZM16.5622 23.094C16.3798 22.6084 16.1974 22.0257 16.015 21.5401C16.5622 21.443 17.0181 21.3459 17.5653 21.2488C17.0181 22.4142 17.2005 21.9286 16.5622 23.094C16.6534 23.094 16.6534 23.094 16.5622 23.094ZM17.1093 24.1623C17.0181 23.8709 18.386 21.5401 18.5683 21.2488C18.6595 21.1517 18.6595 21.1517 18.7507 21.1517C20.2098 21.0546 20.0274 21.0546 21.6688 21.1517C21.9424 21.1517 23.219 23.6767 23.3102 23.968C23.3102 24.0652 23.3102 24.1623 23.3102 24.1623C22.2159 26.396 22.1247 26.396 21.8512 26.8815C21.6688 27.0758 19.1155 26.9787 18.7507 26.9787C18.6595 26.9787 18.6595 26.9787 18.5683 26.8815C18.0212 26.0075 17.4741 25.1334 17.1093 24.1623ZM23.7661 24.9392C23.9485 25.5219 24.1309 26.0075 24.3133 26.5902C23.7661 26.6873 23.219 26.7844 22.6719 26.8815C23.1278 26.2017 23.4014 25.619 23.7661 24.9392ZM23.7661 23.094C23.4014 22.4142 23.1278 21.8315 22.7631 21.1517C23.3102 21.2488 23.8573 21.3459 24.4045 21.443C24.1309 22.1228 23.9485 22.6084 23.7661 23.094ZM20.2098 19.0151C20.5745 19.5007 20.8481 19.8892 21.2128 20.2776C20.5745 20.2776 19.9362 20.2776 19.2067 20.2776C19.4802 19.8892 19.845 19.4036 20.2098 19.0151ZM16.9269 16.6843C18.2036 16.8786 19.4802 18.2382 19.7538 18.4324C17.6564 21.0546 19.1155 20.1805 15.9238 20.7632C15.4679 19.0151 15.2855 16.393 16.9269 16.6843ZM15.1943 26.396C14.556 26.2017 13.9177 25.9104 13.3705 25.5219C10.1789 23.3853 14.9208 21.8315 15.2855 21.7344C16.1062 23.968 16.1974 23.968 16.1062 24.1623C15.2855 26.5902 15.3767 26.4931 15.1943 26.396ZM15.8327 30.9604C15.2855 29.795 15.7415 27.6585 15.8327 27.3671C17.93 27.7556 17.1093 27.5614 18.1124 27.7556C18.2036 27.7556 18.2036 27.7556 18.2948 27.8527C18.2948 27.9498 19.6626 29.6979 19.7538 29.6979C19.2979 30.2806 16.5622 32.5143 15.8327 30.9604ZM19.2067 27.8527C19.9362 27.8527 20.5745 27.8527 21.304 27.8527C20.9393 28.3383 20.6657 28.7268 20.3009 29.2123C19.845 28.7268 19.5714 28.2412 19.2067 27.8527ZM24.4957 30.9604C23.9485 32.5143 21.3952 30.572 20.7569 29.795C22.8543 27.0758 21.3952 28.1441 24.5869 27.4642C24.7692 28.5325 24.9516 29.6979 24.4957 30.9604ZM25.2252 26.396C25.0428 26.4931 25.134 26.5902 24.3133 24.2594C24.2221 23.968 24.2221 24.0652 25.0428 21.9286C25.0428 21.8315 25.134 21.8315 25.2252 21.8315C29.2375 23.094 28.964 25.0363 25.2252 26.396Z"/><path fill="#1E242D" d="M20.2094 25.715C21.0301 25.715 21.7596 25.0352 21.7596 24.0641C21.7596 23.19 21.1213 22.4131 20.2094 22.4131C19.3887 22.4131 18.6592 23.0929 18.6592 24.0641C18.6592 24.9381 19.2975 25.715 20.2094 25.715Z"/><path fill="#69738D" d="M66.8081 43.4884C74.8661 43.4884 81.3984 36.5315 81.3984 27.9498C81.3984 19.368 74.8661 12.4111 66.8081 12.4111C58.7501 12.4111 52.2178 19.368 52.2178 27.9498C52.2178 36.5315 58.7501 43.4884 66.8081 43.4884Z"/><path fill="#354157" d="M70.9118 24.0654C71.459 24.0654 71.8237 24.0654 72.2797 24.0654C73.374 24.0654 73.9211 24.9395 74.1947 26.1049C74.4682 27.2703 74.5594 28.1443 74.1035 29.6982C73.8299 30.7665 73.1004 31.5434 71.8237 31.5434C70.1823 31.5434 68.4497 31.5434 66.7171 31.5434C66.7171 31.7376 66.7171 32.029 66.7171 32.2232C67.9026 32.2232 69.0881 32.2232 70.2735 32.2232C70.2735 32.2232 70.2735 32.2232 70.2735 32.3203C70.2735 34.1655 70.4559 34.9425 69.6352 35.4281C68.5409 36.1079 67.2643 36.1079 66.0788 35.8165C65.0757 35.6223 63.9814 35.1367 63.9814 33.8742C63.9814 33.5828 63.9814 30.378 63.9814 30.378C63.9814 29.8924 64.0726 29.5039 64.4374 29.1155C64.8022 28.6299 65.2581 28.4357 65.8052 28.4357C66.8083 28.4357 67.8114 28.4357 68.8145 28.4357C69.8176 28.4357 70.6383 27.6587 70.9118 26.6876C71.003 26.3962 70.9118 26.2991 70.9118 24.0654ZM68.9057 33.0973C68.5409 33.0973 68.2674 33.3886 68.2674 33.7771C68.2674 34.1655 68.5409 34.4569 68.9057 34.4569C69.2704 34.4569 69.544 34.1655 69.544 33.7771C69.544 33.3886 69.2704 33.0973 68.9057 33.0973Z"/><path fill="#1E242D" d="M63.3425 32.2227C61.8835 32.2227 61.4275 32.3198 60.8804 31.8342C60.1509 31.2515 59.9685 30.0861 59.8773 29.2121C59.6949 27.6582 59.8773 25.4245 61.5187 24.8418C61.9746 24.6476 61.7923 24.7447 67.446 24.7447C67.446 24.5505 67.446 24.2591 67.446 24.0649C66.2606 24.0649 65.0751 24.0649 63.8896 24.0649C63.8896 24.0649 63.8896 22.3168 63.8896 22.1226C63.8896 21.7341 64.072 21.2485 64.3456 20.9572C64.8015 20.5687 65.4399 20.4716 65.987 20.3745C67.3548 20.1803 70.2729 20.1803 70.2729 22.3168C70.2729 23.4822 70.2729 24.6476 70.2729 25.9101C70.2729 26.8813 69.5434 27.7553 68.4491 27.7553C67.446 27.7553 66.4429 27.7553 65.4398 27.7553C64.2544 27.7553 63.2513 28.8236 63.2513 30.0861C63.3425 30.8631 63.3425 31.4458 63.3425 32.2227ZM64.7103 22.5111C64.7103 22.8995 64.9839 23.1909 65.3487 23.1909C65.7134 23.1909 65.987 22.8995 65.987 22.5111C65.987 22.1226 65.7134 21.8312 65.3487 21.8312C64.9839 21.8312 64.7103 22.1226 64.7103 22.5111Z"/><path fill="#69738D" d="M48.6608 59.1248L46.7459 79.1308L34.8912 86.0261H34.8L22.8542 79.1308L20.7568 59.1248L34.8912 54.1719L48.6608 59.1248Z"/><path fill="#566079" d="M48.6612 59.1238L46.7462 79.1298L34.8916 86.0251V54.1709L48.6612 59.1238Z"/><path fill="#1E242D" d="M34.8916 59.416L27.4141 76.7998L30.2409 76.897L31.7912 73.1094H37.9009L39.4511 76.9941L42.1868 76.897L34.8916 59.416ZM32.7031 70.3902L34.8916 65.0488L36.989 70.3902H32.7031Z"/><path stroke="#2B323C" stroke-linecap="round" stroke-linejoin="round" stroke-miterlimit="10" stroke-width="2" d="M8.17285 96.5146H101.369"/><defs><linearGradient id="paint0_linear" x1="75.676" x2="81.586" y1="3.718" y2="3.718" gradientUnits="userSpaceOnUse"><stop stop-color="#FF66A9"/><stop offset="1" stop-color="#F53689"/></linearGradient><linearGradient id="paint1_linear" x1="103.534" x2="108.035" y1="27.485" y2="27.485" gradientUnits="userSpaceOnUse"><stop stop-color="#FF66A9"/><stop offset="1" stop-color="#F53689"/></linearGradient><linearGradient id="paint2_linear" x1="4.36" x2="2.627" y1="50.628" y2="55.038" gradientUnits="userSpaceOnUse"><stop stop-color="#83A6FF"/><stop offset="1" stop-color="#5A78FF"/></linearGradient><linearGradient id="paint3_linear" x1="53.861" x2="53.861" y1="95.404" y2="80.207" gradientUnits="userSpaceOnUse"><stop stop-color="#474755"/><stop offset=".991" stop-color="#2F3338"/></linearGradient><linearGradient id="paint4_linear" x1="15.774" x2="17.605" y1="47.837" y2="47.837" gradientUnits="userSpaceOnUse"><stop stop-color="#FF66A9"/><stop offset="1" stop-color="#F53689"/></linearGradient><linearGradient id="paint5_linear" x1="19.506" x2="21.336" y1="32.544" y2="32.544" gradientUnits="userSpaceOnUse"><stop stop-color="#FF66A9"/><stop offset="1" stop-color="#F53689"/></linearGradient><linearGradient id="paint6_linear" x1="23.236" x2="25.066" y1="47.837" y2="47.837" gradientUnits="userSpaceOnUse"><stop stop-color="#83A6FF"/><stop offset="1" stop-color="#5A78FF"/></linearGradient><linearGradient id="paint7_linear" x1="30.698" x2="32.528" y1="44.014" y2="44.014" gradientUnits="userSpaceOnUse"><stop stop-color="#FF66A9"/><stop offset="1" stop-color="#F53689"/></linearGradient><linearGradient id="paint8_linear" x1="41.889" x2="43.719" y1="63.13" y2="63.13" gradientUnits="userSpaceOnUse"><stop stop-color="#83A6FF"/><stop offset="1" stop-color="#5A78FF"/></linearGradient><linearGradient id="paint9_linear" x1="45.62" x2="47.45" y1="55.484" y2="55.484" gradientUnits="userSpaceOnUse"><stop stop-color="#FF66A9"/><stop offset="1" stop-color="#F53689"/></linearGradient><linearGradient id="paint10_linear" x1="75.495" x2="77.326" y1="44.014" y2="44.014" gradientUnits="userSpaceOnUse"><stop stop-color="#FF66A9"/><stop offset="1" stop-color="#F53689"/></linearGradient><linearGradient id="paint11_linear" x1="86.687" x2="88.517" y1="63.13" y2="63.13" gradientUnits="userSpaceOnUse"><stop stop-color="#83A6FF"/><stop offset="1" stop-color="#5A78FF"/></linearGradient><linearGradient id="paint12_linear" x1="86.687" x2="88.517" y1="44.014" y2="44.014" gradientUnits="userSpaceOnUse"><stop stop-color="#83A6FF"/><stop offset="1" stop-color="#5A78FF"/></linearGradient><linearGradient id="paint13_linear" x1="90.417" x2="92.247" y1="55.484" y2="55.484" gradientUnits="userSpaceOnUse"><stop stop-color="#FF66A9"/><stop offset="1" stop-color="#F53689"/></linearGradient><linearGradient id="paint14_linear" x1="53.082" x2="54.912" y1="44.014" y2="44.014" gradientUnits="userSpaceOnUse"><stop stop-color="#83A6FF"/><stop offset="1" stop-color="#5A78FF"/></linearGradient><linearGradient id="paint15_linear" x1="56.812" x2="58.642" y1="51.66" y2="51.66" gradientUnits="userSpaceOnUse"><stop stop-color="#FF66A9"/><stop offset="1" stop-color="#F53689"/></linearGradient><linearGradient id="paint16_linear" x1="56.812" x2="58.642" y1="40.191" y2="40.191" gradientUnits="userSpaceOnUse"><stop stop-color="#83A6FF"/><stop offset="1" stop-color="#5A78FF"/></linearGradient><linearGradient id="paint17_linear" x1="64.273" x2="66.104" y1="40.191" y2="40.191" gradientUnits="userSpaceOnUse"><stop stop-color="#FF66A9"/><stop offset="1" stop-color="#F53689"/></linearGradient></defs></svg>